<svg xmlns="http://www.w3.org/2000/svg" viewBox="0 0 500 500"><g id="freepik--Plant--inject-8"><g id="freepik--Plants--inject-8"><path d="M85.38,329.19,93,324.82s4.5-18.72,2.71-35.56c-2.53-23.67-18.11-32.58-24-30.54s-7.64,8.93,2.17,23C79.57,290.07,86.68,307.4,85.38,329.19Z" style="fill:#FF7400"></path><g style="opacity:0.65"><path d="M85.38,329.19,93,324.82s4.5-18.72,2.71-35.56c-2.53-23.67-18.11-32.58-24-30.54s-7.64,8.93,2.17,23C79.57,290.07,86.68,307.4,85.38,329.19Z" style="fill:#fff"></path></g><path d="M88.52,320h-.08a.52.52,0,0,1-.41-.61c4.15-21.84-3.48-46.38-12.93-56.59a.53.53,0,1,1,.77-.72c9.62,10.4,17.4,35.34,13.19,57.5A.54.54,0,0,1,88.52,320Z" style="fill:#fff"></path><path d="M66.33,340.19c-1.13.57-4.13-2-5-2.62a10.58,10.58,0,0,1-3.29-4.18,9.86,9.86,0,0,1-.57-5.95,22.41,22.41,0,0,1,.9-3.1c.35-1,.69-2,1-3a7.72,7.72,0,0,0,.6-3c-.16-2.1-1.93-3.65-3.55-5-1.79-1.49-3.63-3.43-3.5-5.93a8.84,8.84,0,0,1,2.48-5.14c1.27-1.46,2.77-2.73,3.93-4.28a6.13,6.13,0,0,0,1.46-3.83,6.4,6.4,0,0,0-.73-2.48,35.63,35.63,0,0,1-2.42-5c-.52-1.78-.32-4,1.11-5.15a5.76,5.76,0,0,1,4.37-.85,9.77,9.77,0,0,1,3.94,1.61c3.87,2.42,5.91,7.25,10,9.16a40.84,40.84,0,0,0,5,1.51,6.33,6.33,0,0,1,4.07,3.1c1.4,3.18-1.68,6.85-.75,10.19.82,3,3.59,4.22,5,6.92a6.28,6.28,0,0,1,.56,3.85,18.38,18.38,0,0,1-1.94,6.36,57.3,57.3,0,0,1-3.82,5.87S66.51,340.1,66.33,340.19Z" style="fill:#FF7400"></path><g style="opacity:0.30000000000000004"><path d="M66.33,340.19c-1.13.57-4.13-2-5-2.62a10.58,10.58,0,0,1-3.29-4.18,9.86,9.86,0,0,1-.57-5.95,22.41,22.41,0,0,1,.9-3.1c.35-1,.69-2,1-3a7.72,7.72,0,0,0,.6-3c-.16-2.1-1.93-3.65-3.55-5-1.79-1.49-3.63-3.43-3.5-5.93a8.84,8.84,0,0,1,2.48-5.14c1.27-1.46,2.77-2.73,3.93-4.28a6.13,6.13,0,0,0,1.46-3.83,6.4,6.4,0,0,0-.73-2.48,35.63,35.63,0,0,1-2.42-5c-.52-1.78-.32-4,1.11-5.15a5.76,5.76,0,0,1,4.37-.85,9.77,9.77,0,0,1,3.94,1.61c3.87,2.42,5.91,7.25,10,9.16a40.84,40.84,0,0,0,5,1.51,6.33,6.33,0,0,1,4.07,3.1c1.4,3.18-1.68,6.85-.75,10.19.82,3,3.59,4.22,5,6.92a6.28,6.28,0,0,1,.56,3.85,18.38,18.38,0,0,1-1.94,6.36,57.3,57.3,0,0,1-3.82,5.87S66.51,340.1,66.33,340.19Z" style="fill:#fff"></path></g><path d="M77.29,334.48h0a.51.51,0,0,1-.46-.54c1.81-19.64-6.37-41.84-12.79-48.5a.49.49,0,0,1,0-.7.5.5,0,0,1,.7,0c6.56,6.79,14.91,29.36,13.07,49.28A.5.5,0,0,1,77.29,334.48Z" style="fill:#fff"></path><path d="M75.34,310.26l-.15,0a66.27,66.27,0,0,0-14.17-3,.49.49,0,0,1-.44-.54.47.47,0,0,1,.54-.45,67.89,67.89,0,0,1,14.41,3.08.49.49,0,0,1,.3.63A.5.5,0,0,1,75.34,310.26Z" style="fill:#fff"></path></g></g><g id="freepik--Floor--inject-8"><g id="freepik--BullsEye--inject-8"><ellipse cx="248.07" cy="379.95" rx="193.15" ry="111.52" style="fill:#f0f0f0"></ellipse><path d="M129.7,448.28c-65.37-37.74-65.44-98.82-.14-136.43s171.28-37.61,236.73,0,65.52,98.69.14,136.43S195.07,486,129.7,448.28Z" style="fill:#fafafa"></path><ellipse cx="248.07" cy="379.95" rx="141.64" ry="81.78" style="fill:#ebebeb"></ellipse><ellipse cx="248.07" cy="379.95" rx="115.89" ry="66.91" style="fill:#fafafa"></ellipse><ellipse cx="248.07" cy="379.95" rx="90.14" ry="52.04" style="fill:#e6e6e6"></ellipse><path d="M202.54,406.23c-25.14-14.52-25.14-38.05,0-52.57s65.73-14.41,90.65.23,24.92,38.18,0,52.57S227.68,420.75,202.54,406.23Z" style="fill:#fafafa"></path><ellipse cx="248.07" cy="379.95" rx="38.63" ry="22.3" style="fill:#e0e0e0"></ellipse></g></g><g id="freepik--Shadows--inject-8"><ellipse id="freepik--Shadow--inject-8" cx="408.38" cy="329.83" rx="28.83" ry="16.64" style="fill:#ebebeb"></ellipse><ellipse id="freepik--shadow--inject-8" cx="340.58" cy="381.99" rx="48.02" ry="27.72" style="opacity:0.15"></ellipse><ellipse id="freepik--shadow--inject-8" cx="298.02" cy="323.21" rx="48.02" ry="27.72" style="opacity:0.15"></ellipse><ellipse id="freepik--shadow--inject-8" cx="142.5" cy="378.03" rx="48.02" ry="27.72" style="opacity:0.15"></ellipse><path d="M244.14,411.82c-11.16-6.43-29.23-6.43-40.38,0a22.9,22.9,0,0,0-3.87,2.78c-.7-.46-1.41-.91-2.17-1.35-18.76-10.83-49.16-10.83-67.92,0s-18.75,28.38,0,39.21,49.16,10.82,67.92,0c7-4.06,11.43-9.07,13.18-14.32,10.74,3.19,24.24,2.19,33.24-3C255.29,428.7,255.29,418.26,244.14,411.82Z" style="opacity:0.15"></path></g><g id="freepik--Clouds--inject-8"><g id="freepik--clouds--inject-8"><path d="M357.11,100.22l6.22,3.59a7.86,7.86,0,0,1-.05-.83v-1.8c0-3.2,2.25-4.5,5-2.9a9.75,9.75,0,0,1,3,2.88c.46-4,3.62-5.53,7.46-3.31a16.6,16.6,0,0,1,7.52,13v2.7a7.07,7.07,0,0,1-.64,3.12l5.17,3a6.15,6.15,0,0,1,2.78,4.83c0,1.78-1.24,2.5-2.78,1.61l-33.7-19.45a6.17,6.17,0,0,1-2.78-4.83C354.33,100.05,355.57,99.33,357.11,100.22Z" style="fill:#ebebeb"></path><path d="M426.66,99.3l-3.35-2.58V89.34c0-5.84-4.66-12.63-9.73-15.55h0c-5.06-2.93-9.16-.56-9.16,5.29v1.07a13.22,13.22,0,0,0-4.26-4.26h0c-3.64-2.1-6.6-.39-6.6,3.81v.49l-4.66-2.7c-2.4-1.38-4.35-.26-4.35,2.51a9.62,9.62,0,0,0,4.35,7.53l37.76,21.8c2.4,1.38,4.34.26,4.34-2.51A9.58,9.58,0,0,0,426.66,99.3Z" style="fill:#ebebeb"></path></g></g><g id="freepik--Trophy--inject-8"><g id="freepik--trophy--inject-8"><path d="M382,297.45a4.12,4.12,0,0,1-3.89-2.47,4,4,0,0,1,.47-4.22,1.31,1.31,0,1,1,1.95,1.75,1.46,1.46,0,0,0,0,1.39,1.51,1.51,0,0,0,1.49.92,1.48,1.48,0,0,0,1.36-1c.5-1.16.15-3.31-2.31-5.85-1.23-1.27-4.23-2.65-7.71-4.25-9.09-4.18-21.53-9.91-21.85-22-.24-9.08,5.27-13.33,10.51-14.28,6-1.08,11.76,1.73,13.41,6.53a1.31,1.31,0,0,1-2.48.86c-1.22-3.53-5.81-5.65-10.47-4.8-5.39,1-8.51,5.32-8.34,11.62.27,10.47,11.86,15.81,20.32,19.7,3.87,1.78,6.92,3.19,8.5,4.81,2.85,2.94,3.91,6.19,2.85,8.71A4.12,4.12,0,0,1,382,297.45Z" style="fill:#FF7400"></path><g style="opacity:0.2"><path d="M382,297.45a4.12,4.12,0,0,1-3.89-2.47,4,4,0,0,1,.47-4.22,1.31,1.31,0,1,1,1.95,1.75,1.46,1.46,0,0,0,0,1.39,1.51,1.51,0,0,0,1.49.92,1.48,1.48,0,0,0,1.36-1c.5-1.16.15-3.31-2.31-5.85-1.23-1.27-4.23-2.65-7.71-4.25-9.09-4.18-21.53-9.91-21.85-22-.24-9.08,5.27-13.33,10.51-14.28,6-1.08,11.76,1.73,13.41,6.53a1.31,1.31,0,0,1-2.48.86c-1.22-3.53-5.81-5.65-10.47-4.8-5.39,1-8.51,5.32-8.34,11.62.27,10.47,11.86,15.81,20.32,19.7,3.87,1.78,6.92,3.19,8.5,4.81,2.85,2.94,3.91,6.19,2.85,8.71A4.12,4.12,0,0,1,382,297.45Z"></path></g><path d="M434.77,297.45a4.12,4.12,0,0,0,3.88-2.47,4,4,0,0,0-.47-4.22,1.31,1.31,0,1,0-1.95,1.75,1.41,1.41,0,0,1,0,1.39,1.54,1.54,0,0,1-2.85-.08c-.5-1.16-.15-3.31,2.31-5.85,1.24-1.27,4.24-2.65,7.71-4.25,9.09-4.18,21.53-9.91,21.85-22,.24-9.08-5.27-13.33-10.5-14.28-6-1.08-11.76,1.73-13.42,6.53a1.32,1.32,0,0,0,2.49.86c1.21-3.53,5.81-5.65,10.46-4.8,5.39,1,8.51,5.32,8.34,11.62-.27,10.47-11.86,15.81-20.32,19.7-3.87,1.78-6.92,3.19-8.5,4.81-2.84,2.94-3.91,6.19-2.84,8.71A4.11,4.11,0,0,0,434.77,297.45Z" style="fill:#FF7400"></path><path d="M434.77,297.45a4.12,4.12,0,0,0,3.88-2.47,4,4,0,0,0-.47-4.22,1.31,1.31,0,1,0-1.95,1.75,1.41,1.41,0,0,1,0,1.39,1.54,1.54,0,0,1-2.85-.08c-.5-1.16-.15-3.31,2.31-5.85,1.24-1.27,4.24-2.65,7.71-4.25,9.09-4.18,21.53-9.91,21.85-22,.24-9.08-5.27-13.33-10.5-14.28-6-1.08-11.76,1.73-13.42,6.53a1.32,1.32,0,0,0,2.49.86c1.21-3.53,5.81-5.65,10.46-4.8,5.39,1,8.51,5.32,8.34,11.62-.27,10.47-11.86,15.81-20.32,19.7-3.87,1.78-6.92,3.19-8.5,4.81-2.84,2.94-3.91,6.19-2.84,8.71A4.11,4.11,0,0,0,434.77,297.45Z" style="opacity:0.1"></path><path d="M387.49,332.89a11.5,11.5,0,0,1-.6-1c-.05-.09-.09-.18-.14-.28a7.46,7.46,0,0,1-.37-.88c0-.09-.07-.18-.1-.27a7.64,7.64,0,0,1-.28-1.12v0a7.43,7.43,0,0,1-.09-1.15c0-.11,0-.22,0-.34A7,7,0,0,1,386,327l.06-.41c0-.26.12-.51.19-.76s.07-.25.12-.38a8.79,8.79,0,0,1,.44-1.06l.19-.33c.14-.25.29-.5.46-.75s.2-.29.31-.43.15-.22.24-.33l.38-.44.2-.23c4.82-5.54,11.91-7.38,19.84-7.38s15,1.85,19.85,7.4l.17.19.4.46.25.35.29.4c.18.27.34.53.49.8.05.1.11.19.15.28a10,10,0,0,1,.46,1.08c0,.11.07.23.1.34a8,8,0,0,1,.2.81,2.2,2.2,0,0,1,.06.37,6,6,0,0,1,.07.85,2.71,2.71,0,0,1,0,.29,7.4,7.4,0,0,1-.38,2.31l-.09.24a8.18,8.18,0,0,1-.39.92c0,.08-.07.16-.12.24a9,9,0,0,1-.64,1.06s0,0,0,0a11.85,11.85,0,0,1-.91,1.13l-.07.07c-.3.33-.63.64-1,1l-.24.21c-.33.28-.67.54-1,.81-.09.06-.17.13-.27.19-.45.32-.93.63-1.45.93-8.78,5.08-23.05,5.08-31.83,0-.51-.3-1-.61-1.44-.92l-.3-.22q-.53-.37-1-.78l-.27-.23c-.34-.3-.65-.61-.94-.92l-.1-.11a11.51,11.51,0,0,1-.9-1.11A.47.47,0,0,0,387.49,332.89Z" style="fill:#FF7400"></path><g style="opacity:0.15"><path d="M387.49,332.89a11.5,11.5,0,0,1-.6-1c-.05-.09-.09-.18-.14-.28a7.46,7.46,0,0,1-.37-.88c0-.09-.07-.18-.1-.27a7.64,7.64,0,0,1-.28-1.12v0a7.43,7.43,0,0,1-.09-1.15c0-.11,0-.22,0-.34A7,7,0,0,1,386,327l.06-.41c0-.26.12-.51.19-.76s.07-.25.12-.38a8.79,8.79,0,0,1,.44-1.06l.19-.33c.14-.25.29-.5.46-.75s.2-.29.31-.43.15-.22.24-.33l.38-.44.2-.23c4.82-5.54,11.91-7.38,19.84-7.38s15,1.85,19.85,7.4l.17.19.4.46.25.35.29.4c.18.27.34.53.49.8.05.1.11.19.15.28a10,10,0,0,1,.46,1.08c0,.11.07.23.1.34a8,8,0,0,1,.2.81,2.2,2.2,0,0,1,.06.37,6,6,0,0,1,.07.85,2.71,2.71,0,0,1,0,.29,7.4,7.4,0,0,1-.38,2.31l-.09.24a8.18,8.18,0,0,1-.39.92c0,.08-.07.16-.12.24a9,9,0,0,1-.64,1.06s0,0,0,0a11.85,11.85,0,0,1-.91,1.13l-.07.07c-.3.33-.63.64-1,1l-.24.21c-.33.28-.67.54-1,.81-.09.06-.17.13-.27.19-.45.32-.93.63-1.45.93-8.78,5.08-23.05,5.08-31.83,0-.51-.3-1-.61-1.44-.92l-.3-.22q-.53-.37-1-.78l-.27-.23c-.34-.3-.65-.61-.94-.92l-.1-.11a11.51,11.51,0,0,1-.9-1.11A.47.47,0,0,0,387.49,332.89Z"></path></g><path d="M389.59,321.73a24.54,24.54,0,0,1,10.23-4.9,5.9,5.9,0,0,0,2.4-.77c.19-.26-.25-.54-1.1-.59a11.35,11.35,0,0,0-1.53,0,17.61,17.61,0,0,0-7.59,3.25,17.22,17.22,0,0,0-3,2.77C388.37,322.36,388.69,322.48,389.59,321.73Zm27.41-4.9a24.49,24.49,0,0,1,10.22,4.9c.91.75,1.23.63.57-.22a17.22,17.22,0,0,0-3-2.77,17.61,17.61,0,0,0-7.59-3.25,11.35,11.35,0,0,0-1.53,0c-.84,0-1.29.33-1.1.59A5.91,5.91,0,0,0,417,316.83Zm-16.69,2.47c1-.64,1.64-1.35,1.55-1.66s-1-.46-2.14-.16a27.56,27.56,0,0,0-10.34,5.58,5.86,5.86,0,0,0-1.95,3.53,7,7,0,0,0,.18,1.65c.27,1.15,1.34,1.21,2.1.31A46.92,46.92,0,0,1,400.31,319.3Zm15.36.7a3.48,3.48,0,0,0-2.79-.58c-.57.26-.64,1.26-.16,2.33a97.75,97.75,0,0,1,4.8,13.35,2,2,0,0,0,2.58,1.36,21.49,21.49,0,0,0,5.85-3.34,2.52,2.52,0,0,0,.35-3.25A40.22,40.22,0,0,0,415.67,320Zm11.76,3.06a27.48,27.48,0,0,0-10.34-5.58c-1.14-.3-2-.15-2.14.16s.57,1,1.56,1.66a47.14,47.14,0,0,1,10.6,9.25c.75.9,1.83.84,2.09-.31a6.52,6.52,0,0,0,.18-1.65A5.8,5.8,0,0,0,427.43,323.06Zm-16.22-1.63a1.84,1.84,0,0,0-1.83-1.15,11.9,11.9,0,0,1-1.95,0,1.84,1.84,0,0,0-1.83,1.15,126.21,126.21,0,0,0-4.81,14.34,2,2,0,0,0,1.54,2.48,36.44,36.44,0,0,0,12.15,0,2,2,0,0,0,1.54-2.48A126.21,126.21,0,0,0,411.21,321.43Zm-7.28-2a3.45,3.45,0,0,0-2.78.58,39.91,39.91,0,0,0-10.63,9.87,2.52,2.52,0,0,0,.34,3.25,21.49,21.49,0,0,0,5.85,3.34,2,2,0,0,0,2.59-1.36,99.11,99.11,0,0,1,4.79-13.35C404.57,320.68,404.5,319.68,403.93,319.42Z" style="fill:#FF7400"></path><path d="M389.59,321.73a24.54,24.54,0,0,1,10.23-4.9,5.9,5.9,0,0,0,2.4-.77c.19-.26-.25-.54-1.1-.59a11.35,11.35,0,0,0-1.53,0,17.61,17.61,0,0,0-7.59,3.25,17.22,17.22,0,0,0-3,2.77C388.37,322.36,388.69,322.48,389.59,321.73Zm27.41-4.9a24.49,24.49,0,0,1,10.22,4.9c.91.75,1.23.63.57-.22a17.22,17.22,0,0,0-3-2.77,17.61,17.61,0,0,0-7.59-3.25,11.35,11.35,0,0,0-1.53,0c-.84,0-1.29.33-1.1.59A5.91,5.91,0,0,0,417,316.83Zm-16.69,2.47c1-.64,1.64-1.35,1.55-1.66s-1-.46-2.14-.16a27.56,27.56,0,0,0-10.34,5.58,5.86,5.86,0,0,0-1.95,3.53,7,7,0,0,0,.18,1.65c.27,1.15,1.34,1.21,2.1.31A46.92,46.92,0,0,1,400.31,319.3Zm15.36.7a3.48,3.48,0,0,0-2.79-.58c-.57.26-.64,1.26-.16,2.33a97.75,97.75,0,0,1,4.8,13.35,2,2,0,0,0,2.58,1.36,21.49,21.49,0,0,0,5.85-3.34,2.52,2.52,0,0,0,.35-3.25A40.22,40.22,0,0,0,415.67,320Zm11.76,3.06a27.48,27.48,0,0,0-10.34-5.58c-1.14-.3-2-.15-2.14.16s.57,1,1.56,1.66a47.14,47.14,0,0,1,10.6,9.25c.75.9,1.83.84,2.09-.31a6.52,6.52,0,0,0,.18-1.65A5.8,5.8,0,0,0,427.43,323.06Zm-16.22-1.63a1.84,1.84,0,0,0-1.83-1.15,11.9,11.9,0,0,1-1.95,0,1.84,1.84,0,0,0-1.83,1.15,126.21,126.21,0,0,0-4.81,14.34,2,2,0,0,0,1.54,2.48,36.44,36.44,0,0,0,12.15,0,2,2,0,0,0,1.54-2.48A126.21,126.21,0,0,0,411.21,321.43Zm-7.28-2a3.45,3.45,0,0,0-2.78.58,39.91,39.91,0,0,0-10.63,9.87,2.52,2.52,0,0,0,.34,3.25,21.49,21.49,0,0,0,5.85,3.34,2,2,0,0,0,2.59-1.36,99.11,99.11,0,0,1,4.79-13.35C404.57,320.68,404.5,319.68,403.93,319.42Z" style="fill:#fff;opacity:0.2"></path><path d="M370.16,249c0,18.72,6.47,28.31,13.95,39.65,8.86,13.42,20.68,18.59,21.19,28a1.54,1.54,0,0,0,.91,1.27,4.83,4.83,0,0,0,4.38,0,1.54,1.54,0,0,0,.91-1.26h0c.21-9.45,12.32-14.63,21.18-28,7.49-11.34,14-20.78,14-39.65Z" style="fill:#FF7400"></path><path d="M370.16,249c0,18.72,6.47,28.31,13.95,39.65,8.86,13.42,20.68,18.59,21.19,28a1.54,1.54,0,0,0,.91,1.27,4.83,4.83,0,0,0,4.38,0,1.54,1.54,0,0,0,.91-1.26h0c.21-9.45,12.32-14.63,21.18-28,7.49-11.34,14-20.78,14-39.65Z" style="fill:#fff;opacity:0.2"></path><path d="M370.16,249.23c.07,18.53,6.51,28.09,13.95,39.37,8.86,13.42,20.68,18.59,21.19,28a1.54,1.54,0,0,0,.91,1.27,3.46,3.46,0,0,0,.9.36c-.32-9.13-3.73-13-10.62-21.79-9.37-11.91-14.92-25.46-4.87-27.4,0,0-15.19-18.57-18.95-20.13H370.2A1.88,1.88,0,0,0,370.16,249.23Z" style="fill:#FF7400"></path><path d="M435.44,264.56c-14.93,8.62-39.13,8.62-54.06,0s-14.94-22.6,0-31.22,39.14-8.62,54.07,0S450.37,255.94,435.44,264.56Z" style="fill:#FF7400"></path><path d="M435.44,264.56c-14.93,8.62-39.13,8.62-54.06,0s-14.94-22.6,0-31.22,39.14-8.62,54.07,0S450.37,255.94,435.44,264.56Z" style="fill:#fff;opacity:0.5"></path><path d="M432.6,262.92c-13.36,7.71-35,7.71-48.38,0s-13.37-20.22,0-27.94,35-7.71,48.39,0S446,255.21,432.6,262.92Z" style="fill:#FF7400"></path><path d="M432.6,262.92c-13.36,7.71-35,7.71-48.38,0s-13.37-20.22,0-27.94,35-7.71,48.39,0S446,255.21,432.6,262.92Z" style="fill:#fff;opacity:0.2"></path><path d="M394.54,230.9A40.56,40.56,0,0,0,384.22,235c-13.36,7.72-13.36,20.23,0,27.94a39.26,39.26,0,0,0,8,3.43C382.62,250.14,388.15,234.25,394.54,230.9Z" style="fill:#FF7400"></path><path d="M432.6,253.35c-13.36-7.71-35-7.71-48.39,0a25.34,25.34,0,0,0-6.1,4.78,25,25,0,0,0,6.11,4.79c13.36,7.71,35,7.71,48.38,0a25.4,25.4,0,0,0,6.11-4.78A25.38,25.38,0,0,0,432.6,253.35Z" style="fill:#FF7400;opacity:0.4"></path><path d="M429.84,264.35c-12.48-5.81-30.38-5.81-42.86,0C399.46,270.15,417.36,270.15,429.84,264.35Z" style="fill:#FF7400;opacity:0.4"></path></g></g><g id="freepik--character-3--inject-8"><g id="freepik--Character--inject-8"><g id="freepik--Bottom--inject-8"><path d="M264.3,327.44c1.46-.9,2.82-1.95,4.29-2.84a23.07,23.07,0,0,0,4.15-3.09,25.52,25.52,0,0,0,5-8,29.44,29.44,0,0,0,1.39-4.86c.81-4.24.74-23.63.89-29.86l16.47,7.94a181.45,181.45,0,0,0-3.75,20.54c-.26,5.11,2.63,11.37-2.07,14.74-.93.66-2,1.11-3,1.7-3.17,1.91-5.34,5.18-8.21,7.54a19.4,19.4,0,0,1-7.28,3.66,11.37,11.37,0,0,1-3.32.69,27.57,27.57,0,0,1-4.32-.61,7.14,7.14,0,0,1-2.52-.91,3.1,3.1,0,0,1-1.46-2.21,3.32,3.32,0,0,1,1.06-2.57,10.91,10.91,0,0,1,2.31-1.62Z" style="fill:#b16668"></path><path d="M294.44,319.12a5.75,5.75,0,0,1-.14,3.42c-.65.88-1.67,1.56-4.13,2.91a10.2,10.2,0,0,0-4.38,4.56,20.05,20.05,0,0,1-3.81,4.62c-2.77,2.51-6.86,3.89-13.57,3.53-4.2-.22-7.63-2-8.53-3.19a3.22,3.22,0,0,1-.57-2.54Z" style="fill:#263238"></path><path d="M293.53,308.35c0-.65-.58-1.35-.81-1.11a5.8,5.8,0,0,1-.6,2.55,10.81,10.81,0,0,1-6.32,4s.23-.73-1.32-1.32-5.5-2.11-6.32-1.69-1.68,4.67-4.37,8.41a22.43,22.43,0,0,1-9.11,7.12c-2.39,1-5.12,3-5.11,6.19,2.44,3.52,9,3.93,13.05,3.61,7.12-.58,10.35-5.1,12.34-7.81s2.66-3.12,5.91-5.42c1.42-1,2.9-1.72,3.57-3.77C295.15,314.1,293.48,314,293.53,308.35Z" style="fill:#37474f"></path><path d="M276.5,335.31c.39-2.65-.82-6-4.87-8.18s-5.8-1.67-7.21-1.14-6.27,3-5,6.66C259.88,334.48,268.39,338.34,276.5,335.31Z" style="fill:#fafafa"></path><path d="M285.8,313.8a1.57,1.57,0,0,0-1.06.36,3.44,3.44,0,0,0-.65,1l-1,2c-.69,1.33-1.39,2.65-2.15,3.93a38.21,38.21,0,0,1-2.45,3.7,19.71,19.71,0,0,1-3,3.26,13.52,13.52,0,0,0,3.41-2.91,26.47,26.47,0,0,0,2.63-3.68,42.57,42.57,0,0,0,2.07-4c.31-.69.6-1.4.85-2.1a4,4,0,0,1,.46-1A1.68,1.68,0,0,1,285.8,313.8Z" style="fill:#263238"></path><path d="M277.45,327.46c-1.26-1.35-6.87-3.95-8.75-3.35l-.45.29a2.23,2.23,0,0,1,1.05-1.06c.88-.51,5.76.49,8.89,3.35C278.35,327.19,277.87,327.84,277.45,327.46Z" style="fill:#fafafa"></path><path d="M279.78,324.6c-1.25-1.35-6.14-3.58-8-3l-.37.35a1.81,1.81,0,0,1,1-1.12c.88-.51,5,.12,8.17,3C280.69,324.33,280.2,325,279.78,324.6Z" style="fill:#fafafa"></path><path d="M281.4,321.59c-1.29-1.32-5.6-3.27-7.47-2.62l-.28.41a2,2,0,0,1,.72-1.1c.83-.6,4.55-.26,7.75,2.51C282.3,321.28,281.83,322,281.4,321.59Z" style="fill:#fafafa"></path><path d="M283,319c-1.29-1.32-5.6-3.27-7.47-2.61l-.23.44a1.74,1.74,0,0,1,.67-1.13c.83-.61,4.55-.27,7.75,2.51C283.86,318.68,283.39,319.34,283,319Z" style="fill:#fafafa"></path><path d="M298.84,306.1c1.31-2.35,3-4.11,3.92-5.83a16.36,16.36,0,0,0,2.16-6.51,52.63,52.63,0,0,0,.22-7.46c-.06-4.9-6.4-13.52-12.44-20.81l16.46-4c2.84,6.89,5.87,15.34,6.41,16.2l.14.2,0,0c1,1.43,2.81,1.88,4.17,4.1l0,0a4.32,4.32,0,0,1-.25,4.63c-.13.19-.26.38-.39.6a21.75,21.75,0,0,0-2.3,4.25c-.69,1.88-.37,4.42-.33,7.13a7.18,7.18,0,0,1-2.32,6c-1.43,1.46-6.29,4.69-9.85,5.12C298.79,310.47,297.54,308.46,298.84,306.1Z" style="fill:#b16668"></path><path d="M320.76,283.17a4.24,4.24,0,0,1,1.37,2.59,13.71,13.71,0,0,1-2.28,4.8c-1.42,2-2,2.88-1.89,4.76a16.91,16.91,0,0,1-.87,7.34,15.36,15.36,0,0,1-9.15,9c-4.5,1.81-7.67.77-8.83.2s-.93-2.4-.93-2.4Z" style="fill:#263238"></path><path d="M315.53,277.59a2.72,2.72,0,0,1,.66,2.3c-.43,2.61-3.91,5.15-4.87,5.8a3.52,3.52,0,0,0-1.74-.85c-1.59-.45-4.41,0-4.89.63s.4,5.14-.32,9.09a17.72,17.72,0,0,1-4.1,8.52c-1.51,1.71-3.91,3.95-1.89,7.12,1.44.91,8.22,1.86,13.69-2.77,4.85-4.12,4.81-9.77,4.71-12.69s1.12-4.32,2.81-7.41c.74-1.34,1.4-2.32,1.17-4.16A12.21,12.21,0,0,0,315.53,277.59Z" style="fill:#37474f"></path><path d="M312.07,307.43a6.47,6.47,0,0,0-4.46-5.7c-4.24-1.13-6.67-.33-7.86.73-1,.88-5,4.71-1.57,7.8C299.25,311.45,305.61,313.22,312.07,307.43Z" style="fill:#fafafa"></path><path d="M311.32,285.69a1.42,1.42,0,0,0-.7.71,3.2,3.2,0,0,0-.15,1c0,.66,0,1.29-.07,2,0,1.29-.11,2.59-.22,3.87a37.56,37.56,0,0,1-.55,3.83,18.1,18.1,0,0,1-1.15,3.71,12.24,12.24,0,0,0,1.59-3.6,22.52,22.52,0,0,0,.7-3.89,34.41,34.41,0,0,0,.13-3.93c0-.65-.06-1.31-.11-1.95a3.7,3.7,0,0,1,0-.94A1.56,1.56,0,0,1,311.32,285.69Z" style="fill:#263238"></path><path d="M309.49,300c-1.29-1-5.62-1.55-6.8-.49l-.22.41a2.17,2.17,0,0,1,.43-1.32c.5-.73,3.85-1.64,6.9.45C310.06,299.51,309.89,300.28,309.49,300Z" style="fill:#fafafa"></path><path d="M310.26,296.74c-1.23-1.12-5.05-1.46-6.29-.48l-.11.37a1.3,1.3,0,0,1,.29-1.25c.53-.69,4.09-1.34,6.48.43C310.86,296.28,310.65,297,310.26,296.74Z" style="fill:#fafafa"></path><path d="M310.76,293.64c-1.22-1.12-5-1.53-6.2-.54l0,.43a1.06,1.06,0,0,1,.14-1.25c.53-.7,4.08-1.34,6.48.43C311.37,293.17,311.16,293.93,310.76,293.64Z" style="fill:#fafafa"></path><path d="M310.91,290.34c-1.26-1.07-5.05-1.3-6.26-.26v.37a1.11,1.11,0,0,1,0-1.16c.46-.75,4.15-1.57,6.61.11C311.5,289.86,311.32,290.62,310.91,290.34Z" style="fill:#fafafa"></path><path d="M271.57,180.47s-1.39,8.1-1.54,25.44c-.12,14.52-2,24.19,3.47,33.61,4.93,8.4,26.41,37.89,28.66,40.82,0,0,7.83-.36,11.87-6.71,0,0-3.91-11.82-8.11-21.65s-8.29-19.43-8.29-19.43l12-44.42Z" style="fill:#263238"></path><path d="M311,275.84l.77-.23c-2.88-9.67-14.92-37.15-20.18-42.47l-.56.56C296.1,238.83,308.22,266.48,311,275.84Z"></path><path d="M312.06,267.91c-1.47,3-9.38,8.78-13.22,7.94L303,281.6c3.54.31,9.33-3.33,11.46-7.09Z" style="fill:#37474f"></path><path d="M273.29,184.16l36.35,4-12,44.42,6.12,14.34c-.29.85-1.23,5.75-1.31,6.05-.29,1,2.07,5.13,0,17.33-.39,2.35-1.35,5.74-1.92,7.92-4.1-5.61-12.87-17.52-19.38-27.08-.46-.83-1.19-2.3-1.19-2.3s-1.26-7.93-.41-13.65c.72-4.82,3.74-30.57,3.74-30.57a19.77,19.77,0,0,1-5.22-5.13,13,13,0,0,1-2.34-5.54A82,82,0,0,1,273.29,184.16Z" style="fill:#37474f"></path><path d="M315.37,180.35c0,6.62.32,9,.09,13.79-.29,6-1.85,12-3.69,18.75s-10.66,36.89-11.35,39.28c.69,5.23,1.44,9.87-.67,21.17-3.05,16.32-6.58,30.7-6.58,30.7s-8.48,1.95-13.61-1.32c0,0-.23-46.84.44-57.55.58-9.31,6-41.93,6-41.93a26.86,26.86,0,0,1-14.42-22.77Z" style="fill:#37474f"></path><path d="M296.4,248.73c.5-1.85,1.91-6.42,3.7-12.21,3-9.73,7.19-25.24,8.61-31.18,1.7-7.09,1.9-22,1.9-22.11h.8c0,.15-.2,15.11-1.92,22.28-1.42,6-5.45,21-8.63,31.23-1.71,5.56-3.2,10.35-3.69,12.19a19.54,19.54,0,0,0-.23,6.66,66.67,66.67,0,0,1-.69,16.93c-1.24,7.9-4.57,23.48-6.43,32l-.83.05c1.85-8.45,5.22-24.21,6.47-32.17a66.71,66.71,0,0,0,.69-16.75A20.23,20.23,0,0,1,296.4,248.73Z" style="fill:#263238"></path><path d="M294.78,297.19c-3.07,1.49-12.66,1.68-15.26-1.42l0,7.12c2.69,2.48,9.71,3,13.81,1.26Z" style="fill:#455a64"></path></g><g id="freepik--Top--inject-8"><g id="freepik--Chest--inject-8"><path d="M244.9,142.9c4.44.45,22.19.88,22.19.88l10.21-13.91c-8.23-3.39-8.24-1.44-20.08-1.61s-13.47-.09-13.47-.09c-5.34-4.91-11.21-9.39-16.48-14.69-2.07-2.42-1.61-5.91-3-8.64-.9-2.39-2.9-4.25-3.56-6.78-.71-2.89-3-.51-2.81,1.42a23.2,23.2,0,0,0,.89,4.4c0,.21.07.47-.1.61a2,2,0,0,1-1.3-.24,32.7,32.7,0,0,1-6.67-7.07c-1.06-1.34-4.28-3.13-4.49-.28a4.36,4.36,0,0,1,.13,1.9,5.48,5.48,0,0,0-.27,1.25c0,.87.88,1.56.86,2.44,0,.41-.23.8-.24,1.22,0,.68.49,1.26.67,1.92.24.87-.12,1.83.15,2.7a16.8,16.8,0,0,0,1.73,3,25.71,25.71,0,0,0,4,4.9c2.09,2.12,5.17,3,7.1,5.31,3.84,4.77,11.72,15.59,14.91,18.54C237.7,142.4,240.46,142.45,244.9,142.9Z" style="fill:#b16668"></path><path d="M219.05,106.46c-.27,4.16.44,7.3,2.73,10.36C218.32,115,216.49,111.06,219.05,106.46Z" style="fill:#9a4a4d"></path><path d="M281,126.65c-5.29-.83-11.8-.33-17.4,0l-19,1.19a31.74,31.74,0,0,1,1.13,7.59c.19,5.45-1.88,7.58-1.88,7.58s4.36.64,9.57.88c7.36.34,15.75.44,15.75.44Z" style="fill:#455a64"></path><path d="M247.66,127.4a16.4,16.4,0,0,0-4.4.32l.49.45s.77,1.41.91,5.29c.15,4.11-.1,8.41-1.45,9.27l-1.31-.15s-.62,1,1.6,1.2,4.89.59,5.72-.06c.59-.46,2.06-2.52,1.86-7.74C250.84,129.64,249.2,127.66,247.66,127.4Z" style="fill:#37474f"></path><path d="M268.72,153.4c-1.07-12.1-.3-24,11.19-26.59,2.22-.5,9.69-.56,15.48.9,8.79,2.24,12.25,3,16.07,4.57,0,0,3.3,5.59,3.43,27,.08,13.91.43,17.08,1.07,31.54-9.54,4.71-39.56,5.69-45.41-4.46C271.11,177.68,270.17,169.79,268.72,153.4Z" style="fill:#FF7400"></path><path d="M307.76,131.38c-1.32,1.58-3.51,6.58-4.85,13.69-2.14,11.44-3.73,23.78-3.73,23.78-1.12.31-17.34,10.36-24,11-2.34.13-4.54-1-6.88-1a16.63,16.63,0,0,1-3.31,0,22.24,22.24,0,0,0-2.29-.36c-2.1-.1-1.25,1.94-.09,2.94,1.32,1.14,4.1,1,5,1.68s-1.17,1.31-1.94,1.49a27.58,27.58,0,0,1-9,.32,6.89,6.89,0,0,0-4.53.7c-.43.23-.68,1.27-.17,1.51,1,.43,1.43.69,1.43.69a2.22,2.22,0,0,0,2,2.14c.45.11-.1,1.17,1.59,2.08.55.29.74,1,1.2,1.41a11.73,11.73,0,0,0,6.16,1.59,23.45,23.45,0,0,0,9.53-1.6c1.92-.7,3.48-2.18,5.42-2.89,7.84-3.23,19.94-6.49,23.86-8,8.07-3,8.42-3,10.45-11.88,2.45-10.71,3.81-19.32,4.61-23.76C319.17,141,316.22,132.85,307.76,131.38Z" style="fill:#b16668"></path><path d="M307.53,130.85c4.72,1.07,5.79,1.93,8,4.25s4,5.47,3.11,13.28S314,170.73,314,170.73s-8.08-2.34-14.45-4.42c0,0,1.29-10.4,1.84-14.39C302.1,146.68,303.22,135.69,307.53,130.85Z" style="fill:#455a64"></path><path d="M299.33,168.15a17,17,0,0,1,7.43.95c4.57,1.47,6.08,4.36,6.08,4.36l-.31,1.15s.78.34,1.44-1.66,1.42-4.23.95-5.77-3.42-5-7.48-5.85-7.2.27-7.69,1.36-1.52,5.75-.56,6.16Z" style="fill:#37474f"></path><g id="freepik--Head--inject-8"><path d="M297.15,120.27c.4-3.7,3.8-7.74,5.24-11s2.19-5.62,1.83-8.5c-.21-1.7-1.44-4-2.74-4.37A8,8,0,0,0,295,86.8a27.67,27.67,0,0,1-3.57-.76c-1.41-.49-1.79-1.58-3-2.46-2-1.5-5.25-1.34-6.32,1.2-1.38-1.57-3.1-1.42-5.07-.79a3.4,3.4,0,0,0-2.37,4,3.6,3.6,0,0,0-5.25,2.3c-.11,1.17.2,2.13-.49,3.21s-2.4,1.31-2.95.39c-.17,1.66.55,2.88,2.33,2.68a3.73,3.73,0,0,0-.27,3.17,3.44,3.44,0,0,0,3.22,2.16,5.25,5.25,0,0,0,3.17,4.22c2.78,1.12,5.8,1.35,8.74,1.77l3.5.51c.21,0,1.25,0,1.39.19Z" style="fill:#263238"></path><path d="M301.29,115.26a3.54,3.54,0,0,1-4.32.14l.38,12.47c-.26,3-6.17,6.88-11.26,6.54-5.85-.38-5.51-3.24-3.12-6.38l-.09-3.34a36.19,36.19,0,0,1-4.55.12c-2.89-.22-5.2-2.41-6.21-5.47A32.35,32.35,0,0,1,271,107.05a10.91,10.91,0,0,0,0-3,14.21,14.21,0,0,1,.5-6.52c3-2.74,10.24-4.06,17.31-.34-.54,4.1,1.24,7.21,4.28,8.57-.07,1.1,0,3.88,1.76,3.71,1.3-.11,1.28-1.74,2.52-3.26s4.32-2.09,5.66,0A7,7,0,0,1,301.29,115.26Z" style="fill:#b16668"></path><path d="M282.88,124.69c4.52-.82,7.76-1.49,9.93-4.93a29.12,29.12,0,0,0,2.4-5.57,22.08,22.08,0,0,1-1.53,6.88c-1,2.18-3.66,4.3-10.75,5.36Z" style="fill:#9a4a4d"></path><path d="M283.45,107.05a1.3,1.3,0,0,0,1.38,1.23,1.32,1.32,0,0,0,1.18-1.43,1.28,1.28,0,1,0-2.56.2Z" style="fill:#263238"></path><path d="M283.53,102.83l3,1a1.65,1.65,0,0,0-1-2A1.54,1.54,0,0,0,283.53,102.83Z" style="fill:#263238"></path><path d="M272.59,104l3-1a1.53,1.53,0,0,0-2-1A1.67,1.67,0,0,0,272.59,104Z" style="fill:#263238"></path><path d="M273.25,107a1.28,1.28,0,1,0,1.18-1.43A1.32,1.32,0,0,0,273.25,107Z" style="fill:#263238"></path><polygon points="274.93 112.07 279.87 113.97 279.86 104.72 274.93 112.07" style="fill:#9a4a4d"></polygon><path d="M284.73,115l-5.21,1.74a2.7,2.7,0,0,0,3.43,1.83A2.89,2.89,0,0,0,284.73,115Z" style="fill:#9a4a4d"></path><path d="M284.18,115.89a3,3,0,0,1,.66-.06,2.85,2.85,0,0,1-1.89,2.69,2.94,2.94,0,0,1-.87.12A2.51,2.51,0,0,1,284.18,115.89Z" style="fill:#f28f8f"></path></g></g></g></g></g><g id="freepik--character-2--inject-8"><g id="freepik--character--inject-8"><g id="freepik--bottom--inject-8"><path d="M172.71,352.06c.25-4.35,4-39.57,4-39.57l-18.14,9.24c1.08,19.58,2.53,28.9,2.54,32.27h0a4,4,0,0,1,.06.7c-.27,3.84,4.16,6.25,7.54,9.08a67.83,67.83,0,0,0,9.22,6.7c2.51,1.43,7.77,1.94,8.54.41-4.11-3.47-8.89-7.28-12.08-11.13C172.89,357.93,172.48,356.11,172.71,352.06Z" style="fill:#ffbda7"></path><path d="M193.61,375.58a3.12,3.12,0,0,1-.9,3.26c-1.48,1-5.72,2.59-11.1,1.52s-8.19-2.88-10.23-4.76-4.9-4.54-7.32-5.23a15.34,15.34,0,0,1-5.32-2.53c-.68-.73-.36-3.68-.36-3.68Z" style="fill:#263238"></path><path d="M161.08,353s-.37-.07-.56.61-.59,3.16-1.05,4.47a23,23,0,0,0-1.07,7.15c.19,1.54,3.83,2.87,6.14,3.91a30.38,30.38,0,0,1,7.34,5.17A23.25,23.25,0,0,0,183,379.16c5.39.49,9-.63,10.2-2.38,1.51-2.17.56-3.56-5.44-6.75-1.14-.6-5.09-3.22-6.43-4.16a20.63,20.63,0,0,1-8-9.95,2.29,2.29,0,0,0-.8-1.3,2.21,2.21,0,0,0-1.2-.19,15.69,15.69,0,0,0-3.7.46c-.86.31-2.08.66-2.13,1.67a3.36,3.36,0,0,0,.15,1c.06.21.1.49-.1.6s-.42-.05-.57-.2a15.77,15.77,0,0,1-1.53-2,5.5,5.5,0,0,0-.91-1,9.67,9.67,0,0,1-1-.73A2,2,0,0,1,161.08,353Z" style="fill:#37474f"></path><path d="M188.76,370.56c-7.85-.09-10.65,4.29-11.2,7.08a19.11,19.11,0,0,0,5.47,1.52c5.39.49,9.21-.61,10.42-2.36C194.87,374.75,194.15,373,188.76,370.56Z" style="fill:#fafafa"></path><path d="M177,369.75a.43.43,0,0,1-.24-.1.36.36,0,0,1,0-.52,9.48,9.48,0,0,1,7.26-2.09.36.36,0,0,1,.31.42.38.38,0,0,1-.45.29,8.79,8.79,0,0,0-6.57,1.88A.39.39,0,0,1,177,369.75Z" style="fill:#f0f0f0"></path><path d="M173.81,367.64a.4.4,0,0,1-.23-.1.35.35,0,0,1,0-.51,9.46,9.46,0,0,1,7.26-2.1.36.36,0,1,1-.13.71,8.73,8.73,0,0,0-6.57,1.89A.4.4,0,0,1,173.81,367.64Z" style="fill:#f0f0f0"></path><path d="M170.85,365.29a.4.4,0,0,1-.23-.1.36.36,0,0,1,0-.52,9.51,9.51,0,0,1,7.26-2.09.36.36,0,0,1,.31.42.38.38,0,0,1-.44.29,8.75,8.75,0,0,0-6.57,1.89A.44.44,0,0,1,170.85,365.29Z" style="fill:#f0f0f0"></path><path d="M168,362.94a.37.37,0,0,1-.23-.1.35.35,0,0,1,0-.51c1.63-1.67,5.1-2.59,7.91-2.08a.36.36,0,0,1,.31.42.37.37,0,0,1-.44.29c-2.53-.46-5.77.38-7.21,1.86A.38.38,0,0,1,168,362.94Z" style="fill:#f0f0f0"></path><path d="M137.71,330.16l-16.32-3.27c-1.76,10.37-2.25,22.14-3.85,31.88-.3,1.83-2.8,14.15-2.8,18,0,5.83,7.24,6.36,8.27,3.06s4.09-17.85,4.4-19.34c1.14-6.22,5.17-16.15,9-27C136.55,333,137.53,330.68,137.71,330.16Z" style="fill:#ffbda7"></path><path d="M125.22,382.7c-.49,3.34-1.24,5.52-2.67,7.38s-3.86,2.27-6.22,1.49S111,389,110.58,386a17.48,17.48,0,0,1,.69-8Z" style="fill:#263238"></path><path d="M117.73,357.57c-1,0-1.68,4.47-2.64,8.94-1,4.78-2.73,6.65-3.62,10.57-1,4.48-.93,6.52.51,9.41s7.16,6.08,10.43,2.41c2.66-3,3.07-6.53,3.24-11.08a97.8,97.8,0,0,1,1.3-11.43c.49-3.38,1.58-6.73.75-7.18-.11.49-.23,1.11-.34,1.6s-.35,2.2-.9,2.17a6.14,6.14,0,0,1,.1-1.28,1.46,1.46,0,0,0-.18-1.12,1.92,1.92,0,0,0-1.06-.56c-1-.27-3-.53-4-.7-.49-.08-1-.15-1.48-.18a4.16,4.16,0,0,0-1.27.06.89.89,0,0,0-.58.41,1.5,1.5,0,0,0-.1.52,3.3,3.3,0,0,1-.2.92c-.05.13-.16.28-.3.24a.28.28,0,0,1-.14-.29c.05-.55.15-.94.23-1.57,0-.3.13-.69.16-1S117.68,357.86,117.73,357.57Z" style="fill:#37474f"></path><path d="M111,379.68c-.41,2.8-.41,4.74.72,7,1.45,2.88,7.64,6.13,10.91,2.46a12.35,12.35,0,0,0,2.62-6.44C123.72,379.53,114,377.35,111,379.68Z" style="fill:#fafafa"></path><path d="M123.1,377.56a.31.31,0,0,1-.12-.05,15.35,15.35,0,0,0-8.49-1.57.36.36,0,0,1-.42-.3.35.35,0,0,1,.32-.39,15.92,15.92,0,0,1,9,1.66.35.35,0,0,1,.14.48A.4.4,0,0,1,123.1,377.56Z" style="fill:#f0f0f0"></path><path d="M115,372.59a.4.4,0,0,1-.29-.26.35.35,0,0,1,.27-.43c4.57-1,8.78,1.48,9,1.59a.35.35,0,0,1,.12.48.39.39,0,0,1-.51.1s-4.14-2.46-8.39-1.49A.29.29,0,0,1,115,372.59Z" style="fill:#f0f0f0"></path><path d="M115.55,369.43a.4.4,0,0,1-.29-.26.36.36,0,0,1,.26-.43,12,12,0,0,1,9.15,1.58.33.33,0,0,1,.08.48.39.39,0,0,1-.52.08,11.39,11.39,0,0,0-8.51-1.46Z" style="fill:#f0f0f0"></path><path d="M116.16,365.87a.35.35,0,0,1,0-.68c4.72-1.22,9,1.56,9.2,1.68a.33.33,0,0,1,.09.48.38.38,0,0,1-.51.09s-4.19-2.71-8.58-1.57Z" style="fill:#ebebeb"></path><path d="M143.65,213.28a7.86,7.86,0,0,1-1.92,3.67c-4.89,5.75-8.81,11.35-10.11,22.43-3.23,27.41-5,55.94-5,55.94-.39,2.41-2.81,6.53-4.83,19-1.76,10.91-2.77,26-2.77,26s7.66,4.43,14.75,2.38c3.5-8.69,11.17-31.39,15.18-43.1,3.64-10.63,6.81-26.45,6.81-26.45l2.85,22.55a64.48,64.48,0,0,0-1,14.33c.24,7.43,1.8,28.8,1.8,28.8s8.56,3.34,14.81-.29c0,0,4.64-36.6,5.47-45.49,1.54-16.55,4.34-50.45,1.06-72a46.88,46.88,0,0,1,.1-4.95C174.6,220.4,151,219.11,143.65,213.28Z" style="fill:#37474f"></path><path d="M152.18,221.85a.34.34,0,0,0-.41.2c-.43,1.25-.77,2.37-1.1,3.47-1.2,3.94-2.07,6.79-5.38,9.64a10.63,10.63,0,0,1-7.91,2.38c2-8.11,5.37-14.43,10.26-19.47a.31.31,0,0,0,0-.44.35.35,0,0,0-.46,0c-5,5.18-8.45,11.69-10.48,20a.05.05,0,0,0,0,0v0A79.24,79.24,0,0,0,135,247.9c-1.61,15.44-4,38.76-4.81,44.88a44.55,44.55,0,0,1-2.63,9.59c-1.08,3-2.29,6.49-3.52,11.25-2.65,10.29-3.23,27.52-3.24,27.69a.32.32,0,0,0,.3.32h0a.3.3,0,0,0,.33-.29c0-.18.59-17.34,3.22-27.57,1.22-4.74,2.43-8.17,3.5-11.2a45.31,45.31,0,0,0,2.67-9.72c.76-6.12,3.2-29.44,4.81-44.88a75.41,75.41,0,0,1,1.64-9.83l.33,0a11.16,11.16,0,0,0,8.16-2.56c3.44-3,4.33-5.89,5.56-9.93.33-1.09.67-2.21,1.1-3.45A.32.32,0,0,0,152.18,221.85Z" style="fill:#455a64"></path><path d="M119.25,336.94c2.16,2.41,11.9,4.42,15.67,2.8l-2,5.75s-2.46,1.25-7.65.33c-6-1.07-6.5-3.06-6.5-3.06Z" style="fill:#455a64"></path><path d="M159.12,335.6c3,1.3,11.89,1.42,15.47-.4l-.57,4.91s-2.07,1.67-7.34,1.78-7.26-1.5-7.26-1.5Z" style="fill:#455a64"></path><path d="M155.75,273.16l5.74-26.85a17.24,17.24,0,0,0,14.28-5.43s-.36,6.81-11.78,9l-6.24,24.66.85,21.2Z" style="fill:#263238"></path></g><g id="freepik--top--inject-8"><path d="M171.19,173.35c8.9,0,11,1.61,22,6l12.43,4.91c5-5.23,10.6-10.07,15.52-15.69,1.92-2.54,1.24-6,2.45-8.81.74-2.44,2.63-4.43,3.12-7,.53-2.93,3-.69,2.89,1.24a23.33,23.33,0,0,1-.6,4.45c0,.21,0,.47.14.6a2,2,0,0,0,1.27-.32,32.59,32.59,0,0,0,6.22-7.47c1-1.41,4.07-3.39,4.47-.56a4.2,4.2,0,0,0,0,1.9,5.36,5.36,0,0,1,.34,1.23c0,.87-.77,1.62-.7,2.48,0,.42.27.79.31,1.21.07.68-.41,1.29-.54,2-.19.89.23,1.82,0,2.7A16.49,16.49,0,0,1,239,165.3a25.8,25.8,0,0,1-3.64,5.13c-2,2.25-5,3.33-6.76,5.75-3.53,5-10.84,16.18-13.71,19.44-4,4.49-5.62,4.5-15.86,1.93-9.14-2.3-23.67-7.46-23.67-7.46Z" style="fill:#ffbda7"></path><path d="M228.91,161c.53,4.13,0,7.32-2.08,10.51C230.17,169.53,231.75,165.45,228.91,161Z" style="fill:#f0997a"></path><path d="M171.11,173a32.07,32.07,0,0,1,14,2.6c5.21,2.08,19.24,8.1,19.24,8.1a17.16,17.16,0,0,0-3.23,6.66,14.7,14.7,0,0,0,.15,8s-5.59-1.35-10.56-2.92l-15.86-5Z" style="fill:#455a64"></path><path d="M205.62,184.23s-1.79.7-2.81,4.68-.89,8.26,0,9.57l1.21.26s-.21.94-2.32.63-5-1.25-5.45-1.83-1.52-4.34-.36-9.44,4.09-6.48,5.62-6.14a29.18,29.18,0,0,1,4.5,1.84" style="fill:#37474f"></path><path d="M181.52,203.34c.1,4.06-.55,15-.55,15,1.08,10.19,1.19,15.77,1.19,15.77-18.27,9.05-46.23,1.45-49.52-2.61,2-8.85,7.84-16.8,7-21.59l-2.35-17.74s6.69-5.2,6.38-18.31a47.56,47.56,0,0,1,10.94-2A100.43,100.43,0,0,1,171.11,173c2.84,1.67,8.71,7.13,12,12.78S187.11,197.83,181.52,203.34Z" style="fill:#FF7400"></path><path d="M167.72,202.45s-4.82,4-10.53,2.19a9.67,9.67,0,0,1-6.7-6.72s-.39,6.48,6.81,8.44A9.34,9.34,0,0,0,167.72,202.45Z" style="opacity:0.1"></path><path d="M180.79,139.22c2.35,4.47,1.59,9-2.61,11.42,0,.67-1.63,12.51,2.35,14.77-1.29,3.59-5.78,6.42-18.79,5.43s-16.88-2.63-18.21-6.48-1.69-26.74,7.46-27.16C158.82,124.91,176.29,130.68,180.79,139.22Z" style="fill:#37474f"></path><path d="M171.93,137.55c3,1.12,6.13,4.68,6.6,17.73.34,9.3-2.16,11-3.57,11.93-2.27,1.56-4.63,1.5-7.61,1.21l-.33,5.51s6,8.66,3,12.55a25.12,25.12,0,0,1-12.22-6.35A21.07,21.07,0,0,1,153,174l.56-11.91s-1.63,1.73-4.72-.56c-2.56-1.89-3.6-5.27-1.83-7.24a4.33,4.33,0,0,1,6.81.87s3.31,0,3.65-6.17c0,0,.32-1.5,3.26-2.12C169.89,144.89,172.14,139.15,171.93,137.55Z" style="fill:#ffbda7"></path><path d="M167.35,168.42c-4.67-.45-9.8-2.5-10.95-4.86a5.16,5.16,0,0,0,2.93,4.14,54.79,54.79,0,0,0,7.91,2.51Z" style="fill:#f0997a"></path><path d="M166.52,159.47l4.4,1.21a2.26,2.26,0,0,1-2.78,1.58A2.29,2.29,0,0,1,166.52,159.47Z" style="fill:#b16668"></path><path d="M166.87,160.38l-.39,0a2.28,2.28,0,0,0,3.06,1.79A3,3,0,0,0,166.87,160.38Z" style="fill:#f28f8f"></path><path d="M166.15,151.78a1.37,1.37,0,0,1-1.18,1.51,1.31,1.31,0,0,1-1.54-1.08,1.38,1.38,0,0,1,1.18-1.51A1.31,1.31,0,0,1,166.15,151.78Z"></path><path d="M176.56,148.16l-2.87-1.1a1.54,1.54,0,0,1,2.87,1.1Z"></path><path d="M165.23,147.79l-2.76,1.38a1.53,1.53,0,0,1,.69-2.08A1.46,1.46,0,0,1,165.23,147.79Z"></path><path d="M176.53,150.84a1.36,1.36,0,0,1-1.17,1.51,1.32,1.32,0,0,1-1.54-1.08,1.36,1.36,0,0,1,1.17-1.51A1.31,1.31,0,0,1,176.53,150.84Z"></path><path d="M169.73,150.14l1.55,7.49,4.2-1.78C173.86,154,171.3,150.63,169.73,150.14Z" style="fill:#f0997a"></path><path d="M143.57,175c1.59,1.3,4.35,5.19,7.47,11.72,4.52,9.44,12.2,21.62,12.2,21.62,1.17.09,19.09,6.29,25.78,5.59,2.33-.31,4.28-1.8,6.57-2.27a16.63,16.63,0,0,0,3.24-.66,21.79,21.79,0,0,1,2.18-.78c2.05-.51,1.6,1.66.66,2.86-1.08,1.37-3.84,1.79-4.55,2.59s1.4,1.07,2.18,1.1a27.11,27.11,0,0,0,8.9-1.41,7,7,0,0,1,4.59-.18c.46.15.91,1.13.45,1.45-.85.61-1.27,1-1.27,1a2.22,2.22,0,0,1-1.53,2.48c-.43.19.32,1.12-1.17,2.34-.48.39-.53,1.12-.91,1.62a11.8,11.8,0,0,1-5.74,2.73A23.48,23.48,0,0,1,193,227c-2-.32-3.83-1.48-5.87-1.81-8.32-1.67-20.9-2-25-2.69-8.5-1.43-7.67-1.75-13-9.19-5.71-8-11.51-17.69-13.14-21.89C133.79,185.83,133.63,177.66,143.57,175Z" style="fill:#ffbda7"></path><path d="M143.66,173.88c-4.91,1.59-7.18,4.26-8.45,7.21s-1.65,7.33,1.95,14.33S150,215.27,150,215.27s6.75-5,12-9.18c0,0-5.29-9.13-7.32-12.61S149,178.9,143.66,173.88Z" style="fill:#455a64"></path><path d="M163.24,208.34s-3.24-.09-7,2.89-4.38,6-4.38,6l.86,1.24s-.57.49-1.89-1.16-2.81-3.47-2.91-5.08,1.46-5.88,5-8.09,6.83-2.26,7.67-1.41,3.44,4.86,2.68,5.57Z" style="fill:#37474f"></path></g></g></g><g id="freepik--character-4--inject-8"><g id="freepik--character--inject-8"><g id="freepik--bottom--inject-8"><path d="M331.34,355.57c1.45-.28,5.2-.89,6.66-1.67,2.55-1.34,3.05-1.79,5.36-1.66,3.2.17,3.62.92,4.58,3.21s-.15,4.63,2.36,10.17c2,4.48,3.34,8.27,2.28,11.2s-3,5.73-7.57,5.62c-5-.13-6.76-2.9-5.07-4.81a7.08,7.08,0,0,0,1.82-3.65c.35-2.93-1.51-6.46-2.54-7-1.55-.84-2.48-.38-5.74.92Z" style="fill:#ffbda7"></path><path d="M316.82,310.84c2.07,5.31,9.8,23.62,4.49,35.58-1.83,4.1-4.85,11.77-4.85,11.77l15.85-3c1.28.31,1.94,1.88,2.52,4.24,1.33,5.38-.27,8.26-.27,8.26s-5.74,3.45-17.3,7.72c-11.88,4.38-16.81,3.51-20.84,1s-5.87-6.57-4.35-17.58c2-14.19,12.93-51.39,12.93-51.39" style="fill:#37474f"></path><path d="M316.78,341.23,318.54,353c.91-2.25,2-4.78,2.77-6.6,3.5-7.89,1.33-18.54-1.15-26.4l-.68-.4-11.58,7.13C307.66,329.92,310.64,337.17,316.78,341.23Z" style="fill:#263238"></path><path d="M316.46,358.19c-2.84,7.87-4,11.32-5.51,13.12,0,0,3.09-1.27,5.42-7.33,1.59-4.14,2.14-6.17,2.14-6.17Z" style="fill:#263238"></path><path d="M341.76,374c-.19,1.92.48,4.46,3.53,2.48s.94-6.34.15-8.54-1.62-8.39-2.52-11-2.73-3.92-3.82-3.47l-1.1.45s-.27-1,2.07-1.73,4.08-1.43,5.46-.72,2.59,1.9,3.11,5.31.38,4.89,1.57,7.47,3.88,8,2.69,12.41c-.84,3.14-2.7,6.08-6.25,6.81-4.09.85-7.78.1-8.79-2.09S340.44,377,341.76,374Z" style="fill:#37474f"></path><path d="M361.52,364.93c1.45-.28,5.2-.9,6.66-1.67,2.55-1.34,3.05-1.8,5.36-1.67,3.19.17,3.62.92,4.57,3.22s-.15,4.62,2.37,10.17c2,4.48,3.33,8.26,2.27,11.19s-3,5.74-7.56,5.62c-5-.13-6.76-2.9-5.07-4.8a7.09,7.09,0,0,0,1.81-3.65c.36-2.94-1.5-6.47-2.53-7-1.55-.84-2.49-.38-5.75.93Z" style="fill:#ffbda7"></path><path d="M365,368.82c-.58-2.37-1.25-3.94-2.52-4.25l-17,1.81s1.95-11.57,2.81-19.41c1.43-13,.81-21.47-1.26-26.77-1.67-4.3-6.42-11.77-6.42-11.77L339,303.76c-7.42,5.59-23.85,7.38-34,3.72-2.27,15.86,6.86,28.35,14.76,32,0,0,1.27,23.94,1.61,33.25.26,7.44,3.5,12.94,6.54,14.43,4.26,2.08,7.65,2,19.53-2.4,11.56-4.27,17.3-7.72,17.3-7.72S366.34,374.2,365,368.82Z" style="fill:#455a64"></path><path d="M345.45,366.38c-1.3,7-2.78,12.49-4.32,14.29,0,0,3-1.14,4.89-7.35a48.12,48.12,0,0,0,1.59-7.17Z" style="fill:#263238"></path><path d="M371.93,383.34c-.18,1.91.49,4.45,3.54,2.48,2.9-1.89,2.46-6.35,1.67-8.54s-3.14-8.4-4-11-2.73-3.92-3.82-3.46l-1.1.45s-.27-1,2.06-1.74,4.09-1.42,5.47-.72,2.59,1.9,3.11,5.32.37,4.88,1.56,7.47,3.89,8,2.7,12.41c-.84,3.13-2.7,6.08-6.25,6.81-4.1.84-7.78.1-8.79-2.09S370.61,386.37,371.93,383.34Z" style="fill:#37474f"></path></g><g id="freepik--top--inject-8"><path d="M311.37,263.17c-8.9.19-10.95,1.85-21.87,6.43l-12.33,5.18c-5.13-5.12-10.8-9.85-15.84-15.37-2-2.5-1.37-6-2.63-8.75-.8-2.43-2.73-4.37-3.27-6.93-.6-2.92-3-.63-2.87,1.3a23.31,23.31,0,0,0,.7,4.44.58.58,0,0,1-.13.6,1.89,1.89,0,0,1-1.28-.29,32.4,32.4,0,0,1-6.37-7.34c-1-1.38-4.15-3.3-4.48-.47a4.24,4.24,0,0,1,.05,1.91,5.86,5.86,0,0,0-.32,1.23c0,.87.81,1.6.76,2.47,0,.42-.26.8-.29,1.21,0,.68.44,1.28.59,2,.2.88-.2,1.83,0,2.7a16.41,16.41,0,0,0,1.6,3.11,25.92,25.92,0,0,0,3.75,5.05c2,2.21,5,3.23,6.87,5.61,3.64,4.93,11.18,16,14.12,19.15,4.09,4.4,5.72,4.38,15.9,1.59,9.09-2.49,23.51-7.95,23.51-7.95Z" style="fill:#ffa8a7"></path><path d="M253.4,252.06c-.44,4.14.14,7.31,2.3,10.46C252.32,260.59,250.66,256.54,253.4,252.06Z" style="fill:#f28f8f"></path><path d="M311.44,262.85a32.29,32.29,0,0,0-13.94,2.9c-5.17,2.19-19.07,8.5-19.07,8.5a17.18,17.18,0,0,1,3.37,6.59,14.75,14.75,0,0,1,0,8s5.55-1.47,10.49-3.14l15.76-5.34Z" style="fill:#455a64"></path><path d="M277.17,274.78s1.81.65,2.9,4.62,1.07,8.23.18,9.56l-1.2.29s.23.94,2.33.58,4.95-1.35,5.41-1.95,1.43-4.37.16-9.43-4.23-6.4-5.75-6a29.66,29.66,0,0,0-4.46,1.93" style="fill:#37474f"></path><path d="M304.46,305.24a2.48,2.48,0,0,1-.95-2.13c.11-3.47-.16-4.41-.72-8.25-6.2-6.13-4.45-11.57-3.6-14.61,2.08-7.45,12.25-17.4,12.25-17.4l4.6-.57c8-.86,10.27-1,14.3,0s6.13,1.54,6.13,1.54c-1.85,5.14,6.34,6.49,7.39,10.15.92,3.19-1.1,13-1.1,13s-2.69,11.2-2.39,15.3a2.66,2.66,0,0,1-.87,2.12c-.26,1.46-.3,2.69-.55,4.2C319.23,315.06,307.91,310.55,304.46,305.24Z" style="fill:#FF7400"></path><path d="M339.5,304.37c-2.92,2-8.05,4.43-16.41,5.05s-16-2-18.63-4.18l-.09,4.41s5.91,5.07,18.91,4.33,17.3-5.55,17.3-5.55Z" style="fill:#263238"></path><path d="M300.45,236c5,9,22.37,4.68,22.31,17.52.46,2.11,2.26,4.33,4.43,2.62a71.79,71.79,0,0,1,5.8-9.4c3.8-4.85,4.92-12.54-.7-15.75-.53-4.52-2.35-8.93-11.21-9.39s-11.18,2.8-17.86.17c-4.44-1-4,7.29-1.62,9.05C299.45,231.3,299.61,234.39,300.45,236Z" style="fill:#263238"></path><path d="M329.58,229a10.35,10.35,0,0,1,14.53,2.19c2.22,3,2.62,7,2.46,10.78a17.51,17.51,0,0,0,.27,5.92,7.53,7.53,0,0,0,7.11,5.2c.05.81-.84,1.33-1.63,1.56a9.63,9.63,0,0,1-7.57-1.06,9.42,9.42,0,0,0,7.82,7.19,7,7,0,0,1-5.52,1.86A12.35,12.35,0,0,1,336.13,254c-1.11-3.82-.26-7.9-.2-11.88a11.35,11.35,0,0,0-.52-4,5.25,5.25,0,0,0-2.55-3c-1.19-.55-2.71-.59-3.5-1.62" style="fill:#263238"></path><path d="M305.85,231s-3.92,5.39-2.83,16.52c.55,5.63,1.85,9.48,5.46,10.76a15,15,0,0,0,6.54.31l.31,4.78c-6.14,5.82,4.17,11.77,12.54-.49l-.13-11.58s2.14,1.69,4.49-.81c2.59-2.77,2.46-6.89.35-8.23-3.1-2-5.2.58-5.89,2.11s-2.9,1.35-2.47-2.14-.15-9.61-3.1-10.49C317.48,230.7,312.9,238.92,305.85,231Z" style="fill:#ffa8a7"></path><path d="M315.7,249.7,311.45,251a2,2,0,0,0,2.59,1.59A2.5,2.5,0,0,0,315.7,249.7Z" style="fill:#b16668"></path><path d="M316.21,238.64l3,1.31a1.59,1.59,0,0,0-.71-2.21A1.79,1.79,0,0,0,316.21,238.64Z" style="fill:#263238"></path><path d="M317.82,242.35a1.27,1.27,0,1,1-1.36-1.17A1.26,1.26,0,0,1,317.82,242.35Z" style="fill:#263238"></path><path d="M308.56,242.24a1.27,1.27,0,1,1-1.36-1.17A1.26,1.26,0,0,1,308.56,242.24Z" style="fill:#263238"></path><path d="M307.81,238.48l-2.9,1.78a1.7,1.7,0,0,1,.6-2.31A1.66,1.66,0,0,1,307.81,238.48Z" style="fill:#263238"></path><polygon points="312.23 240.35 311.76 248.01 307.46 246.8 312.23 240.35" style="fill:#f28f8f"></polygon><path d="M315,258.62a28,28,0,0,0,8.72-3.61,9.37,9.37,0,0,0,2.6-3.73s-.32,3.47-2.17,5.08c-2.94,2.56-9,4.36-9,4.36Z" style="fill:#f28f8f"></path><path d="M315.62,250.94a4.52,4.52,0,0,0-.51,0,3.28,3.28,0,0,0-2.33,1.58,2.08,2.08,0,0,0,1.26,0A2.4,2.4,0,0,0,315.62,250.94Z" style="fill:#f28f8f"></path><path d="M336.69,264.23c-1.66,1.21-4.63,4.94-8.11,11.28-5,9.17-13.39,20.9-13.39,20.9-1.17,0-19.36,5.79-26,4.72-2.3-.45-4.17-2-6.42-2.64a16.47,16.47,0,0,1-3.21-.84,22.34,22.34,0,0,0-2.13-.91c-2-.62-1.69,1.58-.81,2.83,1,1.43,3.73,2,4.39,2.84s-1.45,1-2.24,1a27.45,27.45,0,0,1-8.81-1.9,7,7,0,0,0-4.57-.44c-.47.12-1,1.07-.53,1.42.81.66,1.22,1,1.22,1a2.21,2.21,0,0,0,1.39,2.56c.41.22-.38,1.11,1,2.4.46.42.47,1.15.82,1.67a11.79,11.79,0,0,0,5.58,3.05,23.58,23.58,0,0,0,9.63.79c2-.21,3.9-1.26,6-1.47,8.4-1.21,20.92-1.4,25.09-1.86,8.56-1,7.75-1.32,13.46-8.45,6.15-7.7,12.48-17,14.34-21.13C345.85,275.59,346.47,267.44,336.69,264.23Z" style="fill:#ffa8a7"></path><path d="M336.47,263.82c5.23,1.86,7.12,3.94,8.23,7s1.24,7.4-2.74,14.19-14,19.1-14,19.1-6.46-5.38-11.46-9.84l8-12.18C326.76,278.69,330.85,268.53,336.47,263.82Z" style="fill:#455a64"></path><path d="M315.6,295.83a16.86,16.86,0,0,1,6.42,3.86c3.6,3.18,4,6.27,4,6.27l-.92,1.2s.54.51,1.94-1.05,3-3.32,3.19-4.91-1.13-6-4.51-8.36-6.7-2.63-7.58-1.84-3.71,4.66-3,5.41Z" style="fill:#37474f"></path></g></g></g><g id="freepik--Flag--inject-8"><g id="freepik--flag--inject-8"><path d="M270.16,383,202.08,26.38l2.95-.57,68.2,357.27C273.39,383.92,270.36,384.14,270.16,383Z" style="fill:#455a64"></path><path d="M206.82,26.14a3.31,3.31,0,1,1-3.23-3.37A3.3,3.3,0,0,1,206.82,26.14Z" style="fill:#37474f"></path><path d="M205.55,20a3.3,3.3,0,0,1-6.47,1.33c-1-4.6,1.12-11,1.12-11S204.61,15.43,205.55,20Z" style="fill:#37474f"></path><path d="M202.63,29.23c-16.25,29.17-48.28,23.7-73.21,27-27,3.53-41.6,15.27-47.45,28.54,7.31-3.53,29.32-5.74,37.23-1.4,0,0-23.79,23-18.23,52.16,5.55-13.87,17.53-25.81,45.24-25.45,24.34.31,56,5.39,68.84-15.76Z" style="fill:#FF7400"></path><path d="M189.12,99.31C168.86,110,104.72,92.64,101,135.49c5.55-13.87,17.53-25.81,45.24-25.45,24.34.31,56,5.39,68.84-15.76l-12.42-65C207.45,54.84,209.38,88.66,189.12,99.31Z" style="opacity:0.1"></path><path d="M159.46,63.25l5.83,10.49,12-.67a.8.8,0,0,1,.63,1.35l-8.17,8.78,4.34,11.19a.81.81,0,0,1-1.09,1L162.1,90.35l-9.3,7.58a.8.8,0,0,1-1.3-.72L153,85.3l-10.09-6.5a.8.8,0,0,1,.28-1.46L154.92,75,158,63.44A.8.8,0,0,1,159.46,63.25Z" style="fill:#fff;opacity:0.7000000000000001"></path></g></g><g id="freepik--character-1--inject-8"><g id="freepik--character--inject-8"><g id="freepik--bottom--inject-8"><polygon points="128.8 411.82 139.51 404.87 144.61 419.65 133.87 423.48 128.8 411.82" style="fill:#c8856a"></polygon><path d="M180.65,357.58c1,14.65,3.35,31.23-.61,45.46-1.4,5-3.16,7.62-17.35,12-14.48,4.43-22.07,6.49-22.07,6.49,1.53-5.32-3.22-12.61-7.6-12.54,0,0,2.46-1.49,7.53-5,7.93-5.5,10.35-7.49,16.36-8,0,0-5.46-20.55-5.75-32.23C151,357.31,180.65,357.58,180.65,357.58Z" style="fill:#263238"></path><path d="M164.44,409.44c8-3.47,8.21-4.45,9-8.55s-1.24-22-5.43-34.2l.84-.29c4.12,12,6.32,30.07,5.47,34.65s-1.32,5.67-9.5,9.21c-6.52,2.81-19.56,5.93-24.11,7-.06-.29-.14-.57-.22-.86C145,415.34,158,412.23,164.44,409.44Z"></path><path d="M144.4,420.68l-4.08,1a11.9,11.9,0,0,0-1.81-8.49c-2.77-4.29-6-4.07-6-4.07l3.8-2.6a9.88,9.88,0,0,1,6.86,5.15A12.21,12.21,0,0,1,144.4,420.68Z" style="fill:#37474f"></path><path d="M155.2,396.12a17,17,0,0,1,1.71-.21c1.76,4.48,6.23,6.36,11.43,6.62C164,404.24,157.08,402,155.2,396.12Z"></path><path d="M118.9,434.85s5.9,5.83,8.37,7.93a4.27,4.27,0,0,0,.46.35,4.49,4.49,0,0,0,4.75-.12,7.87,7.87,0,0,0-.12-8.87s-.36-.05.28-2.77c.4-1.94.84-3.91,1.42-5.81a2.47,2.47,0,0,1,1.41-1.75c.75-.43,1.95-.79,2.42-1.57s-2,.05-1.92-.8.26-2.22.27-3.23a6.16,6.16,0,0,0-1.24-3.63c-1.29-1.59-3.22-3.83-5.32-3.36-.92.21-.41.56-3.34,1.73-1.24.49-3.09.08-4.62,2.07C121.63,415.14,118.9,434.85,118.9,434.85Z" style="fill:#455a64"></path><path d="M132.36,434.14a11.05,11.05,0,0,1,.63,1.49h0a10,10,0,0,1-.52,7.37c5,.57,6.85-2,6.85-2s.78-2.38-1.67-4.73a6.7,6.7,0,0,0-.94-.78l-.05,0A7.33,7.33,0,0,0,132.36,434.14Z" style="fill:#fafafa"></path><path d="M119.89,415.48c-1.39.23-1.44,4.85-1.33,8.41s.3,4.85-.7,7.59-1.49,3.95-.56,5.23,9.21,7.46,9.21,7.46a34.48,34.48,0,0,1,.16-11c1.06-6.31,1.48-10.43-.83-13.88A8.7,8.7,0,0,0,119.89,415.48Z" style="fill:#263238"></path><path d="M139.33,441a17.35,17.35,0,0,1-8.34,1.75c-4.18-.38-4.06-2-3.49-6.93s1.81-11.67.51-15-5-5.84-6.29-5.8a3,3,0,0,0-1.83.46s3,.43,5.26,4.28c1.88,3.13,1.41,8.4.53,13.21s-1.82,10.41,1.88,11.79a14.2,14.2,0,0,0,11.06-1A2,2,0,0,0,139.33,441Z" style="fill:#37474f"></path><path d="M132.44,432.3a1.37,1.37,0,0,1,.38,1,2.8,2.8,0,0,1-1.91,2.23c-.57.19-1,0,.05-.86A5.32,5.32,0,0,0,132.44,432.3Z" style="fill:#fafafa"></path><path d="M133.22,428.94a1.2,1.2,0,0,1,.19.81,4.23,4.23,0,0,1-2.23,2.29c-1,.21-.29-.68.22-1.05A18.87,18.87,0,0,0,133.22,428.94Z" style="fill:#fafafa"></path><path d="M134.21,425.27a.85.85,0,0,1,.3.69c0,.4-2.18,1.4-2.75,1.23s-.67-.38.15-.71S134.21,425.27,134.21,425.27Z" style="fill:#fafafa"></path><path d="M246.61,420.85a6.27,6.27,0,0,1,.1,2.91c-.22.76-1.83,3.24-6.61,4.92-4.27,1.5-9.63.92-12.18.61-3.47-.42-5.07,1.08-10,1.85a10.73,10.73,0,0,1-8.77-2.29,2.67,2.67,0,0,1-.59-2.13c.08-1.7.21-1.48.41-1.46Z" style="fill:#37474f"></path><path d="M209.64,420.2c-.09.33-.16.67-.23,1a17.38,17.38,0,0,0-.4,5.23,4.76,4.76,0,0,0,3.09,2.36,13.18,13.18,0,0,0,7.29.46c2-.41,4.84-1.73,7.25-1.55a49.73,49.73,0,0,0,7.9.39,21.33,21.33,0,0,0,5.18-.88,11.17,11.17,0,0,0,6.79-5.17c.19-3.31-2.5-5.48-4.43-6.32-4.66-2-9.92-.22-9.92-.22l-1.1.08c-1.7.12-3.68.3-5-.44a3.18,3.18,0,0,1-1.4-1.52c-.35-.79-.47-1.49-1.18-1.57,0,0-9.86-1.14-12.06.64-.76.61-1,3.46-1.12,4.28-.12.65-.15,1.34-.32,2C209.85,419.36,209.74,419.78,209.64,420.2Z" style="fill:#455a64"></path><path d="M229.9,415.67c1.29-.2,4.94,2.32,5.22,4.63-.33.59-1.11.43-1.52.18-.67-1.7-2-4.29-4.73-4.78Z" style="fill:#fff"></path><path d="M232.16,415.51c1-.05,5.25,1.23,6.85,4.17,1.71,3.14.71,7.54.71,7.54a12.87,12.87,0,0,0,5.66-3.3l0,0a4.19,4.19,0,0,0,.92-4.45,7.22,7.22,0,0,0-2.18-2.79c-2-1.56-3.87-2-7.54-2a12.28,12.28,0,0,0-5.54.95Z" style="fill:#fafafa"></path><path d="M227.41,415.53c1.23.39,4.2,2.31,4.49,4.62-.33.59-1.11.42-1.52.18-.25-1.68-1.17-3.78-4.47-5.26Z" style="fill:#fff"></path><path d="M226.92,399.82s-2.38,12.41-2.61,13.46a7.34,7.34,0,0,0,.38,3.6c.19.58-1.15,1-2.49-.25a16.75,16.75,0,0,0-7.5-3.7,8.27,8.27,0,0,0-3.29-.23l1.26-18.82Z" style="fill:#c8856a"></path><path d="M234.67,358.29c2.12,4.76.8,14-1.48,24s-7.49,26.26-7.49,26.26c-.59,1.69-12,2.29-14.2-1.59,0,0,.3-9.53.57-17.49.3-8.76.09-15,3.17-20s18.87-11.16,18.87-11.16" style="fill:#37474f"></path><path d="M188,356.14c16.06-2.94,34.93-6.86,43.17-1.72,7.23,4.51,3.61,13.31-.16,16.39s-27.12,14-42,15.47c-13.43,1.29-20.45-3.45-23.19-5.58,0,0-5.4.07-10.46-5.44-5.6-6.1-4.29-16.06-3.78-25.25Z" style="fill:#37474f"></path><path d="M179.47,383a2.16,2.16,0,0,0,.83-.08c1.16-.45,3.36-2.82,4.12-4.73a2.31,2.31,0,0,0,.14-1.79,13.34,13.34,0,0,0-.95-1.52,23.72,23.72,0,0,1-3.85-8.48.23.23,0,0,0-.27-.17.24.24,0,0,0-.17.27,24.15,24.15,0,0,0,3.92,8.62,12,12,0,0,1,.91,1.47A1.83,1.83,0,0,1,184,378a10.13,10.13,0,0,1-3.87,4.48c-1.32.52-8.87-2.11-10.9-3.79s-4.92-7.48-5.19-13.25a.21.21,0,0,0-.23-.21.22.22,0,0,0-.21.23c.27,5.89,3.29,11.88,5.35,13.57C170.74,380.51,176.91,382.86,179.47,383Z" style="fill:#263238"></path><path d="M155,377l.1,0c.43-.19,2.28-2.29,1.84-3.92a38.69,38.69,0,0,1-1.28-11.34.23.23,0,0,0-.45,0,39.36,39.36,0,0,0,1.3,11.47c.37,1.38-1.32,3.28-1.59,3.4a.23.23,0,0,0-.11.3A.23.23,0,0,0,155,377Z" style="fill:#263238"></path><path d="M229.21,368.78c-1,4.89-4.17,10.41-16.56,14.14,0-1.08,0-2.14,0-3.16C214.81,379,225.41,375.73,229.21,368.78Z" style="fill:#263238"></path><path d="M189.86,357.77c.7,4.71,2.14,7.8,4.4,9.42,2,1.47,4.84,1.85,8.58,1.19,3.43-.61,7.1-1.55,10.64-2.45,7.8-2,14.53-3.71,16.85-1.54,2.17,2,2.4,5.94.91,15.46-1.09,7-6.73,23-8.18,29.77q-.44.08-.93.12c1.41-6.61,7.13-23,8.23-30,1.44-9.18,1.28-12.89-.64-14.68s-8.79-.1-16,1.75c-3.56.91-7.24,1.84-10.7,2.46-4,.71-7,.28-9.26-1.34-2.47-1.77-4-5.05-4.76-10Z" style="fill:#263238"></path><path d="M227,404.39s-2.35,1.36-7.73,1.33S211.6,403,211.6,403l-.35,6s1.25,1.91,6.95,2.31,7.24-1.12,7.24-1.12Z" style="fill:#455a64"></path><path d="M166,382l.57-.68c-8.64-7.18-7.66-17-5.57-25.59l-.86-.21C158.84,360.89,155.79,373.49,166,382Z" style="fill:#263238"></path></g><g id="freepik--top--inject-8"><path d="M170.54,292.28l26,11.79c4-2.72,7.91-5.5,11.78-8.36,2.72-2.06,7-4.95,8.9-7.5,1.22-2.21.76-5.1,1.6-7.46a49.6,49.6,0,0,0,2.29-7.09,1,1,0,0,1,1.22-.23c2.18,1.6.73,5.37,1.08,7.64.22.94,1.45-.31,1.68-.72,2.2-3.09,3.07-6.77,4.12-10.33.41-1.1,1.73-2.82,2.95-1.92.47.88,0,2,.05,2.91s1,1.9,1,3a2.89,2.89,0,0,0,.52,2.09c.53,1.06.25,2.25.2,3.37-.2,6.48-5,11.58-9.08,16-3.17,3.48-12.27,14.9-20.88,23.72-4.61,4.62-8.48,1.79-14.12-.1C180.58,316,160,307.77,160,307.77Z" style="fill:#af6152"></path><path d="M171.89,290.63c-7.66-1.32-11.23,1.18-13.54,4-2,2.41-5,7.79-1.49,23.61Z" style="fill:#455a64"></path><path d="M161.76,295.8c3.5-4.46,7.06-5.25,11.76-5.17,1,0,3.52.15,3.52.15.43,2.2,8,2.59,13.72,1.52,1.7.53,8.65,2.68,10.05,3.23,4,1.55,8.74,7.64,4.53,22.25s-5,25.77-3.79,40.32c-4.87,4.22-16.24,5-24.17,4.22-17.08-1.62-26-10.85-26-10.85A339.12,339.12,0,0,1,156,310.86C157.64,301.82,160.2,297.79,161.76,295.8Z" style="fill:#FF7400"></path><path d="M230.53,315.4c3.41-2.81,9.62-7.63,13.62-11.71a12.58,12.58,0,0,0,3.14-5.87c.82-2.94,2.17-6.11,2.3-8.75.18-3.46,1.55-2.72,2.44-1.47.82,1.46.53,4.09.78,5.7.75,4,4.7-3.26,5.14-4.37,1-2-.45-8.23,2.3-8.85a.45.45,0,0,1,.49.32,20.23,20.23,0,0,1,.4,3,27.43,27.43,0,0,1,.5,6c0,1.05,1.05,2,1.14,3a22.43,22.43,0,0,0,0,2.46c.43,1.76-.67,6.69-3.11,9.31-1.91,2.24-3,2.8-5.46,5.28-1.39,1.41-3.62,4.51-6.86,8.73-2.22,2.89-7.83,10-10.58,12.46s-6.19,4.14-11.43,1.28c-7.94-4.34-22.2-13.91-22.2-13.91-9.13-5.81-7.34-18.72-3.86-23,4.76,1.64,8.5,2.72,14,6.85C223.2,309.39,230.53,315.4,230.53,315.4Z" style="fill:#c8856a"></path><path d="M230.53,315.4c4.78,4.13,4.29,8.57,4.29,8.57s1.63-4.8-2.62-9.88Z" style="fill:#af6152"></path><path d="M198.76,294.82c7.27,1.95,9.89,2.92,13.38,5.63s13.69,10.66,13.69,10.66,2.15,5.43.66,10.68c-1.58,5.58-6.39,7.48-7.9,6.66l-16.69-10.9s-4.09-2.69-5.42-9.7C195.83,304.44,195.17,296.94,198.76,294.82Z" style="fill:#455a64"></path><path d="M223.33,309.16s.67-.55,2.07,0a19.39,19.39,0,0,1,5.71,4.86c1.7,3.13,1.7,7.49.32,11.53s-4.88,7.13-6.45,6.9a12.73,12.73,0,0,1-5.28-1.89c-1.82-1.19-3.3-2.2-2.79-3.22l1,.67s3.41-.22,6.12-5.28.75-12.43.75-12.43Z" style="fill:#37474f"></path><path d="M191.45,285.41l-.52,6.95c-5.18,2.84-16.07,1.44-16.41-1.14l.65-7.57Z" style="fill:#c8856a"></path><path d="M199.68,265.63a57.53,57.53,0,0,1,4.18,6.61,7.56,7.56,0,0,1-3,1.9Z" style="fill:#af6152"></path><path d="M189.26,252.94c5.12-.08,11,3.51,10.69,13.08,0,2,.8,3.67,1.12,6.46.76,6.69-.61,10.25-1.66,11.55-3,2-6.25,2.56-10.77,1.75-3.44-.61-12.18-2.48-16.23-7.58-4.77-6-6.66-14.54-2.52-18.5C175.73,254.12,186.55,253,189.26,252.94Z" style="fill:#c8856a"></path><path d="M199.41,284c-1.12,1.5-5.22,2.69-8,2.61l.14-2.23S197,285.18,199.41,284Z" style="fill:#af6152"></path><path d="M192.32,260.05a4.07,4.07,0,0,1-.45,2.52,5,5,0,0,1-2.69,2.29,10,10,0,0,1,1.56,4.4,2.43,2.43,0,0,1-.18,1.44,1,1,0,0,1-1.7.12,11.81,11.81,0,0,0-1.63-2.23,4.62,4.62,0,0,0-3-1.3c-4.22-.06-3.71,5.42-1.83,7.48,3.07,3.38,5.12.89,5.12.89s1.92,5.43-1.9,8.16c0,0-5.57,2.29-10.22.41a65.16,65.16,0,0,1-7.77-10.08c-5-8.18-4-14.93-1-17.44.21-3.51,2.3-5.74,5.34-7.12,4.14-1.88,8.42-.87,12.8-1.26a14.92,14.92,0,0,0,6.33-2.06c.84-.52,3-1.43,3.92-1a1.78,1.78,0,0,1,.76.86,4.52,4.52,0,0,1-.43,3.47,4.22,4.22,0,0,1,3.52,1c1.48,1.17,2,3.33,1.59,5.53C200.26,257.6,198.3,261.22,192.32,260.05Z" style="fill:#263238"></path></g></g></g></svg>