<svg xmlns="http://www.w3.org/2000/svg" viewBox="0 0 500 500"><g id="freepik--Plants--inject-25"><g id="freepik--plants--inject-25"><path d="M480.79,245c-2.16,3.78-5.39,9-8.43,14.63-4.54,8.44-8.64,17.82-8,24.76l0,.7h0l-.53,10.65-.07,1.44-2.52-1.45L455,292.17a91.45,91.45,0,0,1-.15-34.77c2.43-13.93,12.18-29.22,20.4-30C482.89,226.56,486.17,235.57,480.79,245Z" style="fill:#e0e0e0"></path><path d="M458.41,291.78a.5.5,0,0,0,.29-.52c-3.21-25.78,7.4-49.55,18.2-58.16a.49.49,0,0,0-.62-.77c-11,8.75-21.81,32.92-18.55,59a.49.49,0,0,0,.55.43Z" style="fill:#fff"></path><path d="M490.23,261.33c-.85,5-9.92,10.87-15.92,19-5.41,7.31-7.78,14.72-7.58,18.66h0l-3-1.74-2.52-1.45c-1.38-18.29,5.35-28.94,11.18-36.11a18.22,18.22,0,0,1,6.39-4.75C486.71,251.71,491.25,255.34,490.23,261.33Z" style="fill:#f0f0f0"></path><path d="M463.89,295.72a.47.47,0,0,0,.29-.44c.31-20.95,12.32-32.37,18.62-35.48a.49.49,0,1,0-.43-.88c-7,3.44-18.86,15-19.17,36.34a.48.48,0,0,0,.48.5A.49.49,0,0,0,463.89,295.72Z" style="fill:#fff"></path></g><g id="freepik--plants--inject-25"><path d="M57.05,289.7l-8.73,5c-.5-25.6-17.11-44.35-25.12-54.26-8.15-10.1,3.12-16.14,12.61-11.71S53,244.56,56.18,259.32C58.89,271.93,57.5,285.91,57.05,289.7Z" style="fill:#e0e0e0"></path><path d="M53.34,288.92h.11a.56.56,0,0,0,.55-.57c-.89-32.23-11.63-48.37-24-56.58a.56.56,0,0,0-.61.94c12.23,8.09,22.65,23.9,23.52,55.67A.56.56,0,0,0,53.34,288.92Z" style="fill:#fff"></path><path d="M10.18,260.51c.18,1.78,1.62,3.14,3,4.3s2.87,2.39,3.24,4.14c.76,3.54-3.43,6.8-2.53,10.3a5.63,5.63,0,0,0,2.95,3.3c1.11.6,2.31,1,3.48,1.48a13.75,13.75,0,0,0,1.74.42,8.14,8.14,0,0,1,4.75,2.13c1.94,2.1,1.69,5.32,2.38,8.09C30,298,32,299.94,36.5,301.51L52,292.75c3.85-3.93,5.21-10.64,1.66-15.2-2.13-2.74-6.12-3.09-8.13-5.83-1.8-2.46-.75-6-1.86-8.85s-4.05-3.82-6.82-4.3-5.72.66-8.43-.32-5.22-2.59-8-3.29a9.36,9.36,0,0,0-8.09,1.35A5,5,0,0,0,10.18,260.51Z" style="fill:#f0f0f0"></path><path d="M39,274.46a.52.52,0,0,0-.12-.17C31.61,264,20.22,259.1,16.37,258.24a.4.4,0,0,0-.17.79c3.65.81,14.22,5.33,21.34,14.78a22.28,22.28,0,0,0-17.73,1.54.4.4,0,0,0-.12.56.41.41,0,0,0,.33.18.32.32,0,0,0,.23-.06,21.47,21.47,0,0,1,18.11-1.09,33.76,33.76,0,0,1,6,20.78.4.4,0,0,0,.36.41h0a.41.41,0,0,0,.42-.39A34.56,34.56,0,0,0,39,274.46Z" style="fill:#fff"></path></g></g><g id="freepik--Floor--inject-25"><ellipse id="freepik--floor--inject-25" cx="250" cy="350.15" rx="235.59" ry="136.02" style="fill:#f5f5f5"></ellipse></g><g id="freepik--Shadows--inject-25"><ellipse id="freepik--Shadow--inject-25" cx="91.03" cy="334.97" rx="57.38" ry="33.13" style="fill:#e0e0e0"></ellipse><ellipse id="freepik--shadow--inject-25" cx="347.92" cy="424.09" rx="56.75" ry="32.77" style="fill:#e0e0e0"></ellipse><polygon id="freepik--shadow--inject-25" points="403.49 365.86 345.97 332.65 403.49 299.3 461.14 332.58 403.49 365.86" style="fill:#e0e0e0"></polygon><ellipse id="freepik--shadow--inject-25" cx="250" cy="351.44" rx="57.68" ry="33.3" style="fill:#e0e0e0"></ellipse><path id="freepik--shadow--inject-25" d="M216.77,416.37c7.52,4.35,19.73,4.35,27.25,0s7.53-11.39,0-15.73-19.73-4.35-27.25,0S209.24,412,216.77,416.37Z" style="fill:#e0e0e0"></path><path id="freepik--shadow--inject-25" d="M248.53,426.58l8.7-5.05a10.47,10.47,0,0,1,9.5,0l3,1.75,11.32-6.54a4.09,4.09,0,0,1,3.7,0l.08,0a1.13,1.13,0,0,1,0,2.14l-11.32,6.53.63.37c2.62,1.51,2.62,4,0,5.49l-8.71,5-12.7,7.35-16.94-9.79Z" style="fill:#e0e0e0"></path><path id="freepik--shadow--inject-25" d="M162.64,448.09a1.24,1.24,0,0,1-1.17-.66l-2.95-6.36a1,1,0,0,1,0-.87,1.12,1.12,0,0,1,.38-.4l-.33-.34a1,1,0,0,1-.28-.92.79.79,0,0,0-.07-1.37,1,1,0,0,1,.54-.89l39-22.5a1.39,1.39,0,0,1,.71-.18,1.45,1.45,0,0,1,.72.18l8.07,4.66a1,1,0,0,1,0,1.76l-6.14,3.55,5.68-1.89a1.51,1.51,0,0,1,.48-.08,1.35,1.35,0,0,1,1,.36l5.71,5.71a1,1,0,0,1,.27.92,1.08,1.08,0,0,1-.75.77l-9.58,3.2,8.8-1.36a.93.93,0,0,1,.23,0,1.24,1.24,0,0,1,1.17.66l2.95,6.36a1,1,0,0,1,0,.87,1.2,1.2,0,0,1-.89.59l-53.25,8.23A.93.93,0,0,1,162.64,448.09Z" style="fill:#e0e0e0"></path><path id="freepik--shadow--inject-25" d="M106.18,431.59a2.55,2.55,0,0,1-2.48-2.06l-.71-3.71a37.47,37.47,0,0,1-4.64-1.13h-.11l-.16,0-6.19,2.86a3.28,3.28,0,0,1-2.83-.13L83,423.91a2.11,2.11,0,0,1-1.09-1.71,2.16,2.16,0,0,1,.91-1.82l4-2.87a12.85,12.85,0,0,1-1.22-1.82l-8-.5a2.43,2.43,0,0,1-2.27-2.42v-4.53a2.43,2.43,0,0,1,2.27-2.42l8-.5a12.85,12.85,0,0,1,1.22-1.82l-4-2.87a2.16,2.16,0,0,1-.91-1.82A2.11,2.11,0,0,1,83,397.1l6.1-3.52a3.28,3.28,0,0,1,2.83-.13L98,396.3a.72.72,0,0,0,.21,0h.08a38.7,38.7,0,0,1,4.66-1.13l.71-3.71a2.55,2.55,0,0,1,2.48-2.06h9a2.56,2.56,0,0,1,2.49,2.06l.7,3.71a37.47,37.47,0,0,1,4.64,1.13h.28l6.18-2.86a3.15,3.15,0,0,1,1.28-.26,3.08,3.08,0,0,1,1.55.39l6.1,3.52a2.06,2.06,0,0,1,.18,3.53l-4,2.87a13.68,13.68,0,0,1,1.21,1.82l8,.5a2.43,2.43,0,0,1,2.27,2.42v4.53a2.43,2.43,0,0,1-2.27,2.42l-8,.5a13.68,13.68,0,0,1-1.21,1.82l4,2.87a2.09,2.09,0,0,1,.91,1.81,2.12,2.12,0,0,1-1.09,1.72l-6.1,3.52a3.08,3.08,0,0,1-1.55.39,3.15,3.15,0,0,1-1.28-.26l-6.15-2.85a.58.58,0,0,0-.2,0H123a38.7,38.7,0,0,1-4.66,1.13l-.7,3.71a2.57,2.57,0,0,1-2.49,2.06Zm-5-25.64c-2.24,1.29-3.46,2.91-3.46,4.56s1.22,3.26,3.46,4.55a21.18,21.18,0,0,0,19,0c2.23-1.29,3.46-2.91,3.46-4.55s-1.23-3.27-3.46-4.56a21.18,21.18,0,0,0-19,0Z" style="fill:#e0e0e0"></path><path id="freepik--shadow--inject-25" d="M163.18,399.32l-5.24-.55a2.42,2.42,0,0,1-1.64-.9,2.38,2.38,0,0,1-.51-1.8l.2-1.65c-.7-.23-1.39-.48-2-.76a1.3,1.3,0,0,0-.48-.08,1,1,0,0,0-.2,0l-4.08,1.28a3.13,3.13,0,0,1-.89.13,3.36,3.36,0,0,1-2.12-.73l-2.68-2.22a2.07,2.07,0,0,1,.41-3.52l2.85-1.43a3.67,3.67,0,0,1-.21-.61l0,0-4.45-.76a2.29,2.29,0,0,1-1.82-3l.72-2.31a2.8,2.8,0,0,1,2.61-1.91l4.86.2a1,1,0,0,0,.43-.21c.23-.24.48-.47.74-.7l-1.39-1.48a2.08,2.08,0,0,1,.76-3.45l4.18-1.68a3.22,3.22,0,0,1,1.18-.21,3.49,3.49,0,0,1,1.86.52l2.81,1.87a1.36,1.36,0,0,0,.58.11h0c.93-.16,1.89-.28,2.83-.35a1.44,1.44,0,0,0,.16-.07l1-2a3,3,0,0,1,2.58-1.55h.27l5.23.55a2.42,2.42,0,0,1,1.64.9,2.38,2.38,0,0,1,.51,1.8l-.2,1.65c.71.23,1.39.48,2,.76a1.3,1.3,0,0,0,.48.08,1,1,0,0,0,.2,0l4.08-1.28a3.13,3.13,0,0,1,.89-.13,3.36,3.36,0,0,1,2.12.73l2.67,2.22a2.06,2.06,0,0,1-.4,3.52l-2.84,1.43c.08.2.15.41.21.61l0,0,4.45.76a2.29,2.29,0,0,1,1.82,3l-.72,2.31a2.8,2.8,0,0,1-2.6,1.91l-4.87-.2a.91.91,0,0,0-.43.21c-.23.24-.48.47-.74.7l1.4,1.48a2.16,2.16,0,0,1,.57,1.94,2.14,2.14,0,0,1-1.34,1.51l-4.18,1.68a3.22,3.22,0,0,1-1.18.22,3.52,3.52,0,0,1-1.86-.53l-2.81-1.87a1.36,1.36,0,0,0-.58-.11h0c-.93.16-1.89.28-2.83.35a1.44,1.44,0,0,0-.16.07l-1,2a3,3,0,0,1-2.58,1.55Zm-3.49-18.27c-1.9.76-3.15,1.9-3.33,3.06a2.77,2.77,0,0,0,1.22,2.42,11.73,11.73,0,0,0,7.27,2.14,13.82,13.82,0,0,0,5.13-.93c1.9-.76,3.15-1.9,3.33-3.06a2.77,2.77,0,0,0-1.22-2.42,11.72,11.72,0,0,0-7.26-2.14A13.87,13.87,0,0,0,159.69,381.05Z" style="fill:#e0e0e0"></path></g><g id="freepik--character-1--inject-25"><g id="freepik--Character--inject-25"><g id="freepik--Bottom--inject-25"><path d="M112.69,304c.3-4.12,2.94-45.63,2.94-45.63l-20,13.95c2.73,23.8,4,30.73,4.11,34.69h0a3.52,3.52,0,0,0-.1,1c0,4.71,6.07,7.49,9.94,10.62a71.72,71.72,0,0,0,10.47,7.32c2.81,1.51,8.52,1.64,9.22-.29-4.71-3.85-10.16-8.06-13.9-12.46C113.62,311.09,112.34,308.9,112.69,304Z" style="fill:#c8856a"></path><path d="M137.34,330.7c.24,0,.61,2.85-.7,4.06-1.51,1.4-6,3.7-11.83,2.89s-9-2.76-11.4-4.87-5.64-5.07-8.3-5.7c-2.47-.58-5.15-1.77-5.93-2.59s-.69-4.45-.69-4.45Z" style="fill:#263238"></path><path d="M99.74,305.82a1,1,0,0,0-.89.85c-.18,1,.45,3.08-.28,6.52a27.06,27.06,0,0,0,0,8.1c.33,1.86,4.35,3.15,6.92,4.2a32.55,32.55,0,0,1,8.33,5.63c2.76,2.43,8.56,5,12.39,4.94,4.53,0,9.62-1.61,10.79-3.86,1.45-2.78.31-4.39-6.4-7.72-1.27-.63-5.74-3.46-7.26-4.49-4.12-2.77-8.19-6.63-10.09-11.54a2.71,2.71,0,0,0-1-1.5,2,2,0,0,0-1.31-.13,10.62,10.62,0,0,0-3.23,1c-.9.46-2.18,1-2.16,2.24a4.41,4.41,0,0,0,.25,1.25c.08.25.15.59-.06.74s-.45,0-.63-.19a30.78,30.78,0,0,1-2.9-2.57,7.3,7.3,0,0,0-1.06-1.16,10.6,10.6,0,0,1-1.15-.79C99.66,306.94,99.76,306.4,99.74,305.82Z" style="fill:#37474f"></path><path d="M113.85,331.12c-1.17-1-2.42-2-3.66-2.93h0s7.89,5.13,11.08,2.8c2.06-1.5,1.08-3.33,1-3.91s5-3.09,7-3.34h0c.56.33,1,.59,1.32.74,6.71,3.33,7.85,4.94,6.4,7.72-1.17,2.25-4.86,4-10.71,4C122.49,336.21,116.61,333.55,113.85,331.12Z" style="fill:#455a64"></path><path d="M98.92,309.37c.5.49,1,1,1.53,1.4,1.66,1.39,5.57,5.78,10,9.56,4.29,3.63,11.31,8,12.48,7.85s3-1-1.22-2.8-12.92-8.52-16.57-13.48h0a30.78,30.78,0,0,1-2.9-2.57,7.3,7.3,0,0,0-1.06-1.16c-.24-.19-.52-.33-.78-.5a2.06,2.06,0,0,1-.37-.29,1.2,1.2,0,0,1-.22-.35,2,2,0,0,1-.11-.78v-.43a1,1,0,0,0-.54.21,1.09,1.09,0,0,0-.35.64A20.94,20.94,0,0,0,98.92,309.37Z" style="fill:#263238"></path><path d="M122.68,327.52a.39.39,0,0,1-.27-.1.46.46,0,0,1,0-.62,9.58,9.58,0,0,1,7.64-3.24.45.45,0,0,1,.37.49.42.42,0,0,1-.46.39,8.9,8.9,0,0,0-6.92,2.92A.41.41,0,0,1,122.68,327.52Z" style="fill:#f0f0f0"></path><path d="M119,325.12a.39.39,0,0,1-.26-.1.46.46,0,0,1-.06-.62,9.61,9.61,0,0,1,7.65-3.23.44.44,0,0,1-.09.88,8.9,8.9,0,0,0-6.92,2.91A.42.42,0,0,1,119,325.12Z" style="fill:#f0f0f0"></path><path d="M115.39,322.85a.39.39,0,0,1-.26-.1.46.46,0,0,1-.06-.62,9.6,9.6,0,0,1,7.65-3.24.44.44,0,0,1,.36.49.41.41,0,0,1-.45.39,8.88,8.88,0,0,0-6.92,2.92A.42.42,0,0,1,115.39,322.85Z" style="fill:#f0f0f0"></path><path d="M112,320.25a.39.39,0,0,1-.26-.1.47.47,0,0,1-.06-.62,9.63,9.63,0,0,1,7.65-3.23.43.43,0,0,1,.37.49.43.43,0,0,1-.46.39,8.94,8.94,0,0,0-6.92,2.91A.39.39,0,0,1,112,320.25Z" style="fill:#f0f0f0"></path><path d="M108.71,317.66a.39.39,0,0,1-.26-.1.46.46,0,0,1-.07-.62c1.62-2.19,5.28-3.63,8.35-3.28a.44.44,0,0,1,.37.49.42.42,0,0,1-.45.39c-2.77-.32-6.18,1-7.62,2.95A.4.4,0,0,1,108.71,317.66Z" style="fill:#f0f0f0"></path><path d="M60.57,281.79c-.68,13.74-.4,20.82-1.38,33.29-.19,2.34-.75,18.2-.38,23.11.55,7.38,9.25,7.32,10.16,3s2.51-22.58,2.74-24.48c.78-8,3.31-13.92,6.89-32.3Z" style="fill:#c8856a"></path><path d="M71.89,344.58c-.28,4.28-1,7.1-2.49,9.6s-4.39,3.27-7.28,2.52-6.59-2.74-7.4-6.43a23.43,23.43,0,0,1,.05-10.17Z" style="fill:#263238"></path><path d="M59.3,313.55c-1.2.09-1.58,5.82-2.3,11.56-.78,6.15-1.38,8.72-2.07,13.76-.79,5.76-.5,8.34,1.5,11.84s9.13,7,12.69,2c2.9-4.05,3-8.57,2.81-14.33A125.32,125.32,0,0,1,72.38,324c.26-4.32.58-8.5-.45-9-.08.63-.17,1.44-.25,2.06s-.2,2.82-.87,2.83a8.76,8.76,0,0,1,0-1.62,1.9,1.9,0,0,0-.32-1.4,2.25,2.25,0,0,0-1.32-.6c-1.17-.24-3-.77-4.17-.88-.6-.06-2.44-.12-3-.12a4.84,4.84,0,0,0-1.51.21,1.07,1.07,0,0,0-.65.58,2.09,2.09,0,0,0-.07.66,4.66,4.66,0,0,1-.15,1.18c0,.17-.16.38-.34.34s-.19-.21-.19-.35c0-.7.09-1.2.13-2,0-.38.08-.89.09-1.26S59.27,313.92,59.3,313.55Z" style="fill:#37474f"></path><path d="M55.21,337.23c-.12.83-.86,6.34.64,7.34s2.53-3.24,2.53-3.24,3.81-1.14,9.34,1.31c-.29.89.55,3.85,2.08,3.23s2.14-6.92,2.15-7c.2,5.52,0,9.89-2.83,13.83-3.56,5-10.69,1.51-12.69-2s-2.29-6.08-1.5-11.84C55,338.29,55.1,337.75,55.21,337.23Z" style="fill:#455a64"></path><path d="M58.81,341.7c0,2.09-2.09,1.37-2.16-1.58s.33-9.94.35-15c.72-5.74,1.1-11.47,2.3-11.56,0,.07,0,.14,0,.21l-.17,2.92a12.51,12.51,0,0,0-.08,1.25c0,4.25.55,12.49.16,16.38A69.31,69.31,0,0,0,58.81,341.7Z" style="fill:#263238"></path><path d="M67.08,342.58a69.62,69.62,0,0,0,1.18-7.31c.43-3.85,2.15-11.6,3-15.8a11.11,11.11,0,0,0,.43-2.37c.08-.58.16-1.31.23-1.93l0-.12c.74.36.78,2.67.64,5.55-.16,1.67-.44,3.73-.83,6.23-1,4.95-1.53,11.84-2.22,14.71S66.68,344.63,67.08,342.58Z" style="fill:#263238"></path><path d="M67.84,342.81a.3.3,0,0,1-.16-.05,14.11,14.11,0,0,0-9.19-1,.45.45,0,0,1-.54-.32.44.44,0,0,1,.32-.54A14.78,14.78,0,0,1,68.09,342a.45.45,0,0,1,.19.6A.45.45,0,0,1,67.84,342.81Z" style="fill:#f0f0f0"></path><path d="M68.86,338.29a.33.33,0,0,1-.14,0,17.51,17.51,0,0,0-10.29-1.12.45.45,0,0,1-.53-.34.46.46,0,0,1,.34-.53,18.1,18.1,0,0,1,10.86,1.19.46.46,0,0,1,.21.6A.45.45,0,0,1,68.86,338.29Z" style="fill:#f0f0f0"></path><path d="M58.74,332.83a.45.45,0,0,1-.37-.3.44.44,0,0,1,.28-.56c5.36-1.78,11.26,1.29,11.48,1.41a.44.44,0,0,1,.19.59.45.45,0,0,1-.6.19s-5.8-3-10.79-1.35A.4.4,0,0,1,58.74,332.83Z" style="fill:#f0f0f0"></path><path d="M59.07,328.78a.46.46,0,0,1-.37-.29.45.45,0,0,1,.27-.57c5.9-2.07,11.5,1.25,11.71,1.38a.44.44,0,0,1,.14.6.44.44,0,0,1-.61.15s-5.45-3.22-10.94-1.29A.46.46,0,0,1,59.07,328.78Z" style="fill:#f0f0f0"></path><path d="M58.22,324.2a.43.43,0,0,1-.37-.29.43.43,0,0,1,.26-.56c5.53-2,12.8,1.39,13,1.52a.45.45,0,0,1,.16.61.44.44,0,0,1-.61.15s-7.14-3.34-12.27-1.45A.47.47,0,0,1,58.22,324.2Z" style="fill:#ebebeb"></path><path d="M66.18,187.62C63.48,206,64.41,220,63.42,231.83s-3.19,29-3.3,38c-.2,16.37-.54,33.62-.54,33.62S69,307.38,75,305.58c0,0,5.64-29,7.4-38.51,2.52-13.5,7.38-44.56,7.38-44.56l4.81,35.37s-.72,4.66.19,14.8c.53,6,3.74,24.07,3.74,24.07s9.83,3.28,15.18-1.58c0,0,2.16-33.63,2.6-39.11.62-7.77-1.58-78.11-1.07-83.23C113.13,173.2,112.8,171.55,66.18,187.62Z" style="fill:#FF7400"></path><path d="M66.18,187.62C63.48,206,64.41,220,63.42,231.83s-3.19,29-3.3,38c-.2,16.37-.54,33.62-.54,33.62S69,307.38,75,305.58c0,0,5.64-29,7.4-38.51,2.52-13.5,7.38-44.56,7.38-44.56l4.81,35.37s-.72,4.66.19,14.8c.53,6,3.74,24.07,3.74,24.07s9.83,3.28,15.18-1.58c0,0,2.16-33.63,2.6-39.11.62-7.77-1.58-78.11-1.07-83.23C113.13,173.2,112.8,171.55,66.18,187.62Z" style="fill:#fff;opacity:0.4"></path><path d="M76,204.41c-2.45,3.52-5.74,4.06-8.32,4.33a3.65,3.65,0,0,1-1.87-.3s6.1.89,9.69-6c1.82-3.47,2.38-10.26,2.38-10.26l1.81.68A22.39,22.39,0,0,1,76,204.41Z" style="fill:#FF7400;opacity:0.30000000000000004"></path><path d="M76,204.41c-2.45,3.52-5.74,4.06-8.32,4.33a3.65,3.65,0,0,1-1.87-.3s6.1.89,9.69-6c1.82-3.47,2.38-10.26,2.38-10.26l1.81.68A22.39,22.39,0,0,1,76,204.41Z" style="opacity:0.1"></path><path d="M89.74,222.51l2.34-13.58s9.26-2.39,13.31-8.45c-2.7,7.56-11.3,10.75-11.3,10.75l-3.21,13.19,3.67,33.46Z" style="fill:#FF7400;opacity:0.30000000000000004"></path><path d="M89.74,222.51l2.34-13.58s9.26-2.39,13.31-8.45c-2.7,7.56-11.3,10.75-11.3,10.75l-3.21,13.19,3.67,33.46Z" style="opacity:0.1"></path></g><g id="freepik--Top--inject-25"><path d="M199.84,123.55a1.46,1.46,0,0,0-1.05-.14c-3.44.53-6,3.58-8.79,5.36-.91.58-3.25,2.27-4.47,1.64-.81-.42,1.24-1.89,2.1-3.84s-1-4.14-1.72-2.67-2.78,2.57-5.38,4.88-4.07,4.67-6.33,5.8-24.61,6.8-24.61,6.8l1.2,15.6c8.22-2.45,23.58-9.15,27.21-10.6s7-1.23,12.78-4.65c2.71-1.6,6-3.77,6.61-7.12a9,9,0,0,1,.49-2.32,9.61,9.61,0,0,1,.78-1.11,5.18,5.18,0,0,0,.73-1.47,1.57,1.57,0,0,0,.09-.88c-.1-.45-.52-.78-.65-1.22a1.73,1.73,0,0,1,.38-1.42,6.67,6.67,0,0,0,.87-1.25A1.17,1.17,0,0,0,199.84,123.55Z" style="fill:#c8856a"></path><path d="M103.94,121.45c-1.26,4.86,6.93,16.6,11.21,27.39,9.72,4.42,17.22,7.8,23.58,10.16,3,1.1,4.85,1.43,7.36.57,9.07-3.08,24.9-10.27,24.9-10.27-2.48-1.54-5.17-10.26-4.18-12.45L144,142.64s-12.74-8.41-18.66-12.36C118.37,125.65,114.4,122.4,103.94,121.45Z" style="fill:#37474f"></path><g id="freepik--Chest--inject-25"><path d="M72.14,123.9s-10.27,3.46-8.1,21c.82,6.6,2.3,10.37,2.81,18.24,0,0,.15,13.86-1.15,26.33,10.78,7.4,35.05,7.88,49.9,2.29,0-22.06.19-37.44-.3-48.14A61.39,61.39,0,0,0,112.79,130a12.26,12.26,0,0,0-9.87-8.73h0L88.6,119.88C80.56,121.21,77.59,121.69,72.14,123.9Z" style="fill:#455a64"></path></g><path d="M102.92,121.24h0L88.6,119.88c-8,1.33-11,1.81-16.46,4,0,0-4.67,1.58-7,8l10.67,9.44,5.16-1.17c.16-6.3,5.4-13,5.4-13a19.36,19.36,0,0,0,12,2.54c6.44-.95,4.48-6.31,4.48-6.31s6.8,2.87,10.62,8.76c-.19-.74-.39-1.47-.59-2.17A12.26,12.26,0,0,0,102.92,121.24Z" style="fill:#37474f"></path><g id="freepik--Head--inject-25"><path d="M108.77,93.05c1.55-4.46-.74-10-3.2-12.56C102,76.85,96.62,74.34,88,76.55,82.34,78,78.07,80.29,76.9,86c-3.69.32-6,6-2.12,13.86,3.21,6.52,8.5,11.46,8.85,15Z"></path><path d="M110,109.18c-.66,3.39-2.39,6-5.42,6.68a25.79,25.79,0,0,1-4.83.4l-.29,5.6c2.34,2,2.32,4.57.16,5.4-3.44,1.3-10.62.72-16.1-5.78l-.1-13a4.7,4.7,0,0,1-5.5.38,6.76,6.76,0,0,1-2.73-8.09c1.28-3.34,4.45-2.25,5.47-1.34s2.25,2.85,3.08,2.84a2,2,0,0,0,1.72-2,17.05,17.05,0,0,0-.54-4,9.38,9.38,0,0,0,2.62-2.92,6.85,6.85,0,0,0,.77-4.52c4-3.33,15.41-5.18,18.32-3.27,1.8,2.66,2.69,9.71,3.24,13.42A30.84,30.84,0,0,1,110,109.18Z" style="fill:#c8856a"></path><path d="M99.77,116.25c-3.4.08-10.33-1-12.29-2.73s-3-5.55-3-5.55.65,4.86,2.22,6.91S91.85,117.59,94,118s5.62.51,5.62.51Z" style="fill:#af6152"></path><path d="M96.61,97.86a1.37,1.37,0,1,1-1.48-1.32A1.39,1.39,0,0,1,96.61,97.86Z" style="fill:#263238"></path><path d="M94.35,93.44l-2.63,2.08A1.77,1.77,0,0,1,92,93.1,1.64,1.64,0,0,1,94.35,93.44Z" style="fill:#263238"></path><path d="M106.85,92.91l-3.16-1.22a1.62,1.62,0,0,1,2.13-1A1.79,1.79,0,0,1,106.85,92.91Z" style="fill:#263238"></path><path d="M106.69,96a1.37,1.37,0,1,1-1.49-1.31A1.4,1.4,0,0,1,106.69,96Z" style="fill:#263238"></path><polygon points="99.99 95.03 101.97 104.61 106.93 101.81 99.99 95.03" style="fill:#af6152"></polygon><path d="M97.37,107.15l5.8.53a2.86,2.86,0,0,1-3.09,2.72A3.06,3.06,0,0,1,97.37,107.15Z" style="fill:#af6152"></path><path d="M100.08,110.4a2.17,2.17,0,0,0,.36,0,2.65,2.65,0,0,0-3-2.22A3,3,0,0,0,100.08,110.4Z" style="fill:#ffa8a7"></path></g><path d="M149.41,182.44a1.48,1.48,0,0,0-.76-.74c-3.09-1.6-6.94-.65-10.26-.88-1.08-.07-4-.09-4.57-1.32-.41-.83,2.11-.8,4-1.85s1.68-3.92.2-3.18-3.77.43-7.23.75-6,1.36-8.53.93-23.86-9.09-23.86-9.09l-8.27,13.29c8.07,2.89,24.42,6.58,28.21,7.56s6.35,3.14,13,3.82c3.13.31,7,.5,9.55-1.82a8.59,8.59,0,0,1,1.77-1.59,9.16,9.16,0,0,1,1.28-.43,5.67,5.67,0,0,0,1.47-.75,1.7,1.7,0,0,0,.59-.66c.18-.43,0-.93.19-1.37a1.69,1.69,0,0,1,1.15-.91,7,7,0,0,0,1.44-.5A1.17,1.17,0,0,0,149.41,182.44Z" style="fill:#c8856a"></path><path d="M72.14,123.9c-12.57,4.8-12.62,16-8.16,26.72A112.86,112.86,0,0,0,77.64,175c2.77,3.91,6.2,5,9,5.69,9.69,2.49,21,4.57,21,4.57-1.25-2.64,2.13-11.94,4.69-12.71l-20.89-9.27s-4.69-10.68-8-17C80.23,140.23,79,130.2,72.14,123.9Z" style="fill:#37474f"></path></g></g></g><g id="freepik--character-3--inject-25"><g id="freepik--Ladder--inject-25"><path d="M419.86,252l-19.18,52.67c-.86,1.71,2,2.65,3.28,1.91a3.2,3.2,0,0,0,.9-1L423.71,254Z" style="fill:#37474f"></path><polygon points="393.91 323.91 364.78 307.02 365.69 302.99 394.82 319.88 393.91 323.91" style="fill:#37474f"></polygon><path d="M373.19,281.6l-17.65,48.52c-.86,1.71,2,2.65,3.28,1.91a1.76,1.76,0,0,0,.88-.95v0L376.91,284Z" style="fill:#37474f"></path><polygon points="439.68 297.36 412.13 281.39 413.5 277.64 440.59 293.33 439.68 297.36" style="fill:#263238"></polygon><path d="M448.35,328.64a1.75,1.75,0,0,0-.05-.38l-14.94-70-5.95-3.43,15.83,74a1.24,1.24,0,0,0,.62.72,4.32,4.32,0,0,0,3.9,0,1,1,0,0,0,.6-.65A1.94,1.94,0,0,0,448.35,328.64Z" style="fill:#455a64"></path><path d="M399.89,321.44,383.47,312a2.16,2.16,0,0,1-1-1.7v-.39a2.19,2.19,0,0,1,1-1.7l48.4-28.07a2.18,2.18,0,0,1,2,0l16.42,9.48a2.19,2.19,0,0,1,1,1.7v.39a2.16,2.16,0,0,1-1,1.7l-48.4,28.07A2.18,2.18,0,0,1,399.89,321.44Z" style="fill:#FF7400"></path><path d="M451,290.32l-50.08,29-18.09-10.44a2.15,2.15,0,0,1,.69-.74l48.4-28.07a2.18,2.18,0,0,1,2,0l16.42,9.48A2,2,0,0,1,451,290.32Z" style="fill:#fff;opacity:0.30000000000000004"></path><path d="M382.78,308.91a1.94,1.94,0,0,0-.29,1v.39a2.16,2.16,0,0,0,1,1.7l16.42,9.48a2,2,0,0,0,1,.23v-2.32Z" style="opacity:0.25"></path><path d="M400.87,319.35v2.32a2,2,0,0,0,1-.23l19.7-11.37,28.7-16.7a2.16,2.16,0,0,0,1-1.7v-.39a1.94,1.94,0,0,0-.29-1Z" style="opacity:0.15"></path><path d="M405.57,345.88l-16.42-9.48a2.19,2.19,0,0,1-1-1.7v-.39a2.16,2.16,0,0,1,1-1.7l48.4-28.07a2.18,2.18,0,0,1,2,0L455.93,314a2.16,2.16,0,0,1,1,1.7v.39a2.19,2.19,0,0,1-1,1.7l-48.4,28.07A2.18,2.18,0,0,1,405.57,345.88Z" style="fill:#FF7400"></path><path d="M456.62,314.75l-50.07,29-18.09-10.45a2,2,0,0,1,.69-.73l48.4-28.07a2.12,2.12,0,0,1,2,0L455.92,314A1.9,1.9,0,0,1,456.62,314.75Z" style="fill:#fff;opacity:0.30000000000000004"></path><path d="M388.45,333.34a2.11,2.11,0,0,0-.28,1v.39a2.19,2.19,0,0,0,1,1.7l16.42,9.48a2.06,2.06,0,0,0,1,.23v-2.32Z" style="opacity:0.25"></path><path d="M406.55,343.79v2.32a2.08,2.08,0,0,0,1-.23l19.69-11.38,28.71-16.69a2.19,2.19,0,0,0,1-1.7v-.39a2,2,0,0,0-.29-1Z" style="opacity:0.15"></path><path d="M393,295.93l-27.28-15.75a2.16,2.16,0,0,1-1-1.69v-.4a2.16,2.16,0,0,1,1-1.69l48.4-28.07a2.12,2.12,0,0,1,2,0l27.29,15.75a2.16,2.16,0,0,1,1,1.69v.39a2.16,2.16,0,0,1-1,1.7L395,295.93A2.12,2.12,0,0,1,393,295.93Z" style="fill:#FF7400"></path><path d="M394,293.85v2.32a2,2,0,0,0,1-.24l19.7-11.37,28.71-16.7a2.16,2.16,0,0,0,1-1.7v-.39a2,2,0,0,0-.29-1Z" style="opacity:0.15"></path><path d="M365.07,277.13a2,2,0,0,0-.29,1v.4a2.16,2.16,0,0,0,1,1.69L393,295.93a2,2,0,0,0,1,.24v-2.32Z" style="opacity:0.25"></path><path d="M444.1,264.81l-50.08,29-28.95-16.72a2.11,2.11,0,0,1,.69-.73l48.4-28.07a2.18,2.18,0,0,1,2,0l27.29,15.74A2,2,0,0,1,444.1,264.81Z" style="fill:#fff;opacity:0.30000000000000004"></path><path d="M389.53,293.9l13,60.92a1.11,1.11,0,0,1,0,.4,1.49,1.49,0,0,1,0,.19,1.18,1.18,0,0,1-.6.65,3.9,3.9,0,0,1-1.95.46,3.8,3.8,0,0,1-1.95-.46,1.41,1.41,0,0,1-.56-.51l-.06-.19,0-.09-13.88-64.8" style="fill:#455a64"></path></g><g id="freepik--character--inject-25"><path id="freepik--shadow--inject-25" d="M429.76,287.33a36.36,36.36,0,0,0-6.12-2.45l-25.11,14.56a2.29,2.29,0,0,0,.29.18c4.82,2.53,7.12,4.17,11.73,5.63a21.53,21.53,0,0,0,8.35.89c6.36-.52,9.77-3.25,13.34-6.84a8.77,8.77,0,0,0,2.64-5.85C434.89,290.65,432.26,288.6,429.76,287.33Zm-23.5-.58,17.95-10.4c0-.17.07-.34.11-.51a3.45,3.45,0,0,0,.1-1.46,2.72,2.72,0,0,0-.67-1.16,13.2,13.2,0,0,0-5.17-3.1c-6.12-2.45-12.71-4.69-19.2-3.51a31.72,31.72,0,0,0-8.07,2.92A97.57,97.57,0,0,0,381,275.32c-2,1.27-4.8,3.61-3.59,6.3,2.08,4.63,8.9,5.55,13.28,5.79a88.1,88.1,0,0,0,13-.69A10.78,10.78,0,0,1,406.26,286.75Z" style="opacity:0.15"></path><g id="freepik--bottom--inject-25"><path d="M412.39,229.19c1.76,12.25,4.78,31,6.67,45.51.31,1.7-.19,1.95-.1,3.08.13,1.42,11.27,1.84,11.17.09a6.93,6.93,0,0,0,.36-2.51c-.09-7.49,2.72-20.77,3.24-32.72.39-9-1.52-13.46-2.69-18,0,0,2.85-26.77,3.58-52.5a46,46,0,0,0-8-27.65l-21.15,3.64s2.68,28.51,4.3,54.71C410.21,209.75,410.63,216.94,412.39,229.19Z" style="fill:#ffbda7"></path><path d="M394.63,152.53c-2.64,5.22-13.61,29.93-18.32,46.15-1.14,3.9-2.58,6.57,2.35,18.73,2.47,6.09,11.61,26.65,14.68,34.92a36.07,36.07,0,0,1,2.11,7.9c4.64,3,12.33.81,12.33.81s-1-5.67-1.34-8.3c-1.59-13.92-1-34.59-9.91-44.87,6.73-11.09,26.09-42.24,30.41-61.62Z" style="fill:#ffbda7"></path><path d="M414.86,245.67c3.48,2.21,10.19,1.92,12.63,1.76a13.92,13.92,0,0,0,6.05-1.6,65.14,65.14,0,0,0-1.2-21.19s1.64-19.74,4.91-50.54c.43-4.09,2-11.44.07-19-1.83-7.29-7-15.56-7.33-18.66l-35.79,1.3-1.57,10.65c-2.64,5.22-12.84,32.83-17.43,49.08-1.84,6.48-1.75,9.52,2.68,19.56,2.16,4.89,4.75,11.11,7.81,17.89,7,1.83,18.3-4.31,18.27-8.27-1.34-7.27-2.12-12.28-6.67-19.19,3.1-5.12,11-18.65,11-18.65.61,6.95.53,8.76,1,16.46.45,6.92,1.17,12,2.58,22.26C412.88,234.5,413.78,241.17,414.86,245.67Z" style="fill:#37474f"></path><path d="M433.22,249.56l.48-5.3c-5.09,3.59-15.71,2.65-19.16,0l.91,5.3C419.32,252.25,430.08,251.9,433.22,249.56Z" style="fill:#263238"></path><path d="M404.86,231.6l-1-5.58c-4.19,5.15-15.33,7.21-19.63,5.49l2.21,5.6C391.16,238.75,402.32,234.89,404.86,231.6Z" style="fill:#263238"></path><path d="M408.3,188.78l-1.37-18.05a20.93,20.93,0,0,1-9.64-10.06s.69,7.58,7,11.58L406.16,186l-8.87,21.81Z" style="fill:#263238"></path><path d="M433.21,284.47a7.42,7.42,0,0,1-.18,1.91c-.37.81-1.42,1.13-2.07,2.56-1,2.32-.83,5.54-1.49,8.65a8.38,8.38,0,0,1-5.19,6,16.51,16.51,0,0,1-10.62.83c-2.37-.61-3.08-1.45-3.51-2a9,9,0,0,1-.2-2.09s3.65-1.66,4.86-2.06S433.21,284.47,433.21,284.47Z" style="fill:#263238"></path><path d="M433.21,284.47a5.35,5.35,0,0,1-1.18,1.34,13.45,13.45,0,0,0-1.65,1.55c-1,1.2-1,2.59-1.34,4.1-.24,1.15-.25,2.34-.46,3.5-.35,2-.48,3.8-1.86,5.23s-4.2,2.16-6.23,2.43c-5.7.75-8.19.06-9.68-1.48-1.14-1.17-1-2.8,1.84-6.32a7.45,7.45,0,0,0,3.09-3.4c1.76-4.05,2.48-8.29,2.47-16.7,0-.89,4.38-1,6.77-.15a.78.78,0,0,1,.39.21c.33.36.18.93.34,1.36a1,1,0,0,0,.68.66,1.21,1.21,0,0,0,1.15-.73,6,6,0,0,1,.69-1.27,2,2,0,0,1,1.19-.56,6,6,0,0,1,1.34,0,19.28,19.28,0,0,0,1.37,5.2A7.75,7.75,0,0,1,433.21,284.47Z" style="fill:#455a64"></path><path d="M427.38,299.34a10.68,10.68,0,0,0-6.82-5.5c-5.15-1.49-7.7.61-8.94,1.92-1.47,1.56-2.38,4.17-1.17,5.54,1.73,2,4.28,2.31,9.14,1.93C425.81,302.75,427.38,299.34,427.38,299.34Z" style="fill:#fafafa"></path><path d="M409.18,267.87a4.71,4.71,0,0,1,.14,1.9c-.36.81-1.18,1.6-4.7,3.39a9.89,9.89,0,0,0-3.73,4,14.22,14.22,0,0,1-6.55,5.55,19.63,19.63,0,0,1-11.59,1c-4.82-1-5.15-3.82-5.15-3.82s-.2-2.69,1-3.09S409.18,267.87,409.18,267.87Z" style="fill:#263238"></path><path d="M407.79,258.75c-.07,2.92,2.11,5.57,1.39,9.12-1.39,3.34-5.88,3.31-7.88,6s-4.39,6.77-10.75,7.9-11.12-1-12.26-2.8.07-3.6,4-6,10.41-9.13,10.42-9.14a15.26,15.26,0,0,0,1.54-2.23c.51-.91.52-1.9.19-3.91,1.15-.48,5.31-1.45,8.29.94.44.35.49,1.11.69,1.63a1.26,1.26,0,0,0,.3.53,1,1,0,0,0,.79.2,2.5,2.5,0,0,0,1.52-.68c.55-.54.29-1.86.87-2.37.34-.3.75-.23.86,0A2.86,2.86,0,0,1,407.79,258.75Z" style="fill:#455a64"></path><path d="M394.69,280.31a8.06,8.06,0,0,0-4.56-7c-4.73-2.53-7.66-1-9.14,0-1.77,1.22-4.31,3.78-2.83,5.71s4.18,3.11,9.06,3.26A11.65,11.65,0,0,0,394.69,280.31Z" style="fill:#fafafa"></path></g><g id="freepik--top--inject-25"><g id="freepik--Hair--inject-25"><path id="freepik--hair--inject-25" d="M413.49,46c3-2.75,10.72-2.58,14.26,2.27s.68,4.87,6.17,9.81a9.69,9.69,0,0,1,3.18,6.87,8.68,8.68,0,0,1-1,4.47c-.78,1.31-1.46,2-.61,3.62,1,1.93,2.8,3.32,4.17,5,1.55,1.9,2.6,4.55,1.63,6.79-.57,1.31-1.76,2.33-2.06,3.72a7.08,7.08,0,0,0,.24,2.92,10.75,10.75,0,0,1-.06,5.63,8.21,8.21,0,0,1-4,4.38,15.35,15.35,0,0,1-5.81,1.56,27.33,27.33,0,0,1-14.84-2.84,17.87,17.87,0,0,1-6.54-5.33,11.43,11.43,0,0,1-2.11-5.46c-.16-1.73.82-2.67,1-4.28.38-3.5-1.46-7.06-1.71-10.55-.42-6-2.15-10.73.62-15.14S409.76,49.4,413.49,46Z" style="fill:#263238"></path><path d="M423.64,56c2.88-2.31-2.38-7.75-6.3-8.38s-3.76,2.54-3.76,2.54Z" style="fill:#FF7400"></path></g><g id="freepik--chest--inject-25"><path d="M317.36,118.31l-1.81-3.51a1.82,1.82,0,0,1,1.92-.81c1.4.2,2.95,2.56,5.74,3.45s6.66,1.14,6.58.7-2.52-2.52-2.73-4.13.85-2.44,2.68-1a44.12,44.12,0,0,0,5.69,3.75c2.9,1.7,5,3.41,7.42,3.58h0l23.73-2.66s14.75-13.72,19.85-18.4c4.73-4.34,6.21-6.48,12.92-7.21l-5.27,22.27S378.81,126.48,375.49,129s-5,2.9-11.59,2.81c-4-.06-21.17-.8-23.79-.79-3.11,0-4.28.43-6.66.26a27.38,27.38,0,0,1-9.2-2.11c-3.72-1.59-5.36-3.95-6.81-7.28S317.36,118.31,317.36,118.31Z" style="fill:#ffbda7"></path><path d="M394.2,137.71c-.69-6.85-1.8-11.87-2-14.05-5.48-4.51-5.66-10.9-2.73-17.15,2.85-6.09,8.78-13.07,9.88-14.47A88.4,88.4,0,0,1,411,91.19,58.18,58.18,0,0,1,425.71,93c4.13,4.61,7.22,8,7.13,17.66-.08,9.32-3.89,14-2.85,25.76C424.05,140.8,402.28,141.87,394.2,137.71Z" style="fill:#FF7400"></path><path d="M395.65,145.1c-2.31.25-4.63-.85-7.77-1.33s-5.27-.34-6.58-1.1-1.63,1.85,0,2.92,3.94,1.18,3.53,1.92c-.63,1.09-3.27.94-4.26,1-3.06,0-6.54-1.08-9.45.22a1.32,1.32,0,0,0-.74.63,1.09,1.09,0,0,0,.5,1.2,6.6,6.6,0,0,0,1.29.53,1.55,1.55,0,0,1,1,.9c.12.41,0,.87.1,1.27a1.42,1.42,0,0,0,.51.63,5.13,5.13,0,0,0,1.29.77,4.29,4.29,0,0,1,2.69,2c2.15,2.26,5.75,2.32,8.64,2.21,6.17-.24,8.64-2.07,12.17-2.75s18.71-3.14,26.27-5.32c7.92-2.29,6.19-3.89,7.46-12s2.25-24.71,2.84-31.19c.67-7.43-.85-13-9.43-14.63-4.46,1.4-7.78,10.35-6.21,22.76l-2,21.79S398,144.85,395.65,145.1Z" style="fill:#ffbda7"></path></g><g id="freepik--head--inject-25"><path d="M418.72,85.68c1.56-4.48,3.81-5.33,6.72-9,3.38-4.2,5.15-15.08-1.77-20.93-3.84-8.65-13.84-7.73-21.13-6.56-9.53,1.54-17.62,10.3-9.4,20.28Z" style="fill:#37474f"></path><path d="M424.8,69.55c-1.49-1-3.48-1.14-4.63,1.12-.31.6-1.3,2.28-1.94,2.47-2,.59-3.34-2.91-3.54-4.38a39.45,39.45,0,0,0-.48-4.37,7.65,7.65,0,0,1-5-4.25c-.46-.89-.24-1.19-1.19-1a20.85,20.85,0,0,1-2.95.48,14.83,14.83,0,0,1-7.2-.81c-.5-.23-1-.88-1.64-.75-.44.09-.78.68-1,1A10.63,10.63,0,0,0,394,61.81,29.65,29.65,0,0,0,393.1,72a2.81,2.81,0,0,0,0,.29c.44,9.27,2.83,13.09,5.45,14.33,1.62.76,3.55,1,6.64.64l0,5.27s-5.59,6.35-3.39,11.15c6.77-.52,15.05-7.37,16.82-11.28l.1-14.07s1.44,2.25,4.65-.25C426.06,76,427.14,71.1,424.8,69.55Z" style="fill:#ffbda7"></path><path d="M405.49,70.17a1.27,1.27,0,0,0,1.12,1.36A1.19,1.19,0,0,0,408,70.46a1.27,1.27,0,0,0-1.12-1.37A1.19,1.19,0,0,0,405.49,70.17Z" style="fill:#263238"></path><path d="M394.28,65.18l3.07-1.12a1.56,1.56,0,0,0-2-1A1.72,1.72,0,0,0,394.28,65.18Z" style="fill:#263238"></path><path d="M406.25,64.27l3.05,1.17a1.56,1.56,0,0,0-.88-2.1A1.71,1.71,0,0,0,406.25,64.27Z" style="fill:#263238"></path><path d="M406.72,77.91l-5.32,1.82a2.82,2.82,0,0,0,3.83,1.65A2.65,2.65,0,0,0,406.72,77.91Z" style="fill:#b16668"></path><path d="M403.68,81.57a3,3,0,0,1,2.92-2.68,2.48,2.48,0,0,1,.27,0,2.47,2.47,0,0,1-1.64,2.46A3.24,3.24,0,0,1,403.68,81.57Z" style="fill:#f28f8f"></path><path d="M394.84,69.84A1.27,1.27,0,0,0,396,71.2a1.19,1.19,0,0,0,1.34-1.07,1.27,1.27,0,0,0-1.12-1.36A1.19,1.19,0,0,0,394.84,69.84Z" style="fill:#263238"></path><path d="M405.2,87.22c3.27-.5,10.18-2.29,11.37-4.86A7.68,7.68,0,0,1,413.92,86c-2.08,1.6-8.71,3-8.71,3Z" style="fill:#f0997a"></path><path d="M412.1,66.45l9.59,2.63a2.68,2.68,0,0,0-1.44,1.44l-8.17-2.09Z" style="fill:#263238"></path><path d="M390.6,66.9a2.43,2.43,0,0,0,.57,1.27,1.06,1.06,0,0,1,.23.45,22.8,22.8,0,0,0,.81,3.42,3.76,3.76,0,0,0,3.68,2.42,5.42,5.42,0,0,0,1.26-.11l.09,0a3.62,3.62,0,0,0,1-.4l.06,0,.09,0,.11-.08.1-.08.11-.09.1-.09a1.89,1.89,0,0,0,.2-.2,4.56,4.56,0,0,0,.81-1.3c.53-1.2.39-2.87,1.27-3.07h.21c1.19,0,1.06,1.84,1.73,3.14a4.45,4.45,0,0,0,4.35,2.6h.33l.26,0a5.12,5.12,0,0,0,.62-.09l.2-.05.19,0,.11,0a3,3,0,0,0,.7-.33,1.88,1.88,0,0,0,.23-.16,3.44,3.44,0,0,0,.41-.35,4.18,4.18,0,0,0,.77-1.21,21.64,21.64,0,0,0,.7-3.4,1.34,1.34,0,0,1,.2-.49,2.36,2.36,0,0,0,.57-1.22,1.06,1.06,0,0,0-.72-1.08l-.63-.08a19.46,19.46,0,0,0-6.27.09c-2,.55-2.67,1.19-3.78,1.17s-1.71-.68-3.6-1.29a17.31,17.31,0,0,0-5.87-.29l-.59.07A1,1,0,0,0,390.6,66.9Zm13.09,1.22a1.5,1.5,0,0,1,.56-.46l.11-.06.05,0,.28-.13.26-.11a8.51,8.51,0,0,1,.85-.27l.34-.08a8.3,8.3,0,0,1,.87-.14l.2,0a5,5,0,0,1,3.55.69c.45.4.25,2.17.07,3.07v.07a.64.64,0,0,0,0,.07,3.47,3.47,0,0,1-.08.36l-.06.22h0c0,.12-.08.25-.13.38h0s0,.09,0,.13l0,.08a.59.59,0,0,1,0,.08.54.54,0,0,1,0,.11l-.06.12-.08.12a.57.57,0,0,1-.08.13,3,3,0,0,1-2.67,1.27,3.67,3.67,0,0,1-2.83-1.07h0a4,4,0,0,1-.93-1.82A4.16,4.16,0,0,1,403.69,68.12Zm-11.27-.91a1.47,1.47,0,0,1,.47-.3l0,0,.2-.08.13,0,.11,0,.07,0h0l.11,0,.44-.07.24,0H395c.28,0,.57,0,.89.08A5.39,5.39,0,0,1,399.07,68a4.36,4.36,0,0,1,.12,2.73,5.49,5.49,0,0,1-.17.67l0,0a.64.64,0,0,1,0,.07l0,0,0,.08s-.05.11-.08.16a.61.61,0,0,1-.07.14l0,.05a.47.47,0,0,1-.05.1l-.05.08h0a3,3,0,0,1-2.84,1.31,3.46,3.46,0,0,1-1.43-.34,4.1,4.1,0,0,1-1.88-2.92C392.29,69.38,392,67.6,392.42,67.21Z" style="fill:#263238"></path><path d="M401.84,69.07l-.61,8.1-4.55-1.39,4.59-6.87A.92.92,0,0,1,401.84,69.07Z" style="fill:#f0997a"></path></g></g></g></g><g id="freepik--light-bulb--inject-25"><g id="freepik--Socket--inject-25"><path d="M271.64,326.59h0L269.82,307H230.19l-1.84,19.63h0c-.39,3.47,1.7,7,6.29,9.66,8.48,4.89,22.23,4.89,30.7,0C270,333.6,272,330.06,271.64,326.59Z" style="fill:#37474f"></path><path d="M236,315.84c-7.77-4.48-7.77-11.74,0-16.22s20.33-4.47,28.08,0,7.76,11.74,0,16.22S243.73,320.31,236,315.84Z" style="fill:#455a64"></path><path d="M271.21,321.78l-.62-6.57c-.56,2.53-2.53,5-5.9,6.92-8.1,4.68-21.25,4.68-29.37,0-3.37-1.94-5.33-4.39-5.9-6.92l-.62,6.57c.5,2.71,2.53,5.33,6.13,7.4,8.33,4.81,21.84,4.81,30.16,0C268.68,327.11,270.72,324.49,271.21,321.78Z" style="fill:#FF7400"></path><path d="M250.32,328c11.05,0,17.76-3.81,20.79-7.31l-.46-4.86c-5.17,3.56-12.19,5.5-20,5.5H250a40,40,0,0,1-14.86-2.49c.2-1.24.44-2.6.71-4.1L234.18,307h-2.31L230,308.7l-1.68,17.89h0c-.39,3.47,1.7,7,6.29,9.66,8.48,4.89,22.23,4.89,30.7,0,.28-.16.56-.33.83-.51,0,0-6.42,3.2-16.28,2.78s-15.91-4.18-16.09-6.95a36.2,36.2,0,0,1,.42-6.82C238.09,326.69,243.46,328,250.32,328Z" style="opacity:0.2"></path><path d="M283.61,282.6a27.27,27.27,0,0,1,.42-5.35c1.27-5.86-2-12-9.75-16.48-13.41-7.74-35.15-7.74-48.56,0-7.79,4.5-11,10.62-9.75,16.48a27.27,27.27,0,0,1,.42,5.35,11.49,11.49,0,0,0,.28,2.32,27.07,27.07,0,0,1,.72,5.15,10.74,10.74,0,0,0,.33,2.37,23.19,23.19,0,0,1,.64,4.84,11.35,11.35,0,0,0,.3,2.15,25.38,25.38,0,0,1,.65,4.85c.2,4.37,3.18,8.71,9,12.05,12,6.93,31.46,6.93,43.46,0,5.78-3.34,8.76-7.68,9-12.05a25.38,25.38,0,0,1,.65-4.85,11.35,11.35,0,0,0,.3-2.15,23.19,23.19,0,0,1,.64-4.84,10.74,10.74,0,0,0,.33-2.37,27.07,27.07,0,0,1,.72-5.15A12.25,12.25,0,0,0,283.61,282.6Z" style="fill:#37474f"></path><ellipse id="freepik--shadow--inject-25" cx="250" cy="273.44" rx="26.17" ry="15.11" style="fill:#263238"></ellipse><path d="M273.09,303.05c-6.34,3.65-14.79,5.48-23.09,5.51s-16.75-1.86-23.08-5.51a20.75,20.75,0,0,1-7.95-7.49,18.35,18.35,0,0,1-1.24-3.12v0a23,23,0,0,1,.64,4.82,11.35,11.35,0,0,0,.3,2.15,2,2,0,0,1,.05.26,21.1,21.1,0,0,0,8.9,10.09c6.14,3.55,14.34,5.33,22.39,5.35s16.26-1.8,22.39-5.35a21.08,21.08,0,0,0,8.89-10.07c0-.1,0-.19.06-.28a11.35,11.35,0,0,0,.3-2.15,23.19,23.19,0,0,1,.64-4.84,19.1,19.1,0,0,1-1.25,3.12A20.72,20.72,0,0,1,273.09,303.05Z" style="fill:#455a64"></path><path d="M283.33,284.92a12.25,12.25,0,0,0,.28-2.32,27.27,27.27,0,0,1,.42-5.35,19.76,19.76,0,0,1-1.09,3.11c-1.55,3.08-4.43,6-8.66,8.44-6.66,3.85-15.55,5.78-24.28,5.8s-17.62-2-24.27-5.8c-4.23-2.43-7.12-5.36-8.67-8.44a19.76,19.76,0,0,1-1.09-3.11h0a27.23,27.23,0,0,1,.42,5.34,11.49,11.49,0,0,0,.28,2.32l0,.16a21.86,21.86,0,0,0,9.51,11c6.53,3.76,15.24,5.65,23.79,5.68s17.27-1.92,23.79-5.68a21.84,21.84,0,0,0,9.5-11C283.31,285,283.31,285,283.33,284.92Z" style="fill:#455a64"></path><path d="M256.41,299.46a6.42,6.42,0,0,0-6.42-6.69h0a6.41,6.41,0,0,0-6.41,6.69s0,2.37,0,2.79L245,345.16a3.91,3.91,0,0,0,3.9,3.74h2.15a3.91,3.91,0,0,0,3.9-3.74l1.44-42.91C256.43,301.83,256.41,299.46,256.41,299.46Z" style="fill:#455a64"></path><path d="M251.07,348.9h-2.15a3.91,3.91,0,0,1-3.9-3.74l-1.44-42.91a6.42,6.42,0,0,1,6.41-6.7h0a6.43,6.43,0,0,1,6.42,6.7L255,345.16A3.91,3.91,0,0,1,251.07,348.9Z" style="fill:#37474f"></path><path d="M250,372h0a1.93,1.93,0,0,1-1.92-1.87l-1.66-65.31a3.58,3.58,0,0,1,3.58-3.72h0a3.59,3.59,0,0,1,3.59,3.72l-1.67,65.31A1.92,1.92,0,0,1,250,372Z" style="fill:#FF7400"></path><path d="M248.07,370.15a1.92,1.92,0,0,0,3.84,0l.21-7.12-.08-.22s-.27,3.31-2,2.49c-1.27-.59-2.05-4.53-2.31-8.46Z" style="opacity:0.2"></path><path d="M253.58,304.84a3.59,3.59,0,0,0-3.59-3.72h0a4,4,0,0,0-.6.05c2.19.42,2.89,1.76,3,7.09.13,5.57-.42,59.58-.42,59.59Z" style="fill:#fff;opacity:0.5"></path><path d="M283.79,282.38a3.45,3.45,0,0,0-3.42.36,10.85,10.85,0,0,0-4.86,8.83l1.17,37.59a1.83,1.83,0,0,0,.81,1.66l2.42,1.4a1.85,1.85,0,0,0,1.83-.19l2.09-1.2a5.9,5.9,0,0,0,2.65-4.45l1.17-39.22c0-1.68-.51-2.85-1.43-3.38Z" style="fill:#263238"></path><path d="M281.74,332c-1.42.82-2.61.16-2.65-1.48L277.92,293a10.85,10.85,0,0,1,4.86-8.83c2.78-1.6,5-.24,4.87,3l-1.17,39.22a5.9,5.9,0,0,1-2.65,4.45Z" style="fill:#37474f"></path><path d="M283.79,282.38l2.43,1.4a3.41,3.41,0,0,0-3.44.35A10.72,10.72,0,0,0,278.4,290L276,288.56a10.68,10.68,0,0,1,4.38-5.82A3.43,3.43,0,0,1,283.79,282.38Z" style="fill:#455a64"></path><path d="M287.38,292.35l-2.19-1.26-2.41,1.39v61.35c2.54,1.47,4.89,1.53,6.79.43l2.39-1.38c2.39-1.36,4.05-4.57,4.45-9.18l2.19-25.27C299.45,308.52,294.19,296.28,287.38,292.35Z" style="fill:#FF7400"></path><g style="opacity:0.2"><path d="M287.38,292.35l-2.19-1.26-2.41,1.39v61.35c2.54,1.47,4.89,1.53,6.79.43l2.39-1.38c2.39-1.36,4.05-4.57,4.45-9.18l2.19-25.27C299.45,308.52,294.19,296.28,287.38,292.35Z" style="fill:#fff"></path></g><path d="M282.78,353.83h0V292.48l2.19,1.26c6.81,3.93,12.07,16.17,11.22,26.08L294,345.09C293.29,353.38,288.48,357.12,282.78,353.83Z" style="fill:#FF7400"></path><path d="M282.78,353.83h0V292.48l2.19,1.26c6.81,3.93,12.07,16.17,11.22,26.08L294,345.09C293.29,353.38,288.48,357.12,282.78,353.83Z" style="opacity:0.2"></path><path d="M294.06,344.39c-.35,4-4.36,5.6-7.27,2.5s-4-7.11-4-19.57v26.51c5.7,3.29,10.51-.45,11.22-8.74Z" style="opacity:0.2"></path><path d="M216.21,282.38a3.45,3.45,0,0,1,3.42.36,10.81,10.81,0,0,1,4.85,8.83l-1.16,37.59a1.83,1.83,0,0,1-.81,1.66l-2.42,1.4a1.85,1.85,0,0,1-1.83-.19l-2.09-1.2a5.9,5.9,0,0,1-2.65-4.45l-1.17-39.22c0-1.68.51-2.85,1.43-3.38Z" style="fill:#263238"></path><path d="M218.26,332c1.42.82,2.61.16,2.65-1.48L222.07,293a10.81,10.81,0,0,0-4.85-8.83c-2.78-1.6-5-.24-4.87,3l1.17,39.22a5.9,5.9,0,0,0,2.65,4.45Z" style="fill:#37474f"></path><path d="M216.21,282.38c-.42.23-2,1.16-2.43,1.4a3.41,3.41,0,0,1,3.44.35A10.72,10.72,0,0,1,221.6,290l2.41-1.39a10.68,10.68,0,0,0-4.38-5.82A3.43,3.43,0,0,0,216.21,282.38Z" style="fill:#455a64"></path><path d="M212.62,292.35l2.19-1.26,2.41,1.39v61.35c-2.54,1.47-4.89,1.53-6.79.43L208,352.88c-2.39-1.36-4-4.57-4.45-9.18l-2.19-25.27C200.55,308.52,205.81,296.28,212.62,292.35Z" style="fill:#FF7400"></path><g style="opacity:0.2"><path d="M212.62,292.35l2.19-1.26,2.41,1.39v61.35c-2.54,1.47-4.89,1.53-6.79.43L208,352.88c-2.39-1.36-4-4.57-4.45-9.18l-2.19-25.27C200.55,308.52,205.81,296.28,212.62,292.35Z" style="fill:#fff"></path></g><path d="M217.22,353.83h0V292.48L215,293.74c-6.81,3.93-12.07,16.17-11.22,26.08L206,345.09C206.71,353.38,211.52,357.12,217.22,353.83Z" style="fill:#FF7400"></path><path d="M217.22,353.83h0V292.48L215,293.74c-6.81,3.93-12.07,16.17-11.22,26.08L206,345.09C206.71,353.38,211.52,357.12,217.22,353.83Z" style="opacity:0.2"></path><path d="M205.94,344.39c.35,4,4.36,5.6,7.27,2.5s4-7.11,4-19.57v26.51c-5.7,3.29-10.51-.45-11.22-8.74Z" style="opacity:0.2"></path></g><g id="freepik--Bulb--inject-25"><path d="M250,58.26a86.32,86.32,0,0,0-86.32,86.32c0,68.52,56.54,79.9,56.54,107.52,0,4.4,2.91,8.8,8.72,12.15,11.63,6.72,30.49,6.72,42.12,0,5.81-3.36,8.72-7.76,8.72-12.16h0c0-27.62,56.54-39,56.54-107.52A86.32,86.32,0,0,0,250,58.26Z" style="fill:#FF7400"></path><path d="M250,58.26a86.32,86.32,0,0,0-86.32,86.32c0,68.52,56.54,79.9,56.54,107.52,0,4.4,2.91,8.8,8.72,12.15,11.63,6.72,30.49,6.72,42.12,0,5.81-3.36,8.72-7.76,8.72-12.16h0c0-27.62,56.54-39,56.54-107.52A86.32,86.32,0,0,0,250,58.26Z" style="fill:#fff;opacity:0.6000000000000001;mix-blend-mode:screen"></path><path d="M293.92,93.11a13.16,13.16,0,0,0-3,1.8c-3.43,2.69-4.83,7.45-4.19,11.76,1.22,8.35,9.26,13.56,13.91,20a73.94,73.94,0,0,1,11.25,23.53c.69,2.52,1.59,6.69,2.88,8.95a6.75,6.75,0,0,0,8.59,2.9c3.35-1.79,5.09-6,5.56-9.27,2.8-19.53-1.19-34.14-11-49.17C312.49,95.47,304,88.77,293.92,93.11Z" style="fill:#fff;opacity:0.2"></path><path d="M312.52,172.61a9.51,9.51,0,0,0,.9,7.74,5.53,5.53,0,0,0,7.58,1.72,8.94,8.94,0,0,0,4.1-7.47c-.05-3.17-2.1-6.54-5.61-6.89C316.22,167.39,313.4,170,312.52,172.61Z" style="fill:#fff;opacity:0.2"></path><path d="M232.72,243.36c-1.92-10.93-4.9-16.8-18.37-23.71s-36.78-17.4-46.56-45.55c13,43.18,52.43,54.93,52.43,78,0,4.4,2.91,8.8,8.72,12.15a35.15,35.15,0,0,0,8,3.29C235.74,260.61,233.91,250.17,232.72,243.36Z" style="fill:#FF7400;opacity:0.25"></path><path d="M267.28,243.36c1.92-10.93,4.9-16.8,18.37-23.71s36.78-17.4,46.56-45.55c-13,43.18-52.43,54.93-52.43,78,0,4.4-2.91,8.8-8.72,12.15a35.26,35.26,0,0,1-8,3.29C264.26,260.61,266.09,250.17,267.28,243.36Z" style="fill:#FF7400;opacity:0.25"></path><circle cx="250" cy="141.87" r="26.17" transform="translate(-35.26 106.47) rotate(-22.5)" style="fill:#FF7400"></circle><circle cx="250" cy="141.87" r="26.17" transform="translate(-35.26 106.47) rotate(-22.5)" style="opacity:0.15"></circle><circle cx="250" cy="144.91" r="26.17" transform="translate(-36.43 106.7) rotate(-22.5)" style="fill:#FF7400"></circle><path d="M259.43,169.32,251,146.06l21.44,12.38c.18-.29.35-.59.51-.89l-21.44-12.38,24.38-4.29c-.05-.34-.11-.68-.18-1l-24.37,4.3,15.9-19q-.37-.34-.78-.66l-15.91,19V118.76h-1v24.75l-15.91-19q-.41.32-.78.66l15.9,19-24.37-4.3c-.07.33-.13.67-.18,1l24.37,4.29-21.43,12.38c.16.3.33.6.51.89L249,146.06l-8.47,23.26,1,.35L250,146.41l8.47,23.26Z" style="opacity:0.2"></path><circle cx="250" cy="145.05" r="20.58" style="fill:#37474f"></circle><path d="M250,124.47a20.58,20.58,0,0,0-20.48,18.62,20.57,20.57,0,0,0,41,.13A20.57,20.57,0,0,0,250,124.47Z" style="fill:#455a64"></path><path d="M266.44,139.82a6.15,6.15,0,1,1-6.15-6.14A6.14,6.14,0,0,1,266.44,139.82Z" style="fill:#e0e0e0"></path><path d="M262.6,152a3.54,3.54,0,1,1-3.54-3.54A3.54,3.54,0,0,1,262.6,152Z" style="fill:#e0e0e0"></path><circle cx="250" cy="200.54" r="15.12" transform="translate(-57.71 110.94) rotate(-22.5)" style="fill:#FF7400"></circle><circle cx="250" cy="200.54" r="15.12" transform="translate(-57.71 110.94) rotate(-22.5)" style="opacity:0.15"></circle><circle cx="250" cy="202.29" r="15.12" transform="translate(-58.38 111.07) rotate(-22.5)" style="fill:#FF7400"></circle><path d="M255.45,216.39,250.56,203l12.38,7.15.3-.52-12.39-7.15L264.94,200c0-.2-.07-.39-.11-.58l-14.08,2.48,9.19-11-.45-.38-9.19,10.95v-14.3h-.6v14.3l-9.19-10.95-.45.38,9.19,11-14.08-2.48c0,.19-.08.38-.11.58l14.09,2.48-12.39,7.15.3.52L249.44,203l-4.89,13.43.56.2L250,203.16l4.89,13.43Z" style="opacity:0.2"></path><circle cx="250" cy="202.37" r="11.87" transform="translate(-69.87 236.05) rotate(-45)" style="fill:#37474f"></circle><path d="M250,190.5a11.85,11.85,0,0,0-11.81,10.74,11.87,11.87,0,0,0,23.63.07A11.87,11.87,0,0,0,250,190.5Z" style="fill:#455a64"></path><path d="M259.48,199.35a3.54,3.54,0,1,1-3.54-3.54A3.54,3.54,0,0,1,259.48,199.35Z" style="fill:#e0e0e0"></path><path d="M257.27,206.37a2,2,0,1,1-2-2A2.05,2.05,0,0,1,257.27,206.37Z" style="fill:#e0e0e0"></path><path d="M285.46,68.49h0a.3.3,0,0,1-.08-.08,1.54,1.54,0,0,1-.17-.19C274.62,56.49,253.14,53.67,250,53.67s-24.62,2.82-35.21,14.55l-.18.19a.6.6,0,0,1-.08.08h0c-7.76,8.67-5.34,19.59,7.25,26.86,15.58,9,40.84,9,56.42,0C290.8,88.08,293.22,77.16,285.46,68.49Z" style="fill:#455a64"></path><path d="M235.22,58.85c-8.19,2.47-24,10.4-21.21,22.53,2.66,11.39,25.37,18.47,34,18-11.7-1.57-23.17-13.51-24.6-21.45S228.2,62,235.22,58.85Z" style="fill:#37474f"></path><path d="M257.58,57.93c6.5,1.5,21.17,8.42,28.39,16.26C282.37,67.79,269.88,59.23,257.58,57.93Z" style="fill:#e0e0e0"></path><path d="M253.05,56.26,250,26.38,247,56.26h0a1.51,1.51,0,0,0,.89,1.24,4.77,4.77,0,0,0,4.32,0,1.51,1.51,0,0,0,.89-1.24Z" style="fill:#e0e0e0"></path><path d="M252.93,26.38A2.93,2.93,0,1,1,250,23.45,2.93,2.93,0,0,1,252.93,26.38Z" style="fill:#FF7400"></path><path d="M249.94,28a2.71,2.71,0,0,1-2.13-3.59,2.9,2.9,0,0,0-.74,1.93,2.93,2.93,0,0,0,5.86,0A3,3,0,0,1,249.94,28Z" style="opacity:0.2"></path><circle cx="250" cy="24.83" r="0.86" style="fill:#fff;opacity:0.30000000000000004"></circle><circle cx="251.73" cy="25.5" r="0.44" style="fill:#fff;opacity:0.30000000000000004"></circle><g style="opacity:0.5"><path d="M276.17,243.11a17.45,17.45,0,0,1-5.1,5.24c-1,.71-2.11,1.25-3.18,1.86a35,35,0,0,1-3.4,1.44,43.79,43.79,0,0,1-29,0c-1.17-.39-2.28-.95-3.4-1.45a32.59,32.59,0,0,1-3.18-1.86,17.3,17.3,0,0,1-5.1-5.23,18.34,18.34,0,0,0,5.4,4.76,35.94,35.94,0,0,0,3.19,1.68,34.33,34.33,0,0,0,3.38,1.26,48,48,0,0,0,28.4,0,31.87,31.87,0,0,0,3.37-1.27c1.07-.54,2.17-1,3.19-1.67A18.52,18.52,0,0,0,276.17,243.11Z" style="fill:#FF7400"></path><path d="M251,258.34a1,1,0,1,1-.95-1A1,1,0,0,1,251,258.34Z" style="fill:#FF7400"></path><circle cx="266.31" cy="254.3" r="0.96" style="fill:#FF7400"></circle><circle cx="233.68" cy="254.3" r="0.96" style="fill:#FF7400"></circle></g></g></g><g id="freepik--character-2--inject-25"><g id="freepik--character--inject-25"><g id="freepik--bottom--inject-25"><path d="M386.12,433.23c2.76-8,4.11-28.6,1.36-34.89-1.69-3.86-6.3-5.91-11.29-4.44-7.83,2.29-24.48,12.08-24.48,12.08Z" style="fill:#263238"></path><path d="M379.81,408l-25,9.81-1.29-.11,1.73-4.3c-13.94-1.49-37.21-12-49.25-5.83-6.09,3.12-8.61,12.14-4.95,18.43,3,5.09,12.93,11.8,22.73,16.09,11.19,4.9,18.61,8.11,27.57,8.56,10.95.55,16.11-2.26,21-4.73,5.16-2.57,12.69-4.56,14.25-15.07C388,421.31,383.27,414.76,379.81,408Z" style="fill:#37474f"></path><path d="M313.21,408.71a13,13,0,0,1,9.41,6.14l23.4,3.22.55-1.9-22.23-2.74C322.19,410,317.48,408.57,313.21,408.71Z" style="opacity:0.2"></path></g><g id="freepik--top--inject-25"><polygon points="351.57 348.93 354.81 367.98 369.55 366.5 367.26 345.34 351.57 348.93" style="fill:#9e6767"></polygon><path d="M380.66,405.06c-2.32-6.13-2.21-11.11-1.56-14,2.79-12.36,3.12-16.51,1.82-24.17-1.05-6.16-3.88-13.5-10.87-13.11a14.76,14.76,0,0,0-1.85.17c.67,5.34-10.11,7.46-15.05,4.27-2.22.52-10.07,2.61-10.07,2.61-4.46,5.71-9.65,15.23-11.15,20.65-2.64,9.54,5.85,16.06,5.85,16.06-.25,6.93,1.65,16-1.34,25.51,0,0,1.35,12.33,24.9,9.69,21-2.35,24.78-11.58,24.78-11.58C384.2,413.09,383.78,413.29,380.66,405.06Z" style="fill:#FF7400"></path><path d="M380.66,405.06c-2.32-6.13-2.21-11.11-1.56-14,2.79-12.36,3.12-16.51,1.82-24.17-1.05-6.16-3.88-13.5-10.87-13.11a14.76,14.76,0,0,0-1.85.17c.67,5.34-10.11,7.46-15.05,4.27-2.22.52-10.07,2.61-10.07,2.61-4.46,5.71-9.65,15.23-11.15,20.65-2.64,9.54,5.85,16.06,5.85,16.06-.25,6.93,1.65,16-1.34,25.51,0,0,1.35,12.33,24.9,9.69,21-2.35,24.78-11.58,24.78-11.58C384.2,413.09,383.78,413.29,380.66,405.06Z" style="fill:#fff;opacity:0.6000000000000001;mix-blend-mode:screen"></path><path d="M350.53,318.23c-3.08,1.56-9.48,4.81-9.77,15.6-.31,11.52,1.19,15.42,2.78,16.92,1.07,1,6.6,1.38,9.48.5,3.61-1.1,11.43-4.9,15.1-10.81,4.31-6.95,5.2-16.21.22-19.84C361.34,315.49,353.14,316.9,350.53,318.23Z" style="fill:#9e6767"></path><path d="M341.16,332.14s-3.72,5.71-3.31,6.2a12.48,12.48,0,0,0,3,1.36Z" style="fill:#874c4c"></path><path d="M343.83,351c1.3.72,5,1.18,8.16.54l-.37-1.94a28.91,28.91,0,0,1-3.8,1.15A13,13,0,0,1,343.83,351Z" style="fill:#874c4c"></path><path d="M338.18,318.58a4.54,4.54,0,0,1,.39-1.29,4.83,4.83,0,0,1,3.92-2.69,5.08,5.08,0,0,1,3.89-5.16A8.16,8.16,0,0,1,353,311c1.54-1.93,4.14-2.33,6.59-2s4.86,2.46,5,4.68c1.71-1.26,4.66-.76,6.26.58a6,6,0,0,1,2.17,5.67c4,2.39,4.45,7.24,4.45,9.53,0,5.22-.87,8.42-4.39,12.65a36.78,36.78,0,0,0-5.42,7.66c-4.32,2.8-11.39,1.66-11.39,1.66-5-2.22-6-8.21-5.55-10.19a2.1,2.1,0,0,0,1.72,1.33,4.14,4.14,0,0,0,3.73-1.4c2.82-2.76,3-7.19-.6-8.36-2.38-.79-3.6.82-5.15,2.1l-1.68,4.54a2.65,2.65,0,0,1-1.62-3.41,2.58,2.58,0,0,1,1.14-1.35,7.86,7.86,0,0,1-2.11-3.34,4.78,4.78,0,0,1,.77-4,4.92,4.92,0,0,1-2.84-3.74c.05.35-.94,1.62-1.12,2a9.43,9.43,0,0,0-1,2.38c-.18,1.2.18,2.4-.81,3.41s-4.53,1-4.59-.75c.74.5,1.76.3,1.86-.63.15-1.31-1.55-2.34-1.92-3.46-.64-1.9,1.1-3.69,2.9-3.73A6,6,0,0,1,338.18,318.58Z" style="fill:#263238"></path><path d="M290,364.77c2.17.13,4.25,3,4.33,4.49s-3.16,2.59-3.16,2.59Z" style="fill:#874c4c"></path><g id="freepik--Brush--inject-25"><path d="M284.6,360.05l2.87,16.82a1.09,1.09,0,0,0,.8.79,3.47,3.47,0,0,0,3.13-.53,1.1,1.1,0,0,0,.49-1L289,359.3Z" style="fill:#455a64"></path><polygon points="289.76 363.63 285.77 366.93 284.6 360.05 289.02 359.3 289.76 363.63" style="opacity:0.15"></polygon><path d="M288.94,345.42l.59,3.43,2.67-2.22,1.22,7a7.46,7.46,0,0,1-2.34,6.33l-4.69,3.89a2.49,2.49,0,0,1-2.2.67c-.07,0-2.87-1-3.47-1.29a2.39,2.39,0,0,1-1.25-1.94l-1.21-7Z" style="fill:#37474f"></path><path d="M286.39,363.89l4.69-3.89a7.46,7.46,0,0,0,2.34-6.33l-1.22-7-10.68,8.87,1.21,7C283.09,364.66,284.73,365.26,286.39,363.89Z" style="fill:#455a64"></path><polygon points="281.52 355.5 292.2 346.63 290.45 336.36 279.76 345.23 281.52 355.5" style="fill:#f5f5f5"></polygon><polygon points="281.52 355.5 279.76 345.23 276.5 344.02 278.26 354.29 281.52 355.5" style="fill:#e0e0e0"></polygon><polygon points="282.04 358.55 292.73 349.68 292.97 351.08 282.29 360.02 282.04 358.55" style="fill:#fafafa"></polygon><polygon points="282.04 358.55 278.78 357.35 279.04 358.82 282.29 360.02 282.04 358.55" style="fill:#e6e6e6"></polygon><path d="M277,347.16s1.42,2.28,3.4,2.07l-.68-4L276.5,344Z" style="fill:#FF7400"></path><path d="M280.44,349.23a4.31,4.31,0,0,0,4-1.16c1.23-1.3,1.08-5.06,3.79-5.6,1.9-.38,3.54,1.41,3.54,1.41l-1.28-7.52-10.69,8.87Z" style="fill:#FF7400"></path><path d="M280.44,349.23a4.31,4.31,0,0,0,4-1.16c1.23-1.3,1.08-5.06,3.79-5.6,1.9-.38,3.54,1.41,3.54,1.41l-1.28-7.52-10.69,8.87Z" style="fill:#fff;opacity:0.30000000000000004"></path><polygon points="290.45 336.36 287.19 335.15 276.5 344.02 279.76 345.23 290.45 336.36" style="fill:#FF7400"></polygon><polygon points="290.45 336.36 287.19 335.15 276.5 344.02 279.76 345.23 290.45 336.36" style="fill:#fff;opacity:0.5"></polygon></g><path d="M289.74,386.84c-4.16-4.39-5.35-4.57-6.65-6.68-2.07-3.36-2-6.31-2.45-9.62s2-4.86,4.83-5.4l1,5.73c.39,2.58,4.56,3.59,4.58.08.06-2.12-.22-4.08.12-5.18.69-2.2,2-2.29,2.81-2.11.63.14.17,1.68.71,4.23.7,3.27,1.79,4.26,1.45,8a5.09,5.09,0,0,0,1.31,3.59c2.43,3.38,14.66,11.56,16.86,13.64,0,0,14.41-23.55,18-27.51,3-3.32,7.61-4.12,10.79-4.71,5.13,1.5,5.08,16.14-3.62,23.54,0,0-12.31,17.49-17.3,22.35-3.41,3.32-6.15,6.3-14.65-.64C299.65,399.7,292.19,389.43,289.74,386.84Z" style="fill:#9e6767"></path><path d="M314.28,393.09a18.54,18.54,0,0,0-2.07,6.45,22.8,22.8,0,0,1,.72-7.57Z" style="fill:#874c4c"></path></g></g></g><g id="freepik--paint-pot--inject-25"><g id="freepik--paint-pot--inject-25"><path d="M246.85,380.86l-32.2-.44-.28,26.3h0c0,2.38,1.52,4.77,4.65,6.62,6.24,3.7,16.44,3.81,22.77.25,3.19-1.8,4.79-4.19,4.78-6.59Z" style="fill:#37474f"></path><path d="M219.44,373.9c-6.32,3.56-6.39,9.45-.14,13.15s16.44,3.81,22.77.25,6.4-9.45.14-13.15S225.77,370.34,219.44,373.9Z" style="fill:#455a64"></path><path d="M245.47,380.75a4,4,0,0,1-.23,1.26,7.79,7.79,0,0,1-3.85,4.07,23.81,23.81,0,0,1-21.38-.23,7.78,7.78,0,0,1-3.73-4.06,4,4,0,0,1-.23-1.35c0-2,1.47-3.86,4.08-5.31a23.81,23.81,0,0,1,21.38.23C244.08,376.88,245.49,378.79,245.47,380.75Z" style="fill:#263238"></path><path d="M245.24,382a7.79,7.79,0,0,1-3.85,4.07,23.81,23.81,0,0,1-21.38-.23,7.78,7.78,0,0,1-3.73-4.06,7.69,7.69,0,0,1,3.85-4.05,23.64,23.64,0,0,1,21.38.23A7.84,7.84,0,0,1,245.24,382Z" style="fill:#FF7400"></path><path d="M241.39,386.08a12.75,12.75,0,0,0,1.46-1c-5.88,3.16-16,1.83-19.14-.65s-3.57-6.71,1.55-8.6a18.23,18.23,0,0,0-5.13,1.88,7.69,7.69,0,0,0-3.85,4.05,7.78,7.78,0,0,0,3.73,4.06,23.81,23.81,0,0,0,21.38.23Z" style="opacity:0.15"></path><path d="M237.62,390.71c.7-.4,1.27-.06,1.26.75a2.78,2.78,0,0,1-1.3,2.18c-.7.4-1.27.07-1.26-.74A2.82,2.82,0,0,1,237.62,390.71Z" style="fill:#263238"></path><path d="M214.6,385c-1.77,3.49-5.29,11.8-.72,15.18.19.14.37.26.56.38l0,1.68c-.45-.28-.93-.59-1.38-.92-6.84-5.07.87-18.07,1.21-18.61a.6.6,0,0,1,.38-.3Z" style="fill:#e0e0e0"></path><path d="M238.21,392.51c-.19.4-5.16,9.91-13.35,11.82a11.76,11.76,0,0,1-2.82.34,14.18,14.18,0,0,1-7.62-2.39l0-1.68c3.38,2.35,6.78,3.16,10.11,2.38,7.55-1.76,12.39-11,12.42-11.12a.71.71,0,0,1,.95-.3A.68.68,0,0,1,238.21,392.51Z" style="fill:#e0e0e0"></path></g></g><g id="freepik--brush--inject-25"><g id="freepik--brush--inject-25"><path d="M266,426.18l16.43-9.46a1.27,1.27,0,0,0,.52-1.14,3.92,3.92,0,0,0-1.76-3.06,1.26,1.26,0,0,0-1.25-.12l-16.43,9.46Z" style="fill:#FF7400"></path><polygon points="267.76 419.42 272.74 422.31 266.02 426.18 263.53 421.86 267.76 419.42" style="opacity:0.2"></polygon><path d="M249.11,427.27l3.34-1.93-3.34-1.93,6.87-4a8.24,8.24,0,0,1,7.49,0l5.86,3.4a2.73,2.73,0,0,1,1.55,2c0,.08,0,3.39,0,4.12a2.65,2.65,0,0,1-1.53,2l-6.87,4Z" style="fill:#FF7400"></path><path d="M249.11,427.27l3.34-1.93-3.34-1.93,6.87-4a8.24,8.24,0,0,1,7.49,0l5.86,3.4a2.73,2.73,0,0,1,1.55,2c0,.08,0,3.39,0,4.12a2.65,2.65,0,0,1-1.53,2l-6.87,4Z" style="opacity:0.2"></path><path d="M269.33,422.84l-5.86-3.4a8.24,8.24,0,0,0-7.49,0l-6.87,4,13.35,7.73,6.87-4C271.4,426,271.4,424,269.33,422.84Z" style="fill:#FF7400"></path><polygon points="262.46 431.14 249.11 423.41 239.08 429.19 252.44 436.92 262.46 431.14" style="fill:#f5f5f5"></polygon><polygon points="262.46 431.14 252.44 436.92 252.43 440.77 262.46 435 262.46 431.14" style="fill:#e0e0e0"></polygon><polygon points="265.44 429.42 252.09 421.69 253.46 420.9 266.88 428.59 265.44 429.42" style="fill:#f0f0f0"></polygon><polygon points="265.44 429.42 265.44 433.28 266.87 432.45 266.88 428.59 265.44 429.42" style="fill:#e0e0e0"></polygon><path d="M255.49,439s1.83-2.35.85-4.34l-3.9,2.25v3.85Z" style="fill:#37474f"></path><path d="M256.34,434.67a4.79,4.79,0,0,0-2.73-3.68c-1.82-.79-5.69.82-7.29-1.79-1.13-1.84.11-4.24.11-4.24l-7.35,4.23,13.36,7.73Z" style="fill:#455a64"></path><polygon points="239.08 429.19 239.08 433.05 252.43 440.77 252.44 436.92 239.08 429.19" style="fill:#263238"></polygon></g></g><g id="freepik--Palette--inject-25"><g id="freepik--palette--inject-25"><path d="M215,437.18h0s0,0,0-.06L212.14,431a.51.51,0,0,0-.51-.17l-51.4,7.95c-.19,0-.31.13-.31.24h0v1.08h0a.14.14,0,0,0,0,.06l2.85,6.14a.49.49,0,0,0,.51.17l51.4-7.95c.19,0,.31-.13.31-.24h0Z" style="fill:#37474f"></path><path d="M160.23,438.75l51.4-7.95a.51.51,0,0,1,.51.17l2.86,6.15c.06.13-.08.26-.3.3l-51.4,7.95a.51.51,0,0,1-.51-.17l-2.85-6.15C159.88,438.92,160,438.79,160.23,438.75Z" style="fill:#455a64"></path><polygon points="163.06 439.89 164.76 443.57 171.13 442.58 169.42 438.91 163.06 439.89" style="fill:#9a4a4d"></polygon><polygon points="179.35 437.37 181.06 441.05 187.43 440.06 185.72 436.38 179.35 437.37" style="fill:#9a4a4d"></polygon><polygon points="179.35 437.37 181.06 441.05 187.43 440.06 185.72 436.38 179.35 437.37" style="fill:#fff;opacity:0.4"></polygon><polygon points="187.5 436.11 189.21 439.78 195.58 438.8 193.87 435.12 187.5 436.11" style="fill:#9a4a4d"></polygon><polygon points="187.5 436.11 189.21 439.78 195.58 438.8 193.87 435.12 187.5 436.11" style="fill:#fff;opacity:0.6000000000000001"></polygon><polygon points="195.65 434.85 197.36 438.52 203.73 437.54 202.02 433.86 195.65 434.85" style="fill:#9a4a4d"></polygon><polygon points="195.65 434.85 197.36 438.52 203.73 437.54 202.02 433.86 195.65 434.85" style="fill:#fff;opacity:0.8"></polygon><polygon points="203.8 433.59 205.51 437.26 211.88 436.28 210.17 432.6 203.8 433.59" style="fill:#9a4a4d"></polygon><polygon points="203.8 433.59 205.51 437.26 211.88 436.28 210.17 432.6 203.8 433.59" style="fill:#fff"></polygon><polygon points="171.21 438.63 172.91 442.31 179.28 441.32 177.57 437.64 171.21 438.63" style="fill:#9a4a4d"></polygon><polygon points="171.21 438.63 172.91 442.31 179.28 441.32 177.57 437.64 171.21 438.63" style="fill:#fff;opacity:0.2"></polygon><path d="M162.92,445.32v1.07a.26.26,0,0,1-.13-.12l-2.85-6.14a.14.14,0,0,1,0-.06V439a.14.14,0,0,0,0,.06l2.85,6.15A.38.38,0,0,0,162.92,445.32Z" style="fill:#263238"></path><path d="M212.23,427.3h0a.16.16,0,0,0-.05-.12l-5.51-5.51a.61.61,0,0,0-.58-.09L160,436.94c-.14,0-.21.12-.21.21h0v1.07h0a.17.17,0,0,0,0,.13l5.51,5.51a.64.64,0,0,0,.58.08L212,428.59c.14,0,.21-.13.21-.22h0Z" style="fill:#37474f"></path><path d="M160,436.94l46.07-15.36a.61.61,0,0,1,.58.09l5.51,5.51c.12.12.05.26-.16.33l-46.07,15.36a.61.61,0,0,1-.58-.09l-5.51-5.51C159.73,437.16,159.8,437,160,436.94Z" style="fill:#455a64"></path><polygon points="163.24 437.62 166.54 440.91 172.25 439.01 168.95 435.72 163.24 437.62" style="fill:#ffa8a7"></polygon><polygon points="177.85 432.75 181.15 436.04 186.86 434.14 183.56 430.84 177.85 432.75" style="fill:#ffa8a7"></polygon><polygon points="177.85 432.75 181.15 436.04 186.86 434.14 183.56 430.84 177.85 432.75" style="fill:#fff;opacity:0.4"></polygon><polygon points="185.16 430.31 188.46 433.61 194.16 431.7 190.87 428.41 185.16 430.31" style="fill:#ffa8a7"></polygon><polygon points="185.16 430.31 188.46 433.61 194.16 431.7 190.87 428.41 185.16 430.31" style="fill:#fff;opacity:0.6000000000000001"></polygon><polygon points="192.47 427.88 195.76 431.17 201.47 429.27 198.18 425.97 192.47 427.88" style="fill:#ffa8a7"></polygon><polygon points="192.47 427.88 195.76 431.17 201.47 429.27 198.18 425.97 192.47 427.88" style="fill:#fff;opacity:0.8"></polygon><polygon points="199.77 425.44 203.07 428.74 208.78 426.83 205.48 423.54 199.77 425.44" style="fill:#ffa8a7"></polygon><polygon points="199.77 425.44 203.07 428.74 208.78 426.83 205.48 423.54 199.77 425.44" style="fill:#fff"></polygon><polygon points="170.55 435.18 173.84 438.48 179.55 436.57 176.26 433.28 170.55 435.18" style="fill:#ffa8a7"></polygon><polygon points="170.55 435.18 173.84 438.48 179.55 436.57 176.26 433.28 170.55 435.18" style="fill:#fff;opacity:0.2"></polygon><path d="M165.6,442.89V444a.53.53,0,0,1-.24-.11l-5.51-5.51a.17.17,0,0,1,0-.13v-1.05a.16.16,0,0,0,0,.1l5.51,5.51A.45.45,0,0,0,165.6,442.89Z" style="fill:#263238"></path><path d="M159.58,436v.39a.64.64,0,0,0,.29.51l7.8,4.5a.62.62,0,0,0,.59,0l37.63-21.72a.68.68,0,0,0,.29-.52v-.38a.66.66,0,0,0-.29-.52l-7.8-4.5a.68.68,0,0,0-.59,0l-37.63,21.72A.68.68,0,0,0,159.58,436Z" style="fill:#37474f"></path><path d="M159.87,435.44l37.63-21.72a.68.68,0,0,1,.59,0l7.8,4.5a.18.18,0,0,1,0,.34l-37.63,21.72a.62.62,0,0,1-.59,0l-7.8-4.49A.19.19,0,0,1,159.87,435.44Z" style="fill:#455a64"></path><path d="M168,440.36v1.07a.57.57,0,0,1-.29-.07l-7.79-4.5a.64.64,0,0,1-.3-.51V436a.66.66,0,0,1,.24-.48c-.11.1-.09.22.06.31l7.79,4.49A.57.57,0,0,0,168,440.36Z" style="fill:#263238"></path><path d="M159.87,435.44l37.63-21.72a.62.62,0,0,1,.59,0l7.8,4.5a.18.18,0,0,1,0,.34l-37.63,21.72a.62.62,0,0,1-.59,0l-7.8-4.49A.19.19,0,0,1,159.87,435.44Z" style="fill:#455a64"></path><polygon points="163.31 435.61 167.97 438.3 172.63 435.61 167.97 432.92 163.31 435.61" style="fill:#FF7400"></polygon><polygon points="175.24 428.73 179.9 431.42 184.56 428.72 179.9 426.03 175.24 428.73" style="fill:#FF7400"></polygon><polygon points="175.24 428.73 179.9 431.42 184.56 428.72 179.9 426.03 175.24 428.73" style="fill:#fff;opacity:0.4"></polygon><polygon points="181.2 425.28 185.86 427.97 190.52 425.28 185.86 422.59 181.2 425.28" style="fill:#FF7400"></polygon><polygon points="181.2 425.28 185.86 427.97 190.52 425.28 185.86 422.59 181.2 425.28" style="fill:#fff;opacity:0.6000000000000001"></polygon><polygon points="187.17 421.84 191.83 424.53 196.49 421.83 191.83 419.14 187.17 421.84" style="fill:#FF7400"></polygon><polygon points="187.17 421.84 191.83 424.53 196.49 421.83 191.83 419.14 187.17 421.84" style="fill:#fff;opacity:0.8"></polygon><polygon points="193.13 418.39 197.79 421.08 202.46 418.39 197.79 415.7 193.13 418.39" style="fill:#FF7400"></polygon><polygon points="193.13 418.39 197.79 421.08 202.46 418.39 197.79 415.7 193.13 418.39" style="fill:#fff"></polygon><polygon points="169.27 432.17 173.93 434.86 178.59 432.17 173.93 429.48 169.27 432.17" style="fill:#FF7400"></polygon><polygon points="169.27 432.17 173.93 434.86 178.59 432.17 173.93 429.48 169.27 432.17" style="fill:#fff;opacity:0.2"></polygon><path d="M162.21,435.34a.29.29,0,0,1,0,.55,1.06,1.06,0,0,1-1,0,.29.29,0,0,1,0-.55A1.06,1.06,0,0,1,162.21,435.34Z" style="fill:#263238"></path><path d="M161.85,435.23a4.38,4.38,0,1,0-4,6.11,4.32,4.32,0,0,0,2.35-.69l-.24-.52a.14.14,0,0,1,0-.06V440a3.69,3.69,0,1,1,1.25-4.6,3.5,3.5,0,0,1,.2.54,1.11,1.11,0,0,0,.72,0A4.56,4.56,0,0,0,161.85,435.23Z" style="fill:#e0e0e0"></path></g></g><g id="freepik--Gears--inject-25"><g id="freepik--Gear--inject-25"><path d="M135.47,392.3l-4.07.7a1.67,1.67,0,0,0-1.35-.06l-6.16,4.67a1.57,1.57,0,0,1-1.32-.09,20.18,20.18,0,0,0-5.13-2.32,1.22,1.22,0,0,1-.88-.9l-.51-2.66a1,1,0,0,0-.9-.74h-8.92a1,1,0,0,0-.9.74l-.46,2.49a1.24,1.24,0,0,1-.89.89,14.3,14.3,0,0,0-5.22,2.43,1.37,1.37,0,0,1-1.27.16l-6.14-4.67A1.65,1.65,0,0,0,90,393l-6.35.47,0,5.26h0a.47.47,0,0,0,.24.41l4.81,3.46a.65.65,0,0,1,.09,1A11.9,11.9,0,0,0,87.07,406a1.51,1.51,0,0,1-1.09.73l-8.08-1.31a.82.82,0,0,0-.75.81l0,6.33a.82.82,0,0,0,.76.8l8.09.51a1.51,1.51,0,0,1,1.09.73c.18.33.39.66.61,1l-4,1,0,5.27h0a.49.49,0,0,0,.28.41l6.07,3.5a1.61,1.61,0,0,0,1.34.06l6.15-2.85a2.27,2.27,0,0,1,1.41-.08,36.45,36.45,0,0,0,4.77,1.13,1.18,1.18,0,0,1,.89.87l.77,4a1,1,0,0,0,.9.74h8.92a1,1,0,0,0,.9-.74l.77-4a1.18,1.18,0,0,1,.89-.87,36.45,36.45,0,0,0,4.77-1.13,2.27,2.27,0,0,1,1.41.08l6.15,2.85a1.63,1.63,0,0,0,1.35-.06l6.06-3.5a.51.51,0,0,0,.29-.4h0v-5.28l-4.28-.65a10.44,10.44,0,0,0,.84-1.32,1.51,1.51,0,0,1,1.1-.73l8.08-.51a.82.82,0,0,0,.76-.8V406.2a.82.82,0,0,0-.76-.81l-8.08-.51a1.48,1.48,0,0,1-1.09-.72c-.45-.82-1,.2-1.73-.57a.64.64,0,0,1,.09-1l4.8-3.46a.51.51,0,0,0,.25-.4h0v-5.27ZM121,402.54c5.67,3.26,6,7.42.35,10.69s-14.94,3.32-20.6,0-5.91-7.48-.25-10.74S115.29,399.27,121,402.54Z" style="fill:#FF7400"></path><path d="M135.47,392.3l-4.07.7a1.67,1.67,0,0,0-1.35-.06l-6.16,4.67a1.57,1.57,0,0,1-1.32-.09,20.18,20.18,0,0,0-5.13-2.32,1.22,1.22,0,0,1-.88-.9l-.51-2.66a1,1,0,0,0-.9-.74h-8.92a1,1,0,0,0-.9.74l-.46,2.49a1.24,1.24,0,0,1-.89.89,14.3,14.3,0,0,0-5.22,2.43,1.37,1.37,0,0,1-1.27.16l-6.14-4.67A1.65,1.65,0,0,0,90,393l-6.35.47,0,5.26h0a.47.47,0,0,0,.24.41l4.81,3.46a.65.65,0,0,1,.09,1A11.9,11.9,0,0,0,87.07,406a1.51,1.51,0,0,1-1.09.73l-8.08-1.31a.82.82,0,0,0-.75.81l0,6.33a.82.82,0,0,0,.76.8l8.09.51a1.51,1.51,0,0,1,1.09.73c.18.33.39.66.61,1l-4,1,0,5.27h0a.49.49,0,0,0,.28.41l6.07,3.5a1.61,1.61,0,0,0,1.34.06l6.15-2.85a2.27,2.27,0,0,1,1.41-.08,36.45,36.45,0,0,0,4.77,1.13,1.18,1.18,0,0,1,.89.87l.77,4a1,1,0,0,0,.9.74h8.92a1,1,0,0,0,.9-.74l.77-4a1.18,1.18,0,0,1,.89-.87,36.45,36.45,0,0,0,4.77-1.13,2.27,2.27,0,0,1,1.41.08l6.15,2.85a1.63,1.63,0,0,0,1.35-.06l6.06-3.5a.51.51,0,0,0,.29-.4h0v-5.28l-4.28-.65a10.44,10.44,0,0,0,.84-1.32,1.51,1.51,0,0,1,1.1-.73l8.08-.51a.82.82,0,0,0,.76-.8V406.2a.82.82,0,0,0-.76-.81l-8.08-.51a1.48,1.48,0,0,1-1.09-.72c-.45-.82-1,.2-1.73-.57a.64.64,0,0,1,.09-1l4.8-3.46a.51.51,0,0,0,.25-.4h0v-5.27ZM121,402.54c5.67,3.26,6,7.42.35,10.69s-14.94,3.32-20.6,0-5.91-7.48-.25-10.74S115.29,399.27,121,402.54Z" style="fill:#fff;opacity:0.30000000000000004"></path><path d="M93,397.79l-1.22,9.52-.4,8.47-6.52-.08,2.81-.14c-.22-.33-.43-.66-.61-1a1.51,1.51,0,0,0-1.09-.73l-8.09-.51a.82.82,0,0,1-.76-.8l0-6.33a.82.82,0,0,1,.75-.81L86,406.7a1.51,1.51,0,0,0,1.09-.73,11.9,11.9,0,0,1,1.72-2.38.65.65,0,0,0-.09-1l-4.81-3.46a.47.47,0,0,1-.24-.41h0l0-5.26,3-.22Z" style="opacity:0.1"></path><path d="M118.63,396.3l10.15,5.86,1.15,6.38-4.59,0c.3-2.09-1.2-4.21-4.39-6-5.66-3.27-14.84-3.27-20.5,0-3.32,1.91-4.59,4.15-4,6.33l-3.33,0s1.93-8.5,5.23-11S118.63,396.3,118.63,396.3Z" style="opacity:0.1"></path><path d="M140.83,405.22l2.67.17a.82.82,0,0,1,.76.81v6.33a.82.82,0,0,1-.76.8l-8.08.51a1.15,1.15,0,0,0-.4.12v-7.62Z" style="fill:#FF7400"></path><path d="M98.1,422.79a1.88,1.88,0,0,0-.61.14l-6.15,2.85a1.58,1.58,0,0,1-.55.11l0-5.72,7.3-4.28Z" style="fill:#FF7400"></path><path d="M115.93,429.19a.93.93,0,0,1-.78.45h-8.92a.91.91,0,0,1-.54-.19v-6.26L115.91,422Z" style="fill:#FF7400"></path><path d="M130.45,425.88v-7.31l5.41-3.12,1.88,1.09v5.28h0a.51.51,0,0,1-.29.4l-6.06,3.5A1.56,1.56,0,0,1,130.45,425.88Z" style="fill:#FF7400"></path><path d="M137.75,393.47h0a.48.48,0,0,1-.24.42l-4.81,3.46a.63.63,0,0,0-.09,1c.48.53,1.42,2.55,2.1,2.82l2.78-2a.5.5,0,0,0,.24-.41h0Z" style="fill:#FF7400"></path><g style="opacity:0.7000000000000001"><path d="M140.83,405.22l2.67.17a.82.82,0,0,1,.76.81v6.33a.82.82,0,0,1-.76.8l-8.08.51a1.15,1.15,0,0,0-.4.12v-7.62Z" style="fill:#fff"></path><path d="M135.39,413.55l8.08-.52a.51.51,0,0,0,.48-.5V406.2a.53.53,0,0,0-.47-.51l-2.64-.17-5.53,1.07v7Z" style="fill:#fff"></path><path d="M98.1,422.79a1.88,1.88,0,0,0-.61.14l-6.15,2.85a1.58,1.58,0,0,1-.55.11l0-5.72,7.3-4.28Z" style="fill:#fff"></path><path d="M91.21,425.51l6.15-2.85a1.75,1.75,0,0,1,.44-.13v-6.12l-6.71,3.93v5.21Z" style="fill:#fff"></path><path d="M115.93,429.19a.93.93,0,0,1-.78.45h-8.92a.91.91,0,0,1-.54-.19v-6.26L115.91,422Z" style="fill:#fff"></path><path d="M130.45,425.88v-7.31l5.41-3.12,1.88,1.09v5.28h0a.51.51,0,0,1-.29.4l-6.06,3.5A1.56,1.56,0,0,1,130.45,425.88Z" style="fill:#fff"></path><path d="M131.24,425.46l6.06-3.5c.09,0,.14-.11.14-.14v-5.11l-1.58-.91-5.11,2.94v6.85A1.18,1.18,0,0,0,131.24,425.46Z" style="fill:#fff"></path><path d="M137.75,393.47h0a.48.48,0,0,1-.24.42l-4.81,3.46a.63.63,0,0,0-.09,1c.48.53,1.46,2.59,2.1,2.82l2.78-2a.5.5,0,0,0,.24-.41h0Z" style="fill:#fff"></path><path d="M137.32,398.9c.09-.06.12-.12.12-.16v-.51h0v-3.94l-4.58,3.3a.33.33,0,0,0-.15.25.38.38,0,0,0,.11.29,9,9,0,0,1,.71,1.06,8.08,8.08,0,0,0,1.15,1.6Z" style="fill:#fff"></path></g><path d="M130.06,389.5l-6.15,2.85a2.27,2.27,0,0,1-1.41.08,36.22,36.22,0,0,0-4.78-1.13,1.18,1.18,0,0,1-.89-.87l-.77-4.05a.94.94,0,0,0-.89-.74h-8.93a.94.94,0,0,0-.89.74l-.77,4.05a1.18,1.18,0,0,1-.89.87,36.6,36.6,0,0,0-4.78,1.13,2.27,2.27,0,0,1-1.41-.08l-6.15-2.85a1.61,1.61,0,0,0-1.34.06l-6.07,3.5a.45.45,0,0,0,0,.82l4.81,3.46a.65.65,0,0,1,.09,1,12.75,12.75,0,0,0-1.72,2.38,1.49,1.49,0,0,1-1.09.73L77.9,402a.82.82,0,0,0-.75.8v4.52a.82.82,0,0,0,.75.8l8.09.51a1.49,1.49,0,0,1,1.09.73,12.75,12.75,0,0,0,1.72,2.38.65.65,0,0,1-.09,1l-4.81,3.46a.45.45,0,0,0,0,.82l6.07,3.5a1.61,1.61,0,0,0,1.34.06l6.15-2.85a2.27,2.27,0,0,1,1.41-.08,36.6,36.6,0,0,0,4.78,1.13,1.18,1.18,0,0,1,.89.87l.77,4.05a.94.94,0,0,0,.89.74h8.93a.94.94,0,0,0,.89-.74l.77-4.05a1.18,1.18,0,0,1,.89-.87,36.6,36.6,0,0,0,4.78-1.13,2.27,2.27,0,0,1,1.41.08l6.15,2.85a1.61,1.61,0,0,0,1.34-.06l6.07-3.5a.45.45,0,0,0,0-.82l-4.81-3.46a.65.65,0,0,1-.09-1,12.75,12.75,0,0,0,1.72-2.38,1.49,1.49,0,0,1,1.09-.73l8.09-.51a.82.82,0,0,0,.75-.8v-4.52a.82.82,0,0,0-.75-.8l-8.09-.51a1.49,1.49,0,0,1-1.09-.73,12.75,12.75,0,0,0-1.72-2.38.65.65,0,0,1,.09-1l4.81-3.46a.45.45,0,0,0,0-.82l-6.07-3.5A1.61,1.61,0,0,0,130.06,389.5Zm-9.1,9.59c5.66,3.27,5.66,8.57,0,11.84s-14.84,3.27-20.51,0-5.66-8.57,0-11.84S115.29,395.82,121,399.09Z" style="fill:#FF7400"></path><g style="opacity:0.55"><path d="M130.06,389.5l-6.15,2.85a2.27,2.27,0,0,1-1.41.08,36.22,36.22,0,0,0-4.78-1.13,1.18,1.18,0,0,1-.89-.87l-.77-4.05a.94.94,0,0,0-.89-.74h-8.93a.94.94,0,0,0-.89.74l-.77,4.05a1.18,1.18,0,0,1-.89.87,36.6,36.6,0,0,0-4.78,1.13,2.27,2.27,0,0,1-1.41-.08l-6.15-2.85a1.61,1.61,0,0,0-1.34.06l-6.07,3.5a.45.45,0,0,0,0,.82l4.81,3.46a.65.65,0,0,1,.09,1,12.75,12.75,0,0,0-1.72,2.38,1.49,1.49,0,0,1-1.09.73L77.9,402a.82.82,0,0,0-.75.8v4.52a.82.82,0,0,0,.75.8l8.09.51a1.49,1.49,0,0,1,1.09.73,12.75,12.75,0,0,0,1.72,2.38.65.65,0,0,1-.09,1l-4.81,3.46a.45.45,0,0,0,0,.82l6.07,3.5a1.61,1.61,0,0,0,1.34.06l6.15-2.85a2.27,2.27,0,0,1,1.41-.08,36.6,36.6,0,0,0,4.78,1.13,1.18,1.18,0,0,1,.89.87l.77,4.05a.94.94,0,0,0,.89.74h8.93a.94.94,0,0,0,.89-.74l.77-4.05a1.18,1.18,0,0,1,.89-.87,36.6,36.6,0,0,0,4.78-1.13,2.27,2.27,0,0,1,1.41.08l6.15,2.85a1.61,1.61,0,0,0,1.34-.06l6.07-3.5a.45.45,0,0,0,0-.82l-4.81-3.46a.65.65,0,0,1-.09-1,12.75,12.75,0,0,0,1.72-2.38,1.49,1.49,0,0,1,1.09-.73l8.09-.51a.82.82,0,0,0,.75-.8v-4.52a.82.82,0,0,0-.75-.8l-8.09-.51a1.49,1.49,0,0,1-1.09-.73,12.75,12.75,0,0,0-1.72-2.38.65.65,0,0,1,.09-1l4.81-3.46a.45.45,0,0,0,0-.82l-6.07-3.5A1.61,1.61,0,0,0,130.06,389.5Zm-9.1,9.59c5.66,3.27,5.66,8.57,0,11.84s-14.84,3.27-20.51,0-5.66-8.57,0-11.84S115.29,395.82,121,399.09Z" style="fill:#fff"></path></g><g style="opacity:0.2"><path d="M96.69,402.21a5.59,5.59,0,0,0-.78,2.8c0,2.35,1.56,4.54,4.39,6.18,5.74,3.31,15.07,3.31,20.81,0,2.83-1.64,4.39-3.83,4.39-6.18s-1.56-4.54-4.39-6.18c-5.74-3.31-15.07-3.31-20.8,0A9.53,9.53,0,0,0,96.69,402.21Zm3.76-3.12c5.67-3.27,14.84-3.27,20.51,0s5.66,8.57,0,11.84-14.84,3.27-20.51,0S94.79,402.36,100.45,399.09Z" style="fill:#fff"></path><path d="M77.9,408.07l8.09.51a1.49,1.49,0,0,1,1.09.73,12.75,12.75,0,0,0,1.72,2.38.65.65,0,0,1-.09,1l-4.81,3.46a.45.45,0,0,0,0,.82l6.07,3.5a1.61,1.61,0,0,0,1.34.06l6.15-2.85a2.27,2.27,0,0,1,1.41-.08,36.6,36.6,0,0,0,4.78,1.13,1.18,1.18,0,0,1,.89.87l.77,4.05a.94.94,0,0,0,.89.74h8.93a.94.94,0,0,0,.89-.74l.77-4.05a1.18,1.18,0,0,1,.89-.87,36.6,36.6,0,0,0,4.78-1.13,2.27,2.27,0,0,1,1.41.08l6.15,2.85a1.61,1.61,0,0,0,1.34-.06l6.07-3.5a.45.45,0,0,0,0-.82l-4.81-3.46a.65.65,0,0,1-.09-1,12.75,12.75,0,0,0,1.72-2.38,1.49,1.49,0,0,1,1.09-.73l8.09-.51a.82.82,0,0,0,.75-.8v-4.52a.82.82,0,0,0-.75-.8l-8.09-.51a1.49,1.49,0,0,1-1.09-.73,12.75,12.75,0,0,0-1.72-2.38.65.65,0,0,1,.09-1l4.81-3.46a.45.45,0,0,0,0-.82l-6.07-3.5a1.61,1.61,0,0,0-1.34-.06l-6.15,2.85a2.27,2.27,0,0,1-1.41.08,36.22,36.22,0,0,0-4.78-1.13,1.18,1.18,0,0,1-.89-.87l-.77-4.05a.94.94,0,0,0-.89-.74h-8.93a.94.94,0,0,0-.89.74l-.77,4.05a1.18,1.18,0,0,1-.89.87,36.6,36.6,0,0,0-4.78,1.13,2.27,2.27,0,0,1-1.41-.08l-6.15-2.85a1.61,1.61,0,0,0-1.34.06l-6.07,3.5a.45.45,0,0,0,0,.82l4.81,3.46a.65.65,0,0,1,.09,1,12.75,12.75,0,0,0-1.72,2.38,1.49,1.49,0,0,1-1.09.73L77.9,402a.82.82,0,0,0-.75.8v4.52A.82.82,0,0,0,77.9,408.07Zm-.45-.8v-4.52a.51.51,0,0,1,.47-.5l8.09-.52a1.77,1.77,0,0,0,1.33-.88A12,12,0,0,1,89,398.53a1,1,0,0,0,.26-.76.92.92,0,0,0-.4-.67l-4.8-3.46c-.08-.05-.13-.12-.12-.17s.05-.1.13-.15l6.07-3.5a1.33,1.33,0,0,1,1.07-.05l6.15,2.85a2.64,2.64,0,0,0,1.62.1,35.7,35.7,0,0,1,4.74-1.13,1.46,1.46,0,0,0,1.13-1.1l.77-4.05a.65.65,0,0,1,.6-.51h8.93a.65.65,0,0,1,.6.51l.77,4.05a1.46,1.46,0,0,0,1.13,1.1,35.7,35.7,0,0,1,4.74,1.13,2.56,2.56,0,0,0,1.62-.1l6.15-2.85a1.33,1.33,0,0,1,1.07.05l6.07,3.5c.08.05.13.11.13.15s0,.12-.11.17l-4.81,3.46a.94.94,0,0,0-.14,1.43,12,12,0,0,1,1.68,2.32,1.77,1.77,0,0,0,1.33.88l8.09.52a.51.51,0,0,1,.47.5v4.52a.5.5,0,0,1-.47.5l-8.09.52a1.76,1.76,0,0,0-1.33.88,12,12,0,0,1-1.68,2.32,1,1,0,0,0-.26.76.92.92,0,0,0,.4.67l4.8,3.46c.08.05.13.12.12.17s0,.1-.13.15l-6.07,3.5a1.33,1.33,0,0,1-1.07.05L124,417.4a2.56,2.56,0,0,0-1.62-.1,36.07,36.07,0,0,1-4.74,1.13,1.48,1.48,0,0,0-1.13,1.1l-.77,4.06a.65.65,0,0,1-.6.5h-8.93a.65.65,0,0,1-.6-.5l-.77-4.06a1.46,1.46,0,0,0-1.13-1.1A36.07,36.07,0,0,1,99,417.3a2.56,2.56,0,0,0-1.62.1l-6.15,2.85a1.33,1.33,0,0,1-1.07-.05l-6.07-3.5c-.08-.05-.13-.1-.13-.15s0-.12.12-.17l4.8-3.46a1.06,1.06,0,0,0,.29-.31.89.89,0,0,0,.11-.36,1,1,0,0,0-.26-.76,12,12,0,0,1-1.68-2.32,1.77,1.77,0,0,0-1.33-.88l-8.09-.52A.51.51,0,0,1,77.45,407.27Z" style="fill:#fff"></path></g></g><g id="freepik--gear--inject-25"><path d="M186.91,372.52,183.34,374a2.08,2.08,0,0,0-1.27-.1l-4.34,1.36a3,3,0,0,1-1.85-.12,23.58,23.58,0,0,0-2.32-.85,1.23,1.23,0,0,1-.84-1.26l.26-2.12a1,1,0,0,0-.87-1.09l-5.58-.58a1.55,1.55,0,0,0-1.44.78L164,372.15c-.25.49-1,.41-1.6.45-1,.07-1.78.69-2.73.85a2.86,2.86,0,0,1-1.81-.36l-3-2a2.07,2.07,0,0,0-1.75-.18l-1.44.58-3.48-2.82v4.62h0a.75.75,0,0,0,.22.51l2,2.15a.86.86,0,0,1-.12,1.31,10.85,10.85,0,0,0-1.22,1.09,2.5,2.5,0,0,1-1.65.7l-4.09-.58-3.12-.55v4.61h0a.83.83,0,0,0,.72.8l4.85.83A1.64,1.64,0,0,1,147,385.3a7.57,7.57,0,0,0,.37,1,1,1,0,0,1-.41,1.32l-4-2.24V390h0a.65.65,0,0,0,.28.5l2.84,2.38a2,2,0,0,0,1.71.33l4.35-1.36a3.13,3.13,0,0,1,1.84.12,20.72,20.72,0,0,0,2.33.86,1.21,1.21,0,0,1,.57.4v3.11h0a1,1,0,0,0,.87.95l5.57.58a1.54,1.54,0,0,0,1.44-.78l1.12-2.16a2,2,0,0,1,1.44-.95c1-.07,1.94-.19,2.89-.35a2.75,2.75,0,0,1,1.8.36l3,2a2.15,2.15,0,0,0,1.75.18l4.47-1.79a.66.66,0,0,0,.46-.59h0v-4.6a5.31,5.31,0,0,0-1-.34l.11-.11a2.5,2.5,0,0,1,1.65-.7l5.1.2a1.36,1.36,0,0,0,1.29-.9l.77-2.47a.9.9,0,0,0,0-.28h0V380l-5.57,2.92a1.69,1.69,0,0,1-1.19-1.14,7,7,0,0,0-.36-1,1,1,0,0,1,.41-1.32l3.58-1.8a.63.63,0,0,0,.4-.56h0ZM173.69,380c3.35,2.79,1.92,5.77-2.92,7.7s-11.25,2.11-14.6-.68-2.16-6.63,2.68-8.57S170.33,377.22,173.69,380Z" style="fill:#FF7400"></path><path d="M186.91,372.52,183.34,374a2.08,2.08,0,0,0-1.27-.1l-4.34,1.36a3,3,0,0,1-1.85-.12,23.58,23.58,0,0,0-2.32-.85,1.23,1.23,0,0,1-.84-1.26l.26-2.12a1,1,0,0,0-.87-1.09l-5.58-.58a1.55,1.55,0,0,0-1.44.78L164,372.15c-.25.49-1,.41-1.6.45-1,.07-1.78.69-2.73.85a2.86,2.86,0,0,1-1.81-.36l-3-2a2.07,2.07,0,0,0-1.75-.18l-1.44.58-3.48-2.82v4.62h0a.75.75,0,0,0,.22.51l2,2.15a.86.86,0,0,1-.12,1.31,10.85,10.85,0,0,0-1.22,1.09,2.5,2.5,0,0,1-1.65.7l-4.09-.58-3.12-.55v4.61h0a.83.83,0,0,0,.72.8l4.85.83A1.64,1.64,0,0,1,147,385.3a7.57,7.57,0,0,0,.37,1,1,1,0,0,1-.41,1.32l-4-2.24V390h0a.65.65,0,0,0,.28.5l2.84,2.38a2,2,0,0,0,1.71.33l4.35-1.36a3.13,3.13,0,0,1,1.84.12,20.72,20.72,0,0,0,2.33.86,1.21,1.21,0,0,1,.57.4v3.11h0a1,1,0,0,0,.87.95l5.57.58a1.54,1.54,0,0,0,1.44-.78l1.12-2.16a2,2,0,0,1,1.44-.95c1-.07,1.94-.19,2.89-.35a2.75,2.75,0,0,1,1.8.36l3,2a2.15,2.15,0,0,0,1.75.18l4.47-1.79a.66.66,0,0,0,.46-.59h0v-4.6a5.31,5.31,0,0,0-1-.34l.11-.11a2.5,2.5,0,0,1,1.65-.7l5.1.2a1.36,1.36,0,0,0,1.29-.9l.77-2.47a.9.9,0,0,0,0-.28h0V380l-5.57,2.92a1.69,1.69,0,0,1-1.19-1.14,7,7,0,0,0-.36-1,1,1,0,0,1,.41-1.32l3.58-1.8a.63.63,0,0,0,.4-.56h0ZM173.69,380c3.35,2.79,1.92,5.77-2.92,7.7s-11.25,2.11-14.6-.68-2.16-6.63,2.68-8.57S170.33,377.22,173.69,380Z" style="fill:#fff;opacity:0.30000000000000004"></path><path d="M178.08,377.3l-.39,5.47-2.2.06a4.46,4.46,0,0,0-1.8-2.82c-3.36-2.79-10-3.49-14.84-1.55-2.9,1.16-4.48,3-4.57,4.89l-.84,0s-2.3-4.58.14-7.2a13.56,13.56,0,0,1,4.55-2.94,2.9,2.9,0,0,0,1.52.22c.95-.16,1.76-.78,2.73-.85.55,0,1.35,0,1.6-.45l.17-.33a11.66,11.66,0,0,1,2.23.11C170.86,372.64,178.08,377.3,178.08,377.3Z" style="opacity:0.1"></path><path d="M152.08,391.82l-4.3,1.34a1.9,1.9,0,0,1-1.08,0v-5.68l.23.13a1,1,0,0,0,.41-1.32h0l4.74-2.74Z" style="fill:#FF7400"></path><path d="M164.28,389.12a20.73,20.73,0,0,0,2.07-.21v5.45a1.57,1.57,0,0,0-.47.53l-1.12,2.16a1.49,1.49,0,0,1-.82.69v-8.39Z" style="fill:#FF7400"></path><path d="M186.92,372.52a.65.65,0,0,1-.41.55l-3.58,1.8a1,1,0,0,0-.41,1.31,6,6,0,0,1,.36,1,1.67,1.67,0,0,0,1.19,1.13l.9.16,1.53-.77a.67.67,0,0,0,.41-.57h0Z" style="fill:#FF7400"></path><path d="M182.82,381.58a.76.76,0,0,1,.06.16,1.69,1.69,0,0,0,1.19,1.14l5.57-2.92v4.58h0a.9.9,0,0,1,0,.28l-.77,2.47a1.36,1.36,0,0,1-1.29.9l-5.1-.2a2.15,2.15,0,0,0-.8.16V382Z" style="fill:#FF7400"></path><path d="M175.59,396.16v-5.68l5.24-1.65a6.9,6.9,0,0,1,.86.31v4.6h0a.66.66,0,0,1-.46.59l-4.47,1.79A2.09,2.09,0,0,1,175.59,396.16Z" style="fill:#FF7400"></path><g style="opacity:0.7000000000000001"><path d="M152.08,391.82l-4.3,1.34a1.9,1.9,0,0,1-1.08,0v-5.68l.23.13a1,1,0,0,0,.41-1.32h0l4.74-2.74Z" style="fill:#fff"></path><path d="M147.11,387.93h0v4.89a1.36,1.36,0,0,0,.58,0l4-1.26v-7.34l-3.88,2.24a1.43,1.43,0,0,1-.15,1A1.38,1.38,0,0,1,147.11,387.93Z" style="fill:#fff"></path><path d="M164.28,389.12a20.73,20.73,0,0,0,2.07-.21v5.45a1.57,1.57,0,0,0-.47.53l-1.12,2.16a1.49,1.49,0,0,1-.82.69v-8.39Z" style="fill:#fff"></path><path d="M164.42,396.87l1.11-2.16a1.89,1.89,0,0,1,.43-.54v-4.81c-.52.07-1,.12-1.55.14l-.07.06V397A.57.57,0,0,0,164.42,396.87Z" style="fill:#fff"></path><path d="M186.92,372.52a.65.65,0,0,1-.41.55l-3.58,1.8a1,1,0,0,0-.41,1.31,6,6,0,0,1,.36,1,1.67,1.67,0,0,0,1.19,1.13l.9.16,1.53-.77a.67.67,0,0,0,.41-.57h0Z" style="fill:#fff"></path><path d="M186.32,377.32c.13-.06.2-.15.2-.21v-.69h0v-2.93l-3.43,1.72a.6.6,0,0,0-.23.81,6.21,6.21,0,0,1,.39,1,1.27,1.27,0,0,0,.87.86l.78.13Z" style="fill:#fff"></path><path d="M182.82,381.58a.76.76,0,0,1,.06.16,1.69,1.69,0,0,0,1.19,1.14l5.57-2.92v4.58h0a.9.9,0,0,1,0,.28l-.77,2.47a1.36,1.36,0,0,1-1.29.9l-5.1-.2a2.15,2.15,0,0,0-.8.16V382Z" style="fill:#fff"></path><path d="M182.45,387.6l5.1.2a1,1,0,0,0,.9-.63l.78-2.46a.79.79,0,0,0,0-.17V380.6l-5.12,2.68-.13,0a2,2,0,0,1-1.41-1.2l-.56.19v5.38A2.08,2.08,0,0,1,182.45,387.6Z" style="fill:#fff"></path><path d="M175.59,396.16v-5.68l5.24-1.65a6.9,6.9,0,0,1,.86.31v4.6h0a.66.66,0,0,1-.46.59l-4.47,1.79A2.09,2.09,0,0,1,175.59,396.16Z" style="fill:#fff"></path><path d="M176.62,395.76l4.46-1.79c.08,0,.22-.11.22-.23v-.92h0V389.4l-.47-.16L176,390.77v5.06A1.59,1.59,0,0,0,176.62,395.76Z" style="fill:#fff"></path></g><path d="M182.07,369.28l-4.34,1.36a3.09,3.09,0,0,1-1.85-.12,23.61,23.61,0,0,0-2.32-.86,1.21,1.21,0,0,1-.84-1.26l.26-2.12a1,1,0,0,0-.87-1.09l-5.58-.58a1.57,1.57,0,0,0-1.44.78L164,367.56a2,2,0,0,1-1.44.94,27.48,27.48,0,0,0-2.89.36,2.93,2.93,0,0,1-1.81-.36l-3-2a2.14,2.14,0,0,0-1.75-.18l-4.46,1.79a.63.63,0,0,0-.24,1.09l2,2.16a.85.85,0,0,1-.12,1.3,11.92,11.92,0,0,0-1.22,1.09,2.45,2.45,0,0,1-1.65.7l-5.1-.2a1.36,1.36,0,0,0-1.29.91l-.77,2.46a.85.85,0,0,0,.68,1.12l4.85.83A1.64,1.64,0,0,1,147,380.7a7.15,7.15,0,0,0,.37,1,1,1,0,0,1-.41,1.31l-3.58,1.8a.6.6,0,0,0-.12,1.08l2.85,2.37a2,2,0,0,0,1.71.34l4.34-1.36a3,3,0,0,1,1.84.12,23.8,23.8,0,0,0,2.33.86,1.22,1.22,0,0,1,.84,1.26l-.26,2.12a1,1,0,0,0,.87,1.08l5.58.59a1.59,1.59,0,0,0,1.44-.78l1.11-2.17a1.94,1.94,0,0,1,1.44-.94,27.82,27.82,0,0,0,2.89-.36,2.88,2.88,0,0,1,1.8.36l3,2a2.15,2.15,0,0,0,1.75.18l4.47-1.79a.63.63,0,0,0,.24-1.09l-2-2.16a.86.86,0,0,1,.13-1.3,13.09,13.09,0,0,0,1.22-1.09,2.46,2.46,0,0,1,1.65-.71l5.1.21a1.37,1.37,0,0,0,1.29-.91l.77-2.46a.85.85,0,0,0-.68-1.12l-4.85-.83a1.67,1.67,0,0,1-1.19-1.13,6,6,0,0,0-.36-1,1,1,0,0,1,.41-1.31l3.58-1.8a.6.6,0,0,0,.12-1.08l-2.85-2.37A2,2,0,0,0,182.07,369.28Zm-8.38,6.14c3.36,2.79,2.15,6.62-2.68,8.56s-11.49,1.25-14.84-1.55-2.16-6.63,2.68-8.56S170.33,372.62,173.69,375.42Z" style="fill:#FF7400"></path><g style="opacity:0.55"><path d="M182.07,369.28l-4.34,1.36a3.09,3.09,0,0,1-1.85-.12,23.61,23.61,0,0,0-2.32-.86,1.21,1.21,0,0,1-.84-1.26l.26-2.12a1,1,0,0,0-.87-1.09l-5.58-.58a1.57,1.57,0,0,0-1.44.78L164,367.56a2,2,0,0,1-1.44.94,27.48,27.48,0,0,0-2.89.36,2.93,2.93,0,0,1-1.81-.36l-3-2a2.14,2.14,0,0,0-1.75-.18l-4.46,1.79a.63.63,0,0,0-.24,1.09l2,2.16a.85.85,0,0,1-.12,1.3,11.92,11.92,0,0,0-1.22,1.09,2.45,2.45,0,0,1-1.65.7l-5.1-.2a1.36,1.36,0,0,0-1.29.91l-.77,2.46a.85.85,0,0,0,.68,1.12l4.85.83A1.64,1.64,0,0,1,147,380.7a7.15,7.15,0,0,0,.37,1,1,1,0,0,1-.41,1.31l-3.58,1.8a.6.6,0,0,0-.12,1.08l2.85,2.37a2,2,0,0,0,1.71.34l4.34-1.36a3,3,0,0,1,1.84.12,23.8,23.8,0,0,0,2.33.86,1.22,1.22,0,0,1,.84,1.26l-.26,2.12a1,1,0,0,0,.87,1.08l5.58.59a1.59,1.59,0,0,0,1.44-.78l1.11-2.17a1.94,1.94,0,0,1,1.44-.94,27.82,27.82,0,0,0,2.89-.36,2.88,2.88,0,0,1,1.8.36l3,2a2.15,2.15,0,0,0,1.75.18l4.47-1.79a.63.63,0,0,0,.24-1.09l-2-2.16a.86.86,0,0,1,.13-1.3,13.09,13.09,0,0,0,1.22-1.09,2.46,2.46,0,0,1,1.65-.71l5.1.21a1.37,1.37,0,0,0,1.29-.91l.77-2.46a.85.85,0,0,0-.68-1.12l-4.85-.83a1.67,1.67,0,0,1-1.19-1.13,6,6,0,0,0-.36-1,1,1,0,0,1,.41-1.31l3.58-1.8a.6.6,0,0,0,.12-1.08l-2.85-2.37A2,2,0,0,0,182.07,369.28Zm-8.38,6.14c3.36,2.79,2.15,6.62-2.68,8.56s-11.49,1.25-14.84-1.55-2.16-6.63,2.68-8.56S170.33,372.62,173.69,375.42Z" style="fill:#fff"></path></g><g style="opacity:0.2"><path d="M153.92,378.31a4.8,4.8,0,0,0,2,4.42c3.45,2.87,10.28,3.6,15.23,1.61,2.73-1.09,4.47-2.84,4.78-4.8a4.78,4.78,0,0,0-2-4.42c-3.45-2.88-10.28-3.6-15.23-1.62a8.26,8.26,0,0,0-4.23,3.28A4.43,4.43,0,0,0,153.92,378.31Zm4.93-4.44c4.84-1.94,11.48-1.25,14.84,1.55S175.84,382,171,384s-11.49,1.25-14.84-1.55S154,375.8,158.85,373.87Z" style="fill:#fff"></path><path d="M140.26,377.62a.85.85,0,0,0,.68,1.12l4.85.83A1.64,1.64,0,0,1,147,380.7a7.15,7.15,0,0,0,.37,1,1,1,0,0,1-.41,1.31l-3.58,1.8a.6.6,0,0,0-.12,1.08l2.85,2.37a2,2,0,0,0,1.71.34l4.34-1.36a3,3,0,0,1,1.84.12,23.8,23.8,0,0,0,2.33.86,1.22,1.22,0,0,1,.84,1.26l-.26,2.12a1,1,0,0,0,.87,1.08l5.58.59a1.59,1.59,0,0,0,1.44-.78l1.11-2.17a1.94,1.94,0,0,1,1.44-.94,27.82,27.82,0,0,0,2.89-.36,2.88,2.88,0,0,1,1.8.36l3,2a2.15,2.15,0,0,0,1.75.18l4.47-1.79a.63.63,0,0,0,.24-1.09l-2-2.16a.86.86,0,0,1,.13-1.3,13.09,13.09,0,0,0,1.22-1.09,2.46,2.46,0,0,1,1.65-.71l5.1.21a1.37,1.37,0,0,0,1.29-.91l.77-2.46a.85.85,0,0,0-.68-1.12l-4.85-.83a1.67,1.67,0,0,1-1.19-1.13,6,6,0,0,0-.36-1,1,1,0,0,1,.41-1.31l3.58-1.8a.6.6,0,0,0,.12-1.08l-2.85-2.37a2,2,0,0,0-1.71-.34l-4.34,1.36a3.09,3.09,0,0,1-1.85-.12,23.61,23.61,0,0,0-2.32-.86,1.21,1.21,0,0,1-.84-1.26l.26-2.12a1,1,0,0,0-.87-1.09l-5.58-.58a1.57,1.57,0,0,0-1.44.78L164,367.56a2,2,0,0,1-1.44.94,27.48,27.48,0,0,0-2.89.36,2.93,2.93,0,0,1-1.81-.36l-3-2a2.14,2.14,0,0,0-1.75-.18l-4.46,1.79a.63.63,0,0,0-.24,1.09l2,2.16a.85.85,0,0,1-.12,1.3,11.92,11.92,0,0,0-1.22,1.09,2.45,2.45,0,0,1-1.65.7l-5.1-.2a1.36,1.36,0,0,0-1.29.9Zm.37.12.77-2.47a1,1,0,0,1,.9-.63l5.1.2a2.83,2.83,0,0,0,1.95-.82,12.07,12.07,0,0,1,1.18-1,1.31,1.31,0,0,0,.52-.93,1.27,1.27,0,0,0-.35-1l-2-2.15a.32.32,0,0,1-.11-.27.34.34,0,0,1,.22-.2l4.46-1.79a1.78,1.78,0,0,1,1.39.15l3,2a3.13,3.13,0,0,0,2.08.42c.93-.16,1.89-.28,2.86-.35a2.33,2.33,0,0,0,1.76-1.16l1.11-2.16a1.16,1.16,0,0,1,1.05-.57l5.58.58a.62.62,0,0,1,.4.22.57.57,0,0,1,.12.44l-.26,2.11a1.61,1.61,0,0,0,1.11,1.68,23.66,23.66,0,0,1,2.29.85,3.44,3.44,0,0,0,2.12.13l4.34-1.36a1.64,1.64,0,0,1,1.34.27l2.85,2.37c.1.08.15.17.14.23s-.08.14-.19.2l-3.58,1.8a1.35,1.35,0,0,0-.59,1.83,5.89,5.89,0,0,1,.35.91,2.06,2.06,0,0,0,1.49,1.41l4.85.83a.47.47,0,0,1,.34.21.5.5,0,0,1,0,.4l-.77,2.47a1,1,0,0,1-.91.63l-5.1-.21a2.92,2.92,0,0,0-1.94.82,12.15,12.15,0,0,1-1.18,1.06,1.31,1.31,0,0,0-.52.93,1.24,1.24,0,0,0,.35.95l2,2.15c.09.1.14.2.12.27a.34.34,0,0,1-.22.2l-4.46,1.78a1.73,1.73,0,0,1-1.39-.14l-3-2a3.15,3.15,0,0,0-2.09-.42c-.92.16-1.88.28-2.85.35a2.35,2.35,0,0,0-1.76,1.15l-1.11,2.17a1.14,1.14,0,0,1-1,.57l-5.58-.58a.62.62,0,0,1-.4-.22.57.57,0,0,1-.12-.44l.25-2.12a1.61,1.61,0,0,0-1.1-1.68,21.28,21.28,0,0,1-2.29-.84,3.44,3.44,0,0,0-2.12-.13l-4.34,1.36a1.66,1.66,0,0,1-1.35-.27l-2.84-2.37a.34.34,0,0,1-.15-.24.31.31,0,0,1,.2-.19l3.58-1.8a1.26,1.26,0,0,0,.55-.52,1.41,1.41,0,0,0,0-1.31,7.69,7.69,0,0,1-.34-.91,2.05,2.05,0,0,0-1.49-1.41l-4.86-.83a.45.45,0,0,1-.37-.61Z" style="fill:#fff"></path></g></g></g></svg>